<svg xmlns="http://www.w3.org/2000/svg" xmlns:xlink="http://www.w3.org/1999/xlink" width="400" zoomAndPan="magnify" viewBox="0 0 300 74.999997" height="100" preserveAspectRatio="xMidYMid meet" version="1.0"><defs><g/><clipPath id="2765b04050"><path d="M 4.933594 9.75 L 33.804688 9.75 L 33.804688 35.273438 L 4.933594 35.273438 Z M 4.933594 9.75 " clip-rule="nonzero"/></clipPath><clipPath id="19882c0eac"><path d="M 1.136719 0.75 L 29.804688 0.75 L 29.804688 26.273438 L 1.136719 26.273438 Z M 1.136719 0.75 " clip-rule="nonzero"/></clipPath><clipPath id="5c681e7762"><rect x="0" width="30" y="0" height="27"/></clipPath><clipPath id="69e2480046"><path d="M 8.480469 24.742188 L 31 24.742188 L 31 35.339844 L 8.480469 35.339844 Z M 8.480469 24.742188 " clip-rule="nonzero"/></clipPath><clipPath id="8469f76b8f"><path d="M 9.230469 24.742188 L 30.242188 24.742188 C 30.65625 24.742188 30.992188 25.078125 30.992188 25.492188 L 30.992188 34.589844 C 30.992188 35.003906 30.65625 35.339844 30.242188 35.339844 L 9.230469 35.339844 C 8.816406 35.339844 8.480469 35.003906 8.480469 34.589844 L 8.480469 25.492188 C 8.480469 25.078125 8.816406 24.742188 9.230469 24.742188 Z M 9.230469 24.742188 " clip-rule="nonzero"/></clipPath><clipPath id="a346492b2e"><path d="M 0.480469 0.742188 L 23 0.742188 L 23 11.339844 L 0.480469 11.339844 Z M 0.480469 0.742188 " clip-rule="nonzero"/></clipPath><clipPath id="d8bcee11bf"><path d="M 1.230469 0.742188 L 22.242188 0.742188 C 22.65625 0.742188 22.992188 1.078125 22.992188 1.492188 L 22.992188 10.589844 C 22.992188 11.003906 22.65625 11.339844 22.242188 11.339844 L 1.230469 11.339844 C 0.816406 11.339844 0.480469 11.003906 0.480469 10.589844 L 0.480469 1.492188 C 0.480469 1.078125 0.816406 0.742188 1.230469 0.742188 Z M 1.230469 0.742188 " clip-rule="nonzero"/></clipPath><clipPath id="d65d9f98b8"><rect x="0" width="23" y="0" height="12"/></clipPath><clipPath id="2d4f05a7cd"><path d="M 0.359375 4 L 21 4 L 21 26 L 0.359375 26 Z M 0.359375 4 " clip-rule="nonzero"/></clipPath><clipPath id="67c0a4b404"><path d="M 17.230469 4.824219 L 20.769531 8.367188 L 3.933594 25.203125 L 0.394531 21.660156 Z M 17.230469 4.824219 " clip-rule="nonzero"/></clipPath><clipPath id="4c56937a7f"><path d="M 0.359375 0.679688 L 21 0.679688 L 21 21.320312 L 0.359375 21.320312 Z M 0.359375 0.679688 " clip-rule="nonzero"/></clipPath><clipPath id="67eab71509"><path d="M 17.230469 0.824219 L 20.769531 4.367188 L 3.933594 21.203125 L 0.394531 17.660156 Z M 17.230469 0.824219 " clip-rule="nonzero"/></clipPath><clipPath id="d0c009e78b"><rect x="0" width="21" y="0" height="22"/></clipPath><clipPath id="850d8a12bc"><path d="M 35 0.601562 L 289.078125 0.601562 L 289.078125 44.28125 L 35 44.28125 Z M 35 0.601562 " clip-rule="nonzero"/></clipPath><clipPath id="d262600177"><rect x="0" width="255" y="0" height="45"/></clipPath><clipPath id="7901de0b0f"><rect x="0" width="290" y="0" height="45"/></clipPath></defs><rect x="-30" width="360" fill="#ffffff" y="-7.5" height="89.999996" fill-opacity="1"/><rect x="-30" width="360" fill="#ffffff" y="-7.5" height="89.999996" fill-opacity="1"/><g transform="matrix(1, 0, 0, 1, 3, 15)"><g clip-path="url(#7901de0b0f)"><g clip-path="url(#2765b04050)"><g transform="matrix(1, 0, 0, 1, 4, 9)"><g clip-path="url(#5c681e7762)"><g clip-path="url(#19882c0eac)"><path fill="#4a90e2" d="M 15.503906 0.78125 C 15.625 0.796875 15.738281 0.851562 15.824219 0.941406 L 29.792969 14.90625 C 30.003906 15.121094 30 15.464844 29.789062 15.675781 C 29.6875 15.777344 29.550781 15.832031 29.40625 15.832031 L 26.457031 15.832031 L 26.457031 25.765625 C 26.457031 26.066406 26.214844 26.308594 25.917969 26.308594 L 4.964844 26.308594 C 4.667969 26.308594 4.425781 26.066406 4.425781 25.765625 L 4.425781 15.832031 L 1.472656 15.832031 C 1.171875 15.832031 0.929688 15.585938 0.933594 15.289062 C 0.933594 15.144531 0.988281 15.007812 1.089844 14.90625 L 4.492188 11.503906 L 4.492188 6.839844 C 4.496094 6.542969 4.738281 6.300781 5.035156 6.300781 L 7.339844 6.300781 C 7.636719 6.300781 7.878906 6.542969 7.878906 6.839844 L 7.878906 8.117188 L 15.054688 0.941406 C 15.171875 0.824219 15.335938 0.765625 15.503906 0.78125 Z M 15.503906 0.78125 " fill-opacity="1" fill-rule="nonzero"/></g></g></g></g><g clip-path="url(#69e2480046)"><g clip-path="url(#8469f76b8f)"><g transform="matrix(1, 0, 0, 1, 8, 24)"><g clip-path="url(#d65d9f98b8)"><g clip-path="url(#a346492b2e)"><g clip-path="url(#d8bcee11bf)"><path fill="#131074" d="M 0.480469 0.742188 L 23 0.742188 L 23 11.339844 L 0.480469 11.339844 Z M 0.480469 0.742188 " fill-opacity="1" fill-rule="nonzero"/></g></g></g></g></g></g><g clip-path="url(#2d4f05a7cd)"><g clip-path="url(#67c0a4b404)"><g transform="matrix(1, 0, 0, 1, -0.000000000000000444, 4)"><g clip-path="url(#d0c009e78b)"><g clip-path="url(#4c56937a7f)"><g clip-path="url(#67eab71509)"><path fill="#ffffff" d="M 17.230469 0.824219 L 20.769531 4.367188 L 3.941406 21.195312 L 0.402344 17.65625 Z M 17.230469 0.824219 " fill-opacity="1" fill-rule="nonzero"/></g></g></g></g></g></g><g clip-path="url(#850d8a12bc)"><g transform="matrix(1, 0, 0, 1, 35, -0.000000000000001776)"><g clip-path="url(#d262600177)"><g fill="#131074" fill-opacity="1"><g transform="translate(0.524379, 35.175539)"><g><path d="M 2.28125 0 L 2.28125 -26.3125 L 12.75 -26.3125 C 14.664062 -26.3125 16.269531 -26.019531 17.5625 -25.4375 C 18.863281 -24.863281 19.835938 -24.066406 20.484375 -23.046875 C 21.140625 -22.023438 21.46875 -20.859375 21.46875 -19.546875 C 21.46875 -18.515625 21.265625 -17.609375 20.859375 -16.828125 C 20.453125 -16.054688 19.890625 -15.421875 19.171875 -14.921875 C 18.460938 -14.429688 17.648438 -14.082031 16.734375 -13.875 L 16.734375 -13.640625 C 17.742188 -13.597656 18.6875 -13.3125 19.5625 -12.78125 C 20.4375 -12.257812 21.140625 -11.535156 21.671875 -10.609375 C 22.203125 -9.679688 22.46875 -8.578125 22.46875 -7.296875 C 22.46875 -5.890625 22.125 -4.632812 21.4375 -3.53125 C 20.757812 -2.4375 19.75 -1.570312 18.40625 -0.9375 C 17.0625 -0.3125 15.394531 0 13.40625 0 Z M 7.65625 -4.390625 L 12.40625 -4.390625 C 13.945312 -4.390625 15.085938 -4.691406 15.828125 -5.296875 C 16.566406 -5.910156 16.9375 -6.726562 16.9375 -7.75 C 16.9375 -8.488281 16.757812 -9.140625 16.40625 -9.703125 C 16.050781 -10.273438 15.539062 -10.71875 14.875 -11.03125 C 14.21875 -11.351562 13.4375 -11.515625 12.53125 -11.515625 L 7.65625 -11.515625 Z M 7.65625 -15.28125 L 12.046875 -15.28125 C 12.816406 -15.28125 13.5 -15.414062 14.09375 -15.6875 C 14.695312 -15.957031 15.171875 -16.347656 15.515625 -16.859375 C 15.859375 -17.378906 16.03125 -17.984375 16.03125 -18.671875 C 16.03125 -19.648438 15.6875 -20.4375 15 -21.03125 C 14.320312 -21.632812 13.359375 -21.9375 12.109375 -21.9375 L 7.65625 -21.9375 Z M 7.65625 -15.28125 "/></g></g></g><g fill="#131074" fill-opacity="1"><g transform="translate(23.258152, 35.175539)"><g><path d="M 7.71875 0.375 C 6.46875 0.375 5.347656 0.15625 4.359375 -0.28125 C 3.367188 -0.71875 2.59375 -1.367188 2.03125 -2.234375 C 1.46875 -3.097656 1.1875 -4.171875 1.1875 -5.453125 C 1.1875 -6.546875 1.382812 -7.457031 1.78125 -8.1875 C 2.1875 -8.914062 2.734375 -9.503906 3.421875 -9.953125 C 4.117188 -10.398438 4.910156 -10.738281 5.796875 -10.96875 C 6.679688 -11.195312 7.613281 -11.359375 8.59375 -11.453125 C 9.738281 -11.578125 10.65625 -11.6875 11.34375 -11.78125 C 12.039062 -11.882812 12.546875 -12.039062 12.859375 -12.25 C 13.179688 -12.457031 13.34375 -12.773438 13.34375 -13.203125 L 13.34375 -13.296875 C 13.34375 -13.835938 13.222656 -14.296875 12.984375 -14.671875 C 12.742188 -15.054688 12.394531 -15.351562 11.9375 -15.5625 C 11.476562 -15.769531 10.914062 -15.875 10.25 -15.875 C 9.582031 -15.875 9 -15.769531 8.5 -15.5625 C 8 -15.351562 7.59375 -15.078125 7.28125 -14.734375 C 6.96875 -14.390625 6.75 -14 6.625 -13.5625 L 1.765625 -14.171875 C 2.035156 -15.347656 2.550781 -16.351562 3.3125 -17.1875 C 4.082031 -18.03125 5.0625 -18.671875 6.25 -19.109375 C 7.4375 -19.546875 8.789062 -19.765625 10.3125 -19.765625 C 11.414062 -19.765625 12.460938 -19.632812 13.453125 -19.375 C 14.453125 -19.125 15.335938 -18.726562 16.109375 -18.1875 C 16.890625 -17.644531 17.5 -16.957031 17.9375 -16.125 C 18.382812 -15.289062 18.609375 -14.300781 18.609375 -13.15625 L 18.609375 0 L 13.578125 0 L 13.578125 -2.71875 L 13.421875 -2.71875 C 13.097656 -2.101562 12.675781 -1.5625 12.15625 -1.09375 C 11.632812 -0.632812 11.007812 -0.273438 10.28125 -0.015625 C 9.550781 0.242188 8.695312 0.375 7.71875 0.375 Z M 9.203125 -3.3125 C 10.035156 -3.3125 10.765625 -3.476562 11.390625 -3.8125 C 12.015625 -4.144531 12.5 -4.585938 12.84375 -5.140625 C 13.195312 -5.691406 13.375 -6.316406 13.375 -7.015625 L 13.375 -9.078125 C 13.21875 -8.984375 12.988281 -8.890625 12.6875 -8.796875 C 12.394531 -8.703125 12.0625 -8.617188 11.6875 -8.546875 C 11.3125 -8.472656 10.929688 -8.40625 10.546875 -8.34375 C 10.160156 -8.289062 9.8125 -8.238281 9.5 -8.1875 C 8.863281 -8.09375 8.296875 -7.941406 7.796875 -7.734375 C 7.304688 -7.535156 6.925781 -7.257812 6.65625 -6.90625 C 6.382812 -6.5625 6.25 -6.128906 6.25 -5.609375 C 6.25 -5.117188 6.375 -4.703125 6.625 -4.359375 C 6.882812 -4.015625 7.234375 -3.753906 7.671875 -3.578125 C 8.109375 -3.398438 8.617188 -3.3125 9.203125 -3.3125 Z M 9.203125 -3.3125 "/></g></g></g><g fill="#131074" fill-opacity="1"><g transform="translate(42.972766, 35.175539)"><g><path d="M 9.96875 0.40625 C 8.382812 0.40625 6.976562 0.175781 5.75 -0.28125 C 4.519531 -0.75 3.519531 -1.425781 2.75 -2.3125 C 1.976562 -3.195312 1.488281 -4.253906 1.28125 -5.484375 L 6.25 -6.15625 C 6.46875 -5.257812 6.894531 -4.582031 7.53125 -4.125 C 8.164062 -3.664062 9.015625 -3.4375 10.078125 -3.4375 C 11.078125 -3.4375 11.863281 -3.628906 12.4375 -4.015625 C 13.019531 -4.398438 13.3125 -4.882812 13.3125 -5.46875 C 13.3125 -5.976562 13.101562 -6.394531 12.6875 -6.71875 C 12.269531 -7.039062 11.640625 -7.289062 10.796875 -7.46875 L 7.4375 -8.140625 C 5.550781 -8.523438 4.132812 -9.179688 3.1875 -10.109375 C 2.25 -11.046875 1.78125 -12.25 1.78125 -13.71875 C 1.78125 -14.957031 2.117188 -16.03125 2.796875 -16.9375 C 3.472656 -17.84375 4.425781 -18.539062 5.65625 -19.03125 C 6.882812 -19.519531 8.320312 -19.765625 9.96875 -19.765625 C 11.550781 -19.765625 12.914062 -19.539062 14.0625 -19.09375 C 15.21875 -18.65625 16.144531 -18.019531 16.84375 -17.1875 C 17.550781 -16.363281 18 -15.394531 18.1875 -14.28125 L 13.46875 -13.625 C 13.300781 -14.320312 12.929688 -14.890625 12.359375 -15.328125 C 11.796875 -15.773438 11.035156 -16 10.078125 -16 C 9.191406 -16 8.460938 -15.8125 7.890625 -15.4375 C 7.328125 -15.0625 7.046875 -14.582031 7.046875 -14 C 7.046875 -13.507812 7.238281 -13.09375 7.625 -12.75 C 8.007812 -12.414062 8.644531 -12.160156 9.53125 -11.984375 L 13.0625 -11.28125 C 14.96875 -10.90625 16.382812 -10.28125 17.3125 -9.40625 C 18.238281 -8.539062 18.703125 -7.40625 18.703125 -6 C 18.703125 -4.71875 18.328125 -3.597656 17.578125 -2.640625 C 16.835938 -1.679688 15.8125 -0.929688 14.5 -0.390625 C 13.1875 0.140625 11.675781 0.40625 9.96875 0.40625 Z M 9.96875 0.40625 "/></g></g></g><g fill="#131074" fill-opacity="1"><g transform="translate(61.857557, 35.175539)"><g><path d="M 11 0.390625 C 9.007812 0.390625 7.289062 -0.0195312 5.84375 -0.84375 C 4.40625 -1.664062 3.296875 -2.832031 2.515625 -4.34375 C 1.734375 -5.851562 1.34375 -7.625 1.34375 -9.65625 C 1.34375 -11.664062 1.726562 -13.425781 2.5 -14.9375 C 3.28125 -16.457031 4.375 -17.640625 5.78125 -18.484375 C 7.195312 -19.335938 8.851562 -19.765625 10.75 -19.765625 C 12.0625 -19.765625 13.273438 -19.550781 14.390625 -19.125 C 15.503906 -18.707031 16.484375 -18.082031 17.328125 -17.25 C 18.171875 -16.425781 18.820312 -15.390625 19.28125 -14.140625 C 19.75 -12.898438 19.984375 -11.46875 19.984375 -9.84375 L 19.984375 -8.390625 L 3.4375 -8.390625 L 3.4375 -11.703125 L 17.421875 -11.703125 L 14.96875 -10.84375 C 14.96875 -11.851562 14.804688 -12.726562 14.484375 -13.46875 C 14.171875 -14.207031 13.703125 -14.78125 13.078125 -15.1875 C 12.460938 -15.59375 11.703125 -15.796875 10.796875 -15.796875 C 9.890625 -15.796875 9.117188 -15.585938 8.484375 -15.171875 C 7.847656 -14.765625 7.363281 -14.203125 7.03125 -13.484375 C 6.695312 -12.765625 6.53125 -11.941406 6.53125 -11.015625 L 6.53125 -8.6875 C 6.53125 -7.59375 6.71875 -6.660156 7.09375 -5.890625 C 7.46875 -5.128906 8 -4.550781 8.6875 -4.15625 C 9.382812 -3.757812 10.191406 -3.5625 11.109375 -3.5625 C 11.734375 -3.5625 12.300781 -3.648438 12.8125 -3.828125 C 13.320312 -4.015625 13.753906 -4.28125 14.109375 -4.625 C 14.472656 -4.976562 14.75 -5.410156 14.9375 -5.921875 L 19.71875 -5.21875 C 19.414062 -4.09375 18.863281 -3.109375 18.0625 -2.265625 C 17.269531 -1.421875 16.273438 -0.765625 15.078125 -0.296875 C 13.890625 0.160156 12.53125 0.390625 11 0.390625 Z M 11 0.390625 "/></g></g></g><g fill="#131074" fill-opacity="1"><g transform="translate(82.066594, 35.175539)"><g><path d="M 3.046875 0 L 3.046875 -26.3125 L 7.71875 -26.3125 L 14.25 -9.625 C 14.40625 -9.238281 14.578125 -8.753906 14.765625 -8.171875 C 14.960938 -7.597656 15.171875 -6.976562 15.390625 -6.3125 C 15.617188 -5.65625 15.832031 -5.003906 16.03125 -4.359375 C 16.226562 -3.710938 16.398438 -3.125 16.546875 -2.59375 L 15.796875 -2.59375 C 15.953125 -3.101562 16.128906 -3.675781 16.328125 -4.3125 C 16.523438 -4.945312 16.734375 -5.59375 16.953125 -6.25 C 17.171875 -6.914062 17.382812 -7.546875 17.59375 -8.140625 C 17.800781 -8.742188 17.976562 -9.238281 18.125 -9.625 L 24.5625 -26.3125 L 29.234375 -26.3125 L 29.234375 0 L 25.96875 0 L 25.96875 -15.078125 C 25.96875 -15.617188 25.96875 -16.234375 25.96875 -16.921875 C 25.976562 -17.609375 25.992188 -18.320312 26.015625 -19.0625 C 26.035156 -19.800781 26.050781 -20.554688 26.0625 -21.328125 C 26.082031 -22.097656 26.097656 -22.84375 26.109375 -23.5625 L 26.421875 -23.5625 C 26.179688 -22.75 25.914062 -21.929688 25.625 -21.109375 C 25.34375 -20.285156 25.070312 -19.488281 24.8125 -18.71875 C 24.5625 -17.957031 24.320312 -17.265625 24.09375 -16.640625 C 23.863281 -16.023438 23.664062 -15.503906 23.5 -15.078125 L 17.5625 0 L 14.71875 0 L 8.703125 -15.078125 C 8.535156 -15.484375 8.34375 -15.992188 8.125 -16.609375 C 7.90625 -17.222656 7.664062 -17.90625 7.40625 -18.65625 C 7.144531 -19.414062 6.867188 -20.210938 6.578125 -21.046875 C 6.285156 -21.878906 5.992188 -22.71875 5.703125 -23.5625 L 6.078125 -23.5625 C 6.097656 -22.90625 6.113281 -22.203125 6.125 -21.453125 C 6.144531 -20.710938 6.160156 -19.960938 6.171875 -19.203125 C 6.191406 -18.441406 6.207031 -17.707031 6.21875 -17 C 6.226562 -16.289062 6.234375 -15.648438 6.234375 -15.078125 L 6.234375 0 Z M 3.046875 0 "/></g></g></g><g fill="#131074" fill-opacity="1"><g transform="translate(113.310501, 35.175539)"><g><path d="M 10.625 0.421875 C 8.851562 0.421875 7.296875 0.00390625 5.953125 -0.828125 C 4.617188 -1.671875 3.578125 -2.851562 2.828125 -4.375 C 2.085938 -5.894531 1.71875 -7.648438 1.71875 -9.640625 C 1.71875 -11.660156 2.085938 -13.429688 2.828125 -14.953125 C 3.578125 -16.484375 4.617188 -17.664062 5.953125 -18.5 C 7.296875 -19.34375 8.851562 -19.765625 10.625 -19.765625 C 12.40625 -19.765625 13.960938 -19.34375 15.296875 -18.5 C 16.640625 -17.664062 17.6875 -16.484375 18.4375 -14.953125 C 19.1875 -13.429688 19.5625 -11.660156 19.5625 -9.640625 C 19.5625 -7.648438 19.1875 -5.894531 18.4375 -4.375 C 17.6875 -2.851562 16.640625 -1.671875 15.296875 -0.828125 C 13.960938 0.00390625 12.40625 0.421875 10.625 0.421875 Z M 10.625 -2.390625 C 11.914062 -2.390625 12.988281 -2.71875 13.84375 -3.375 C 14.695312 -4.03125 15.332031 -4.90625 15.75 -6 C 16.175781 -7.101562 16.390625 -8.316406 16.390625 -9.640625 C 16.390625 -10.972656 16.175781 -12.191406 15.75 -13.296875 C 15.332031 -14.410156 14.695312 -15.300781 13.84375 -15.96875 C 12.988281 -16.632812 11.914062 -16.96875 10.625 -16.96875 C 9.34375 -16.96875 8.273438 -16.632812 7.421875 -15.96875 C 6.578125 -15.300781 5.941406 -14.414062 5.515625 -13.3125 C 5.097656 -12.207031 4.890625 -10.984375 4.890625 -9.640625 C 4.890625 -8.316406 5.097656 -7.101562 5.515625 -6 C 5.941406 -4.90625 6.578125 -4.03125 7.421875 -3.375 C 8.265625 -2.71875 9.332031 -2.390625 10.625 -2.390625 Z M 10.625 -2.390625 "/></g></g></g><g fill="#131074" fill-opacity="1"><g transform="translate(133.537139, 35.175539)"><g><path d="M 2.671875 0 L 2.671875 -19.484375 L 5.6875 -19.484375 L 5.6875 -16.484375 L 5.859375 -16.484375 C 6.222656 -17.472656 6.851562 -18.265625 7.75 -18.859375 C 8.644531 -19.460938 9.675781 -19.765625 10.84375 -19.765625 C 11.082031 -19.765625 11.351562 -19.757812 11.65625 -19.75 C 11.96875 -19.738281 12.207031 -19.726562 12.375 -19.71875 L 12.375 -16.5625 C 12.28125 -16.582031 12.046875 -16.613281 11.671875 -16.65625 C 11.304688 -16.707031 10.910156 -16.734375 10.484375 -16.734375 C 9.597656 -16.734375 8.800781 -16.546875 8.09375 -16.171875 C 7.382812 -15.796875 6.828125 -15.265625 6.421875 -14.578125 C 6.015625 -13.898438 5.8125 -13.09375 5.8125 -12.15625 L 5.8125 0 Z M 2.671875 0 "/></g></g></g><g fill="#131074" fill-opacity="1"><g transform="translate(145.659724, 35.175539)"><g><path d="M 10.515625 -19.484375 L 10.515625 -16.8125 L 0.328125 -16.8125 L 0.328125 -19.484375 Z M 3.375 -24.28125 L 6.515625 -24.28125 L 6.515625 -4.984375 C 6.515625 -4.140625 6.6875 -3.523438 7.03125 -3.140625 C 7.382812 -2.765625 7.972656 -2.578125 8.796875 -2.578125 C 9.003906 -2.578125 9.265625 -2.59375 9.578125 -2.625 C 9.890625 -2.664062 10.175781 -2.703125 10.4375 -2.734375 L 10.953125 -0.09375 C 10.617188 0 10.25 0.0664062 9.84375 0.109375 C 9.4375 0.160156 9.039062 0.1875 8.65625 0.1875 C 6.96875 0.1875 5.664062 -0.238281 4.75 -1.09375 C 3.832031 -1.957031 3.375 -3.171875 3.375 -4.734375 Z M 3.375 -24.28125 "/></g></g></g><g fill="#131074" fill-opacity="1"><g transform="translate(156.316874, 35.175539)"><g><path d="M 10.609375 7.765625 C 9.171875 7.765625 7.910156 7.570312 6.828125 7.1875 C 5.742188 6.8125 4.847656 6.289062 4.140625 5.625 C 3.441406 4.957031 2.914062 4.207031 2.5625 3.375 L 5.25 2.078125 C 5.5 2.523438 5.835938 2.972656 6.265625 3.421875 C 6.691406 3.878906 7.253906 4.257812 7.953125 4.5625 C 8.648438 4.863281 9.535156 5.015625 10.609375 5.015625 C 12.203125 5.015625 13.5 4.625 14.5 3.84375 C 15.5 3.070312 16 1.878906 16 0.265625 L 16 -3.4375 L 15.765625 -3.4375 C 15.484375 -2.988281 15.117188 -2.507812 14.671875 -2 C 14.222656 -1.488281 13.617188 -1.054688 12.859375 -0.703125 C 12.109375 -0.347656 11.15625 -0.171875 10 -0.171875 C 8.40625 -0.171875 6.984375 -0.550781 5.734375 -1.3125 C 4.484375 -2.070312 3.5 -3.171875 2.78125 -4.609375 C 2.070312 -6.054688 1.71875 -7.789062 1.71875 -9.8125 C 1.71875 -11.820312 2.066406 -13.570312 2.765625 -15.0625 C 3.472656 -16.550781 4.453125 -17.707031 5.703125 -18.53125 C 6.960938 -19.351562 8.410156 -19.765625 10.046875 -19.765625 C 11.210938 -19.765625 12.171875 -19.578125 12.921875 -19.203125 C 13.671875 -18.828125 14.273438 -18.375 14.734375 -17.84375 C 15.203125 -17.3125 15.570312 -16.828125 15.84375 -16.390625 L 16.0625 -16.390625 L 16.0625 -19.484375 L 19.125 -19.484375 L 19.125 0.40625 C 19.125 2.125 18.742188 3.523438 17.984375 4.609375 C 17.222656 5.703125 16.195312 6.5 14.90625 7 C 13.613281 7.507812 12.179688 7.765625 10.609375 7.765625 Z M 10.5 -2.96875 C 11.6875 -2.96875 12.695312 -3.242188 13.53125 -3.796875 C 14.363281 -4.347656 14.992188 -5.140625 15.421875 -6.171875 C 15.847656 -7.210938 16.0625 -8.445312 16.0625 -9.875 C 16.0625 -11.269531 15.847656 -12.5 15.421875 -13.5625 C 15.003906 -14.632812 14.378906 -15.46875 13.546875 -16.0625 C 12.722656 -16.664062 11.707031 -16.96875 10.5 -16.96875 C 9.289062 -16.96875 8.265625 -16.65625 7.421875 -16.03125 C 6.585938 -15.414062 5.957031 -14.578125 5.53125 -13.515625 C 5.101562 -12.453125 4.890625 -11.238281 4.890625 -9.875 C 4.890625 -8.476562 5.109375 -7.257812 5.546875 -6.21875 C 5.984375 -5.1875 6.617188 -4.382812 7.453125 -3.8125 C 8.285156 -3.25 9.300781 -2.96875 10.5 -2.96875 Z M 10.5 -2.96875 "/></g></g></g><g fill="#131074" fill-opacity="1"><g transform="translate(177.05553, 35.175539)"><g><path d="M 8.234375 0.421875 C 6.984375 0.421875 5.851562 0.191406 4.84375 -0.265625 C 3.84375 -0.722656 3.039062 -1.398438 2.4375 -2.296875 C 1.84375 -3.191406 1.546875 -4.28125 1.546875 -5.5625 C 1.546875 -6.675781 1.765625 -7.582031 2.203125 -8.28125 C 2.648438 -8.976562 3.238281 -9.53125 3.96875 -9.9375 C 4.707031 -10.34375 5.523438 -10.644531 6.421875 -10.84375 C 7.328125 -11.039062 8.238281 -11.195312 9.15625 -11.3125 C 10.351562 -11.46875 11.3125 -11.585938 12.03125 -11.671875 C 12.757812 -11.753906 13.296875 -11.890625 13.640625 -12.078125 C 13.984375 -12.273438 14.15625 -12.613281 14.15625 -13.09375 L 14.15625 -13.21875 C 14.15625 -14.007812 14 -14.6875 13.6875 -15.25 C 13.375 -15.8125 12.910156 -16.242188 12.296875 -16.546875 C 11.691406 -16.847656 10.9375 -17 10.03125 -17 C 9.101562 -17 8.304688 -16.851562 7.640625 -16.5625 C 6.972656 -16.28125 6.429688 -15.910156 6.015625 -15.453125 C 5.597656 -15.003906 5.304688 -14.523438 5.140625 -14.015625 L 2.078125 -14.8125 C 2.484375 -16 3.09375 -16.953125 3.90625 -17.671875 C 4.71875 -18.398438 5.648438 -18.929688 6.703125 -19.265625 C 7.753906 -19.597656 8.835938 -19.765625 9.953125 -19.765625 C 10.710938 -19.765625 11.515625 -19.664062 12.359375 -19.46875 C 13.203125 -19.28125 14 -18.945312 14.75 -18.46875 C 15.5 -17.988281 16.109375 -17.300781 16.578125 -16.40625 C 17.046875 -15.519531 17.28125 -14.375 17.28125 -12.96875 L 17.28125 0 L 14.1875 0 L 14.1875 -2.6875 L 14.015625 -2.6875 C 13.796875 -2.226562 13.441406 -1.753906 12.953125 -1.265625 C 12.472656 -0.785156 11.84375 -0.382812 11.0625 -0.0625 C 10.289062 0.257812 9.347656 0.421875 8.234375 0.421875 Z M 8.734375 -2.359375 C 9.921875 -2.359375 10.914062 -2.582031 11.71875 -3.03125 C 12.519531 -3.488281 13.125 -4.082031 13.53125 -4.8125 C 13.945312 -5.550781 14.15625 -6.316406 14.15625 -7.109375 L 14.15625 -9.765625 C 14.03125 -9.617188 13.765625 -9.488281 13.359375 -9.375 C 12.953125 -9.257812 12.476562 -9.15625 11.9375 -9.0625 C 11.40625 -8.96875 10.875 -8.882812 10.34375 -8.8125 C 9.820312 -8.75 9.378906 -8.695312 9.015625 -8.65625 C 8.265625 -8.5625 7.5625 -8.398438 6.90625 -8.171875 C 6.25 -7.941406 5.71875 -7.609375 5.3125 -7.171875 C 4.914062 -6.734375 4.71875 -6.144531 4.71875 -5.40625 C 4.71875 -4.738281 4.890625 -4.175781 5.234375 -3.71875 C 5.578125 -3.269531 6.050781 -2.929688 6.65625 -2.703125 C 7.257812 -2.472656 7.953125 -2.359375 8.734375 -2.359375 Z M 8.734375 -2.359375 "/></g></g></g><g fill="#131074" fill-opacity="1"><g transform="translate(195.957979, 35.175539)"><g><path d="M 10.609375 7.765625 C 9.171875 7.765625 7.910156 7.570312 6.828125 7.1875 C 5.742188 6.8125 4.847656 6.289062 4.140625 5.625 C 3.441406 4.957031 2.914062 4.207031 2.5625 3.375 L 5.25 2.078125 C 5.5 2.523438 5.835938 2.972656 6.265625 3.421875 C 6.691406 3.878906 7.253906 4.257812 7.953125 4.5625 C 8.648438 4.863281 9.535156 5.015625 10.609375 5.015625 C 12.203125 5.015625 13.5 4.625 14.5 3.84375 C 15.5 3.070312 16 1.878906 16 0.265625 L 16 -3.4375 L 15.765625 -3.4375 C 15.484375 -2.988281 15.117188 -2.507812 14.671875 -2 C 14.222656 -1.488281 13.617188 -1.054688 12.859375 -0.703125 C 12.109375 -0.347656 11.15625 -0.171875 10 -0.171875 C 8.40625 -0.171875 6.984375 -0.550781 5.734375 -1.3125 C 4.484375 -2.070312 3.5 -3.171875 2.78125 -4.609375 C 2.070312 -6.054688 1.71875 -7.789062 1.71875 -9.8125 C 1.71875 -11.820312 2.066406 -13.570312 2.765625 -15.0625 C 3.472656 -16.550781 4.453125 -17.707031 5.703125 -18.53125 C 6.960938 -19.351562 8.410156 -19.765625 10.046875 -19.765625 C 11.210938 -19.765625 12.171875 -19.578125 12.921875 -19.203125 C 13.671875 -18.828125 14.273438 -18.375 14.734375 -17.84375 C 15.203125 -17.3125 15.570312 -16.828125 15.84375 -16.390625 L 16.0625 -16.390625 L 16.0625 -19.484375 L 19.125 -19.484375 L 19.125 0.40625 C 19.125 2.125 18.742188 3.523438 17.984375 4.609375 C 17.222656 5.703125 16.195312 6.5 14.90625 7 C 13.613281 7.507812 12.179688 7.765625 10.609375 7.765625 Z M 10.5 -2.96875 C 11.6875 -2.96875 12.695312 -3.242188 13.53125 -3.796875 C 14.363281 -4.347656 14.992188 -5.140625 15.421875 -6.171875 C 15.847656 -7.210938 16.0625 -8.445312 16.0625 -9.875 C 16.0625 -11.269531 15.847656 -12.5 15.421875 -13.5625 C 15.003906 -14.632812 14.378906 -15.46875 13.546875 -16.0625 C 12.722656 -16.664062 11.707031 -16.96875 10.5 -16.96875 C 9.289062 -16.96875 8.265625 -16.65625 7.421875 -16.03125 C 6.585938 -15.414062 5.957031 -14.578125 5.53125 -13.515625 C 5.101562 -12.453125 4.890625 -11.238281 4.890625 -9.875 C 4.890625 -8.476562 5.109375 -7.257812 5.546875 -6.21875 C 5.984375 -5.1875 6.617188 -4.382812 7.453125 -3.8125 C 8.285156 -3.25 9.300781 -2.96875 10.5 -2.96875 Z M 10.5 -2.96875 "/></g></g></g><g fill="#131074" fill-opacity="1"><g transform="translate(216.696629, 35.175539)"><g><path d="M 10.828125 0.421875 C 8.941406 0.421875 7.316406 0 5.953125 -0.84375 C 4.585938 -1.695312 3.539062 -2.875 2.8125 -4.375 C 2.082031 -5.882812 1.71875 -7.632812 1.71875 -9.625 C 1.71875 -11.613281 2.078125 -13.375 2.796875 -14.90625 C 3.523438 -16.4375 4.550781 -17.628906 5.875 -18.484375 C 7.195312 -19.335938 8.734375 -19.765625 10.484375 -19.765625 C 11.585938 -19.765625 12.648438 -19.578125 13.671875 -19.203125 C 14.703125 -18.835938 15.625 -18.257812 16.4375 -17.46875 C 17.25 -16.675781 17.890625 -15.65625 18.359375 -14.40625 C 18.828125 -13.15625 19.0625 -11.664062 19.0625 -9.9375 L 19.0625 -8.71875 L 3.75 -8.71875 L 3.75 -11.375 L 17.359375 -11.375 L 15.921875 -10.421875 C 15.921875 -11.703125 15.710938 -12.835938 15.296875 -13.828125 C 14.878906 -14.816406 14.265625 -15.585938 13.453125 -16.140625 C 12.648438 -16.703125 11.660156 -16.984375 10.484375 -16.984375 C 9.316406 -16.984375 8.3125 -16.695312 7.46875 -16.125 C 6.632812 -15.5625 5.992188 -14.8125 5.546875 -13.875 C 5.097656 -12.945312 4.875 -11.921875 4.875 -10.796875 L 4.875 -9.140625 C 4.875 -7.722656 5.117188 -6.503906 5.609375 -5.484375 C 6.097656 -4.472656 6.789062 -3.703125 7.6875 -3.171875 C 8.59375 -2.648438 9.644531 -2.390625 10.84375 -2.390625 C 11.644531 -2.390625 12.363281 -2.503906 13 -2.734375 C 13.644531 -2.972656 14.195312 -3.320312 14.65625 -3.78125 C 15.113281 -4.238281 15.457031 -4.800781 15.6875 -5.46875 L 18.75 -4.796875 C 18.457031 -3.773438 17.945312 -2.867188 17.21875 -2.078125 C 16.488281 -1.296875 15.578125 -0.679688 14.484375 -0.234375 C 13.398438 0.203125 12.179688 0.421875 10.828125 0.421875 Z M 10.828125 0.421875 "/></g></g></g><g fill="#131074" fill-opacity="1"><g transform="translate(236.358274, 35.175539)"><g><path d="M 9.328125 0.421875 C 7.984375 0.421875 6.78125 0.21875 5.71875 -0.1875 C 4.65625 -0.59375 3.78125 -1.195312 3.09375 -2 C 2.414062 -2.800781 1.976562 -3.785156 1.78125 -4.953125 L 4.78125 -5.53125 C 5.03125 -4.4375 5.539062 -3.625 6.3125 -3.09375 C 7.082031 -2.570312 8.070312 -2.3125 9.28125 -2.3125 C 10.632812 -2.3125 11.710938 -2.601562 12.515625 -3.1875 C 13.328125 -3.769531 13.734375 -4.46875 13.734375 -5.28125 C 13.734375 -5.957031 13.488281 -6.519531 13 -6.96875 C 12.507812 -7.414062 11.796875 -7.75 10.859375 -7.96875 L 7.625 -8.734375 C 5.84375 -9.148438 4.515625 -9.800781 3.640625 -10.6875 C 2.773438 -11.570312 2.34375 -12.707031 2.34375 -14.09375 C 2.34375 -15.207031 2.648438 -16.191406 3.265625 -17.046875 C 3.890625 -17.898438 4.742188 -18.566406 5.828125 -19.046875 C 6.910156 -19.523438 8.144531 -19.765625 9.53125 -19.765625 C 10.875 -19.765625 12.023438 -19.550781 12.984375 -19.125 C 13.953125 -18.707031 14.734375 -18.117188 15.328125 -17.359375 C 15.921875 -16.609375 16.335938 -15.742188 16.578125 -14.765625 L 13.703125 -14.171875 C 13.484375 -14.941406 13.046875 -15.625 12.390625 -16.21875 C 11.742188 -16.8125 10.796875 -17.109375 9.546875 -17.109375 C 8.367188 -17.109375 7.398438 -16.835938 6.640625 -16.296875 C 5.890625 -15.753906 5.515625 -15.070312 5.515625 -14.25 C 5.515625 -13.519531 5.773438 -12.9375 6.296875 -12.5 C 6.828125 -12.0625 7.640625 -11.710938 8.734375 -11.453125 L 11.71875 -10.75 C 13.507812 -10.320312 14.832031 -9.671875 15.6875 -8.796875 C 16.539062 -7.921875 16.96875 -6.804688 16.96875 -5.453125 C 16.96875 -4.296875 16.644531 -3.273438 16 -2.390625 C 15.351562 -1.515625 14.453125 -0.828125 13.296875 -0.328125 C 12.148438 0.171875 10.828125 0.421875 9.328125 0.421875 Z M 9.328125 0.421875 "/></g></g></g></g></g></g></g></g></svg>