<svg xmlns="http://www.w3.org/2000/svg" xmlns:xlink="http://www.w3.org/1999/xlink" width="310" zoomAndPan="magnify" viewBox="0 0 232.5 52.499999" height="70" preserveAspectRatio="xMidYMid meet" version="1.0"><defs><g/></defs><g fill="#006d77" fill-opacity="1"><g transform="translate(14.053976, 35.660375)"><g><path d="M 14.890625 -11.65625 C 17.027344 -12.203125 18.429688 -13.882812 18.429688 -16.171875 C 18.429688 -19.222656 15.925781 -21.664062 10.433594 -21.664062 L 1.984375 -21.664062 C 1.554688 -21.664062 1.25 -21.449219 1.25 -21.082031 L 1.25 -20.960938 C 1.25 -20.105469 2.472656 -19.742188 2.472656 -18.335938 L 2.472656 -3.324219 C 2.472656 -1.921875 1.25 -1.554688 1.25 -0.703125 L 1.25 -0.578125 C 1.25 -0.214844 1.554688 0 1.984375 0 L 10.34375 0 C 17.390625 0 20.566406 -2.503906 20.566406 -6.101562 C 20.566406 -9.03125 18.398438 -11.167969 14.890625 -11.65625 Z M 7.964844 -17.941406 C 7.964844 -19.160156 8.605469 -19.527344 9.398438 -19.527344 L 10.253906 -19.527344 C 12.328125 -19.527344 13.699219 -18.003906 13.699219 -15.378906 C 13.699219 -13.640625 12.691406 -12.511719 11.136719 -12.511719 L 9.609375 -12.511719 C 8.636719 -12.511719 7.964844 -13.089844 7.964844 -14.097656 Z M 11.714844 -2.136719 L 10.253906 -2.136719 C 8.847656 -2.136719 7.964844 -3.265625 7.964844 -4.730469 L 7.964844 -10.375 L 9.246094 -10.375 C 12.90625 -10.375 14.769531 -7.566406 14.769531 -5.308594 C 14.769531 -3.417969 13.667969 -2.136719 11.714844 -2.136719 Z M 11.714844 -2.136719 "/></g></g></g><g fill="#006d77" fill-opacity="1"><g transform="translate(33.76061, 35.660375)"><g><path d="M 15.257812 -3.324219 L 14.585938 -8.789062 C 14.097656 -12.570312 11.257812 -14.949219 7.171875 -14.949219 C 4.058594 -14.949219 1.066406 -13.882812 1.066406 -11.382812 C 1.066406 -10.191406 1.921875 -9.398438 3.203125 -9.398438 C 5.917969 -9.398438 5.066406 -13.484375 7.171875 -13.484375 C 8.757812 -13.484375 8.96875 -11.929688 9.335938 -8.328125 L 9.335938 -8.238281 C 8.574219 -8.695312 7.535156 -9 6.253906 -9 C 3.355469 -9 0.761719 -7.414062 0.761719 -4.332031 C 0.761719 -1.191406 3.265625 0.304688 6.53125 0.304688 C 8.542969 0.304688 9.765625 -0.398438 10.40625 -1.28125 C 10.648438 -0.183594 11.535156 0.183594 13.363281 0.183594 C 15.042969 0.183594 16.8125 -0.03125 16.8125 -0.824219 C 16.8125 -1.679688 15.53125 -1.160156 15.257812 -3.324219 Z M 8.207031 -1.25 C 6.957031 -1.25 6.222656 -3.144531 6.222656 -5.308594 C 6.222656 -6.558594 6.863281 -7.382812 7.78125 -7.382812 C 8.664062 -7.382812 9.457031 -6.683594 9.671875 -4.851562 L 9.792969 -3.449219 C 9.792969 -2.410156 9.214844 -1.25 8.207031 -1.25 Z M 8.207031 -1.25 "/></g></g></g><g fill="#006d77" fill-opacity="1"><g transform="translate(49.074324, 35.660375)"><g><path d="M 7.414062 0.273438 C 11.65625 0.273438 14.066406 -1.679688 14.066406 -4.210938 C 14.066406 -9.824219 6.253906 -7.628906 6.253906 -11.808594 C 6.253906 -12.691406 6.742188 -13.546875 7.6875 -13.546875 C 9.792969 -13.546875 8.816406 -9.429688 11.777344 -9.429688 C 12.90625 -9.429688 13.820312 -10.222656 13.820312 -11.289062 C 13.820312 -13.273438 11.289062 -14.949219 7.414062 -14.949219 C 3.601562 -14.949219 0.976562 -13.027344 0.976562 -10.3125 C 0.976562 -4.394531 9.0625 -6.742188 9.0625 -2.746094 C 9.0625 -1.527344 8.328125 -1.066406 7.414062 -1.066406 C 4.882812 -1.066406 5.917969 -5.25 2.867188 -5.25 C 1.648438 -5.25 0.703125 -4.667969 0.703125 -3.296875 C 0.703125 -1.160156 3.570312 0.273438 7.414062 0.273438 Z M 7.414062 0.273438 "/></g></g></g><g fill="#006d77" fill-opacity="1"><g transform="translate(62.344112, 35.660375)"><g><path d="M 13.273438 -4.820312 C 12.722656 -4.089844 11.535156 -3.476562 10.222656 -3.476562 C 8.726562 -3.476562 7.535156 -4.210938 6.742188 -5.460938 L 12.816406 -8.878906 C 13.515625 -9.246094 14.003906 -9.855469 14.003906 -10.769531 C 14.003906 -12.691406 12.175781 -14.949219 8.175781 -14.949219 C 4.179688 -14.949219 0.671875 -11.929688 0.671875 -7.414062 C 0.671875 -2.777344 3.785156 0.304688 8.207031 0.304688 C 12.203125 0.304688 14.339844 -2.714844 14.402344 -4.394531 C 14.433594 -5.066406 13.699219 -5.25 13.273438 -4.820312 Z M 7.628906 -13.457031 C 9.183594 -13.457031 9.671875 -11.289062 9.671875 -10.3125 C 9.671875 -9.671875 9.367188 -9.09375 8.878906 -8.757812 L 6.042969 -7.046875 C 5.734375 -7.964844 5.582031 -9.0625 5.582031 -10.253906 C 5.582031 -12.023438 6.378906 -13.457031 7.628906 -13.457031 Z M 7.628906 -13.457031 "/></g></g></g><g fill="#006d77" fill-opacity="1"><g transform="translate(75.766427, 35.660375)"><g/></g></g><g fill="#1f2933" fill-opacity="1"><g transform="translate(80.255511, 35.660375)"><g><path d="M 25.964844 -2.5625 L 25.597656 -8.207031 C 25.265625 -13.210938 22.824219 -14.949219 19.894531 -14.949219 C 17.757812 -14.949219 15.925781 -13.851562 15.132812 -11.929688 C 14.097656 -13.882812 12.175781 -14.949219 9.976562 -14.949219 C 8.085938 -14.949219 6.5 -13.972656 5.613281 -12.480469 L 5.613281 -14.28125 C 5.613281 -14.796875 5.277344 -15.164062 4.636719 -14.828125 L 1.527344 -13.394531 C 1.191406 -13.242188 0.976562 -13.089844 0.976562 -12.84375 L 0.976562 -12.753906 C 0.976562 -12.082031 2.320312 -11.992188 2.320312 -10.710938 L 2.320312 -2.53125 C 2.320312 -1.34375 1.097656 -1.191406 1.097656 -0.519531 L 1.097656 -0.398438 C 1.097656 -0.121094 1.371094 0.03125 1.769531 0.03125 L 6.5 0.03125 C 6.894531 0.03125 7.140625 -0.121094 7.140625 -0.398438 L 7.140625 -0.519531 C 7.140625 -1.191406 5.917969 -1.34375 5.917969 -2.53125 L 5.890625 -9.855469 C 5.980469 -11.898438 7.199219 -13.484375 9.09375 -13.484375 C 10.921875 -13.484375 12.296875 -11.746094 12.296875 -8.636719 L 12.296875 -2.53125 C 12.296875 -1.34375 11.226562 -1.191406 11.226562 -0.519531 L 11.226562 -0.398438 C 11.226562 -0.121094 11.503906 0.03125 11.898438 0.03125 L 16.324219 0.03125 C 16.71875 0.03125 16.964844 -0.121094 16.964844 -0.398438 L 16.964844 -0.519531 C 16.964844 -1.191406 15.898438 -1.34375 15.898438 -2.53125 L 15.898438 -8.421875 C 15.898438 -8.941406 15.867188 -9.429688 15.773438 -9.886719 C 15.867188 -11.960938 17.148438 -13.484375 18.824219 -13.484375 C 20.75 -13.484375 21.878906 -12.082031 22.058594 -8.300781 L 22.363281 -2.53125 C 22.425781 -1.34375 21.296875 -1.191406 21.296875 -0.519531 L 21.296875 -0.398438 C 21.296875 -0.121094 21.542969 0.03125 21.9375 0.03125 L 26.421875 0.03125 C 26.789062 0.03125 27.0625 -0.121094 27.0625 -0.398438 L 27.0625 -0.519531 C 27.0625 -1.191406 26.027344 -1.34375 25.964844 -2.5625 Z M 25.964844 -2.5625 "/></g></g></g><g fill="#1f2933" fill-opacity="1"><g transform="translate(106.429508, 35.660375)"><g><path d="M 9.152344 0.304688 C 13.578125 0.304688 16.507812 -3.050781 16.507812 -7.230469 C 16.507812 -11.441406 13.273438 -14.949219 8.453125 -14.949219 C 4.273438 -14.949219 0.886719 -11.808594 0.886719 -7.476562 C 0.886719 -3.417969 3.964844 0.304688 9.152344 0.304688 Z M 9.609375 -0.855469 C 6.53125 -0.855469 4.484375 -4.882812 4.484375 -8.664062 C 4.484375 -12.023438 5.890625 -13.792969 8.054688 -13.792969 C 10.863281 -13.792969 12.90625 -10.253906 12.90625 -5.980469 C 12.90625 -2.683594 11.503906 -0.855469 9.609375 -0.855469 Z M 9.609375 -0.855469 "/></g></g></g><g fill="#1f2933" fill-opacity="1"><g transform="translate(122.383861, 35.660375)"><g><path d="M 9.488281 -14.949219 C 7.535156 -14.949219 6.101562 -13.882812 5.429688 -11.929688 L 5.429688 -14.308594 C 5.429688 -14.828125 5.1875 -15.132812 4.546875 -14.828125 L 1.554688 -13.457031 C 1.21875 -13.273438 1.007812 -13.058594 1.007812 -12.816406 L 1.007812 -12.722656 C 1.007812 -12.050781 2.320312 -11.992188 2.320312 -10.738281 L 2.320312 -2.53125 C 2.320312 -1.34375 1.160156 -1.21875 1.160156 -0.550781 L 1.160156 -0.425781 C 1.160156 -0.152344 1.402344 0 1.800781 0 L 6.53125 0 C 6.925781 0 7.171875 -0.152344 7.171875 -0.425781 L 7.171875 -0.550781 C 7.171875 -1.21875 5.765625 -1.34375 5.765625 -2.53125 L 5.765625 -9.0625 C 5.765625 -11.046875 6.4375 -12.84375 7.871094 -12.84375 C 9.640625 -12.84375 8.726562 -10.464844 10.710938 -10.464844 C 11.867188 -10.464844 12.296875 -11.351562 12.296875 -12.386719 C 12.296875 -13.792969 11.289062 -14.949219 9.488281 -14.949219 Z M 9.488281 -14.949219 "/></g></g></g><g fill="#1f2933" fill-opacity="1"><g transform="translate(133.243645, 35.660375)"><g><path d="M 6.773438 0.304688 C 9.519531 0.304688 11.074219 -1.738281 11.074219 -3.785156 C 11.074219 -4.332031 10.34375 -4.425781 10.070312 -3.9375 C 9.886719 -3.050781 9.183594 -2.347656 7.902344 -2.347656 C 6.894531 -2.347656 6.164062 -3.144531 6.164062 -4.605469 L 6.164062 -13.152344 L 10.007812 -13.152344 C 10.3125 -13.152344 10.558594 -13.363281 10.558594 -13.667969 L 10.558594 -14.097656 C 10.558594 -14.402344 10.3125 -14.644531 10.007812 -14.644531 L 6.164062 -14.644531 L 6.132812 -17.605469 C 6.132812 -18.03125 5.949219 -18.277344 5.554688 -18.277344 L 5.09375 -18.277344 C 4.789062 -18.277344 4.546875 -18.03125 4.484375 -17.605469 C 4.242188 -15.835938 3.296875 -14.644531 1.707031 -14.644531 L 0.761719 -14.644531 C 0.425781 -14.644531 0.242188 -14.433594 0.242188 -14.097656 L 0.242188 -13.667969 C 0.242188 -13.363281 0.457031 -13.152344 0.761719 -13.152344 L 2.503906 -13.152344 L 2.503906 -4.636719 C 2.503906 -1.34375 4.210938 0.304688 6.773438 0.304688 Z M 6.773438 0.304688 "/></g></g></g><g fill="#1f2933" fill-opacity="1"><g transform="translate(143.096712, 35.660375)"><g><path d="M 14.15625 -14.644531 C 10.679688 -14.644531 10.007812 -14.949219 7.992188 -14.949219 C 3.8125 -14.949219 0.976562 -12.355469 0.976562 -8.664062 C 0.976562 -5.277344 3.964844 -2.683594 7.839844 -2.683594 C 8.238281 -2.683594 8.605469 -2.714844 8.96875 -2.746094 C 10.648438 -2.5625 11.65625 -1.34375 11.65625 0.398438 C 11.65625 2.257812 10.222656 3.539062 8.023438 3.539062 C 3.691406 3.507812 4.578125 -1.191406 2.320312 -1.191406 C 1.3125 -1.191406 0.855469 -0.488281 0.855469 0.242188 C 0.855469 2.410156 3.296875 4.667969 7.902344 4.667969 C 12.113281 4.667969 15.257812 2.960938 15.257812 0.242188 C 15.257812 -1.433594 14.128906 -2.808594 11.472656 -3.417969 C 13.640625 -4.425781 15.011719 -6.378906 15.011719 -8.816406 C 15.011719 -10.3125 14.21875 -11.867188 13.089844 -12.875 C 14.003906 -13.121094 15.101562 -13 15.46875 -13.792969 C 15.746094 -14.25 15.5 -14.644531 14.15625 -14.644531 Z M 4.515625 -10.222656 C 4.515625 -12.296875 5.613281 -13.792969 7.414062 -13.792969 C 9.855469 -13.792969 11.472656 -10.800781 11.472656 -7.476562 C 11.472656 -5.402344 10.3125 -3.875 8.421875 -3.875 C 6.285156 -3.875 4.515625 -6.773438 4.515625 -10.222656 Z M 4.515625 -10.222656 "/></g></g></g><g fill="#1f2933" fill-opacity="1"><g transform="translate(158.044349, 35.660375)"><g><path d="M 14.1875 -2.746094 L 13.578125 -8.605469 C 13.152344 -12.539062 10.679688 -14.949219 6.835938 -14.949219 C 3.570312 -14.949219 1.191406 -13.457031 1.191406 -11.535156 C 1.191406 -10.679688 1.769531 -10.128906 2.683594 -10.128906 C 4.605469 -10.128906 3.996094 -13.820312 6.835938 -13.820312 C 8.96875 -13.820312 9.703125 -11.992188 10.039062 -8.453125 L 10.097656 -7.839844 C 9.277344 -8.480469 8.054688 -8.878906 6.558594 -8.878906 C 3.476562 -8.878906 0.976562 -7.292969 1.007812 -4.300781 C 1.007812 -1.3125 3.386719 0.304688 6.710938 0.304688 C 8.878906 0.304688 10.253906 -0.519531 10.953125 -1.648438 C 11.074219 -0.152344 11.839844 0.183594 13.394531 0.183594 C 14.707031 0.183594 15.867188 0 15.867188 -0.578125 C 15.867188 -1.371094 14.402344 -0.761719 14.1875 -2.746094 Z M 7.71875 -0.855469 C 5.828125 -0.855469 4.605469 -2.65625 4.605469 -4.730469 C 4.605469 -6.558594 5.796875 -7.71875 7.476562 -7.71875 C 9.09375 -7.71875 10.253906 -6.621094 10.375 -4.882812 L 10.464844 -3.9375 C 10.558594 -2.289062 9.429688 -0.855469 7.71875 -0.855469 Z M 7.71875 -0.855469 "/></g></g></g><g fill="#1f2933" fill-opacity="1"><g transform="translate(172.442876, 35.660375)"><g><path d="M 14.15625 -14.644531 C 10.679688 -14.644531 10.007812 -14.949219 7.992188 -14.949219 C 3.8125 -14.949219 0.976562 -12.355469 0.976562 -8.664062 C 0.976562 -5.277344 3.964844 -2.683594 7.839844 -2.683594 C 8.238281 -2.683594 8.605469 -2.714844 8.96875 -2.746094 C 10.648438 -2.5625 11.65625 -1.34375 11.65625 0.398438 C 11.65625 2.257812 10.222656 3.539062 8.023438 3.539062 C 3.691406 3.507812 4.578125 -1.191406 2.320312 -1.191406 C 1.3125 -1.191406 0.855469 -0.488281 0.855469 0.242188 C 0.855469 2.410156 3.296875 4.667969 7.902344 4.667969 C 12.113281 4.667969 15.257812 2.960938 15.257812 0.242188 C 15.257812 -1.433594 14.128906 -2.808594 11.472656 -3.417969 C 13.640625 -4.425781 15.011719 -6.378906 15.011719 -8.816406 C 15.011719 -10.3125 14.21875 -11.867188 13.089844 -12.875 C 14.003906 -13.121094 15.101562 -13 15.46875 -13.792969 C 15.746094 -14.25 15.5 -14.644531 14.15625 -14.644531 Z M 4.515625 -10.222656 C 4.515625 -12.296875 5.613281 -13.792969 7.414062 -13.792969 C 9.855469 -13.792969 11.472656 -10.800781 11.472656 -7.476562 C 11.472656 -5.402344 10.3125 -3.875 8.421875 -3.875 C 6.285156 -3.875 4.515625 -6.773438 4.515625 -10.222656 Z M 4.515625 -10.222656 "/></g></g></g><g fill="#1f2933" fill-opacity="1"><g transform="translate(187.390512, 35.660375)"><g><path d="M 13.363281 -4.484375 C 12.753906 -3.265625 11.382812 -2.257812 9.457031 -2.257812 C 7.292969 -2.257812 5.734375 -3.539062 4.972656 -5.613281 L 12.355469 -8.328125 C 13.304688 -8.664062 13.914062 -9.304688 13.914062 -10.464844 C 13.914062 -12.601562 12.144531 -14.949219 8.207031 -14.949219 C 4.179688 -14.949219 0.914062 -11.808594 0.914062 -7.445312 C 0.914062 -2.714844 4.058594 0.304688 8.148438 0.304688 C 12.023438 0.304688 14.066406 -2.378906 14.339844 -4.179688 C 14.402344 -4.789062 13.699219 -4.914062 13.363281 -4.484375 Z M 7.597656 -13.792969 C 9.367188 -13.792969 10.496094 -11.59375 10.496094 -10.34375 C 10.496094 -9.734375 10.253906 -9.304688 9.703125 -9.0625 L 4.636719 -6.863281 C 4.515625 -7.476562 4.453125 -8.117188 4.453125 -8.816406 C 4.453125 -11.746094 5.675781 -13.792969 7.597656 -13.792969 Z M 7.597656 -13.792969 "/></g></g></g><g fill="#1f2933" fill-opacity="1"><g transform="translate(200.934861, 35.660375)"><g><path d="M 7.230469 0.273438 C 11.167969 0.273438 13.640625 -1.585938 13.640625 -3.964844 C 13.640625 -10.007812 4.761719 -7.351562 4.761719 -11.503906 C 4.761719 -12.816406 5.828125 -13.851562 7.324219 -13.851562 C 10.527344 -13.851562 9.703125 -10.007812 11.839844 -10.007812 C 12.632812 -10.007812 13.242188 -10.558594 13.242188 -11.320312 C 13.242188 -13.089844 10.953125 -14.949219 7.140625 -14.949219 C 3.632812 -14.949219 1.160156 -13.089844 1.160156 -10.617188 C 1.160156 -4.515625 10.039062 -7.230469 10.039062 -3.113281 C 10.039062 -1.554688 8.847656 -0.761719 7.230469 -0.761719 C 3.660156 -0.761719 4.667969 -4.636719 2.378906 -4.636719 C 1.496094 -4.636719 0.855469 -4.179688 0.855469 -3.234375 C 0.855469 -1.554688 3.234375 0.273438 7.230469 0.273438 Z M 7.230469 0.273438 "/></g></g></g></svg>