<svg xmlns="http://www.w3.org/2000/svg" xmlns:xlink="http://www.w3.org/1999/xlink" width="400" zoomAndPan="magnify" viewBox="0 0 300 52.499999" height="70" preserveAspectRatio="xMidYMid meet" version="1.0"><defs><g/><clipPath id="906b43cfec"><path d="M 6 0 L 292 0 L 292 52.003906 L 6 52.003906 Z M 6 0 " clip-rule="nonzero"/></clipPath><clipPath id="2f4b60f630"><rect x="0" width="286" y="0" height="53"/></clipPath></defs><g clip-path="url(#906b43cfec)"><g transform="matrix(1, 0, 0, 1, 6, 0)"><g clip-path="url(#2f4b60f630)"><g fill="#006d77" fill-opacity="1"><g transform="translate(0.61557, 39.146335)"><g><path d="M 21.375 -16.730469 C 24.4375 -17.519531 26.453125 -19.929688 26.453125 -23.210938 C 26.453125 -27.59375 22.863281 -31.097656 14.980469 -31.097656 L 2.847656 -31.097656 C 2.234375 -31.097656 1.796875 -30.789062 1.796875 -30.265625 L 1.796875 -30.089844 C 1.796875 -28.863281 3.546875 -28.335938 3.546875 -26.324219 L 3.546875 -4.773438 C 3.546875 -2.757812 1.796875 -2.234375 1.796875 -1.007812 L 1.796875 -0.832031 C 1.796875 -0.304688 2.234375 0 2.847656 0 L 14.847656 0 C 24.964844 0 29.519531 -3.589844 29.519531 -8.757812 C 29.519531 -12.964844 26.410156 -16.03125 21.375 -16.730469 Z M 11.429688 -25.753906 C 11.429688 -27.503906 12.351562 -28.03125 13.488281 -28.03125 L 14.714844 -28.03125 C 17.695312 -28.03125 19.664062 -25.839844 19.664062 -22.074219 C 19.664062 -19.578125 18.21875 -17.957031 15.984375 -17.957031 L 13.796875 -17.957031 C 12.394531 -17.957031 11.429688 -18.789062 11.429688 -20.234375 Z M 16.816406 -3.066406 L 14.714844 -3.066406 C 12.703125 -3.066406 11.429688 -4.6875 11.429688 -6.789062 L 11.429688 -14.890625 L 13.269531 -14.890625 C 18.527344 -14.890625 21.199219 -10.863281 21.199219 -7.621094 C 21.199219 -4.90625 19.621094 -3.066406 16.816406 -3.066406 Z M 16.816406 -3.066406 "/></g></g></g><g fill="#006d77" fill-opacity="1"><g transform="translate(28.896735, 39.146335)"><g><path d="M 21.898438 -4.773438 L 20.933594 -12.613281 C 20.234375 -18.042969 16.160156 -21.460938 10.292969 -21.460938 C 5.824219 -21.460938 1.53125 -19.929688 1.53125 -16.335938 C 1.53125 -14.628906 2.757812 -13.488281 4.597656 -13.488281 C 8.496094 -13.488281 7.269531 -19.359375 10.292969 -19.359375 C 12.570312 -19.359375 12.875 -17.125 13.402344 -11.957031 L 13.402344 -11.824219 C 12.308594 -12.480469 10.816406 -12.921875 8.976562 -12.921875 C 4.816406 -12.921875 1.09375 -10.644531 1.09375 -6.21875 C 1.09375 -1.707031 4.6875 0.4375 9.371094 0.4375 C 12.261719 0.4375 14.015625 -0.570312 14.933594 -1.839844 C 15.285156 -0.261719 16.554688 0.261719 19.183594 0.261719 C 21.59375 0.261719 24.132812 -0.0429688 24.132812 -1.183594 C 24.132812 -2.410156 22.292969 -1.664062 21.898438 -4.773438 Z M 11.78125 -1.796875 C 9.984375 -1.796875 8.933594 -4.511719 8.933594 -7.621094 C 8.933594 -9.417969 9.855469 -10.597656 11.167969 -10.597656 C 12.4375 -10.597656 13.578125 -9.589844 13.882812 -6.964844 L 14.058594 -4.949219 C 14.058594 -3.460938 13.226562 -1.796875 11.78125 -1.796875 Z M 11.78125 -1.796875 "/></g></g></g><g fill="#006d77" fill-opacity="1"><g transform="translate(50.87353, 39.146335)"><g><path d="M 10.644531 0.394531 C 16.730469 0.394531 20.191406 -2.410156 20.191406 -6.042969 C 20.191406 -14.101562 8.976562 -10.949219 8.976562 -16.949219 C 8.976562 -18.21875 9.679688 -19.445312 11.035156 -19.445312 C 14.058594 -19.445312 12.65625 -13.535156 16.90625 -13.535156 C 18.527344 -13.535156 19.839844 -14.671875 19.839844 -16.203125 C 19.839844 -19.050781 16.203125 -21.460938 10.644531 -21.460938 C 5.167969 -21.460938 1.402344 -18.703125 1.402344 -14.804688 C 1.402344 -6.308594 13.007812 -9.679688 13.007812 -3.941406 C 13.007812 -2.191406 11.957031 -1.53125 10.644531 -1.53125 C 7.007812 -1.53125 8.496094 -7.53125 4.117188 -7.53125 C 2.363281 -7.53125 1.007812 -6.699219 1.007812 -4.730469 C 1.007812 -1.664062 5.125 0.394531 10.644531 0.394531 Z M 10.644531 0.394531 "/></g></g></g><g fill="#006d77" fill-opacity="1"><g transform="translate(69.917031, 39.146335)"><g><path d="M 19.050781 -6.921875 C 18.261719 -5.867188 16.554688 -4.992188 14.671875 -4.992188 C 12.527344 -4.992188 10.816406 -6.042969 9.679688 -7.839844 L 18.394531 -12.746094 C 19.402344 -13.269531 20.101562 -14.148438 20.101562 -15.460938 C 20.101562 -18.21875 17.476562 -21.460938 11.738281 -21.460938 C 6 -21.460938 0.964844 -17.125 0.964844 -10.644531 C 0.964844 -3.984375 5.429688 0.4375 11.78125 0.4375 C 17.519531 0.4375 20.585938 -3.898438 20.671875 -6.308594 C 20.714844 -7.269531 19.664062 -7.53125 19.050781 -6.921875 Z M 10.949219 -19.316406 C 13.183594 -19.316406 13.882812 -16.203125 13.882812 -14.804688 C 13.882812 -13.882812 13.445312 -13.050781 12.746094 -12.570312 L 8.671875 -10.117188 C 8.234375 -11.429688 8.015625 -13.007812 8.015625 -14.714844 C 8.015625 -17.257812 9.152344 -19.316406 10.949219 -19.316406 Z M 10.949219 -19.316406 "/></g></g></g><g fill="#006d77" fill-opacity="1"><g transform="translate(89.17944, 39.146335)"><g/></g></g><g fill="#1f2933" fill-opacity="1"><g transform="translate(95.619121, 39.146335)"><g><path d="M 36.789062 -3.109375 L 36.308594 -11.519531 C 35.871094 -18.746094 32.496094 -21.460938 28.03125 -21.460938 C 24.878906 -21.460938 22.117188 -19.664062 21.023438 -16.644531 C 19.621094 -19.753906 16.773438 -21.460938 13.535156 -21.460938 C 10.730469 -21.460938 8.320312 -19.882812 7.050781 -17.519531 L 7.050781 -20.628906 C 7.050781 -21.285156 6.613281 -21.722656 5.78125 -21.285156 L 2.363281 -19.707031 C 1.925781 -19.535156 1.707031 -19.359375 1.707031 -19.050781 L 1.707031 -18.921875 C 1.707031 -18.132812 3.460938 -18.089844 3.460938 -16.335938 L 3.460938 -3.066406 C 3.460938 -1.53125 1.796875 -1.445312 1.796875 -0.65625 L 1.796875 -0.480469 C 1.796875 -0.132812 2.144531 0.0429688 2.671875 0.0429688 L 8.144531 0.0429688 C 8.671875 0.0429688 9.023438 -0.132812 9.023438 -0.480469 L 9.023438 -0.65625 C 9.023438 -1.445312 7.3125 -1.53125 7.3125 -3.066406 L 7.269531 -13.839844 C 7.402344 -17.125 9.589844 -19.753906 12.703125 -19.753906 C 15.722656 -19.753906 18.132812 -16.90625 18.132812 -12.042969 L 18.132812 -3.066406 C 18.132812 -1.53125 16.597656 -1.445312 16.597656 -0.65625 L 16.597656 -0.480469 C 16.597656 -0.132812 16.949219 0.0429688 17.519531 0.0429688 L 22.6875 0.0429688 C 23.210938 0.0429688 23.519531 -0.132812 23.519531 -0.480469 L 23.519531 -0.65625 C 23.519531 -1.445312 21.988281 -1.53125 21.988281 -3.066406 L 21.988281 -11.824219 C 21.988281 -12.570312 21.941406 -13.3125 21.8125 -13.972656 C 21.941406 -17.300781 24.265625 -19.753906 27.023438 -19.753906 C 30.21875 -19.753906 32.191406 -17.519531 32.496094 -11.605469 L 32.9375 -3.066406 C 32.980469 -1.53125 31.402344 -1.445312 31.402344 -0.65625 L 31.402344 -0.480469 C 31.402344 -0.132812 31.710938 0.0429688 32.277344 0.0429688 L 37.535156 0.0429688 C 38.015625 0.0429688 38.410156 -0.132812 38.410156 -0.480469 L 38.410156 -0.65625 C 38.410156 -1.445312 36.878906 -1.53125 36.789062 -3.109375 Z M 36.789062 -3.109375 "/></g></g></g><g fill="#1f2933" fill-opacity="1"><g transform="translate(132.875272, 39.146335)"><g><path d="M 12.875 0.4375 C 19.050781 0.4375 23.210938 -4.292969 23.210938 -10.335938 C 23.210938 -16.46875 18.65625 -21.460938 12.089844 -21.460938 C 6.085938 -21.460938 1.445312 -16.90625 1.445312 -10.816406 C 1.445312 -4.863281 5.914062 0.4375 12.875 0.4375 Z M 13.402344 -1.007812 C 8.585938 -1.007812 5.34375 -6.4375 5.34375 -12.042969 C 5.34375 -16.949219 7.925781 -20.015625 11.648438 -20.015625 C 16.117188 -20.015625 19.359375 -15.152344 19.359375 -9.023438 C 19.359375 -4.117188 16.816406 -1.007812 13.402344 -1.007812 Z M 13.402344 -1.007812 "/></g></g></g><g fill="#1f2933" fill-opacity="1"><g transform="translate(155.464985, 39.146335)"><g><path d="M 12.527344 -21.460938 C 9.8125 -21.460938 7.796875 -19.972656 6.832031 -17.167969 L 6.832031 -20.671875 C 6.832031 -21.328125 6.527344 -21.679688 5.695312 -21.285156 L 2.363281 -19.796875 C 1.972656 -19.578125 1.707031 -19.316406 1.707031 -19.007812 L 1.707031 -18.921875 C 1.707031 -18.089844 3.460938 -18.042969 3.460938 -16.378906 L 3.460938 -3.066406 C 3.460938 -1.53125 1.839844 -1.488281 1.839844 -0.699219 L 1.839844 -0.527344 C 1.839844 -0.175781 2.144531 0 2.714844 0 L 8.144531 0 C 8.714844 0 9.023438 -0.175781 9.023438 -0.527344 L 9.023438 -0.699219 C 9.023438 -1.488281 7.183594 -1.53125 7.183594 -3.066406 L 7.183594 -13.050781 C 7.183594 -16.335938 8.496094 -19.09375 10.90625 -19.09375 C 13.621094 -19.09375 12.527344 -16.03125 14.804688 -16.03125 C 16.03125 -16.03125 16.554688 -16.949219 16.554688 -18.089844 C 16.554688 -19.929688 15.152344 -21.460938 12.527344 -21.460938 Z M 12.527344 -21.460938 "/></g></g></g><g fill="#1f2933" fill-opacity="1"><g transform="translate(169.999098, 39.146335)"><g><path d="M 9.503906 0.4375 C 13.007812 0.4375 15.109375 -2.191406 15.109375 -4.90625 C 15.109375 -5.695312 14.058594 -5.738281 13.796875 -5.082031 C 13.621094 -3.589844 12.480469 -2.453125 10.554688 -2.453125 C 8.933594 -2.453125 7.796875 -3.722656 7.796875 -6.132812 L 7.796875 -19.269531 L 13.839844 -19.269531 C 14.191406 -19.269531 14.496094 -19.535156 14.496094 -19.929688 L 14.496094 -20.367188 C 14.496094 -20.714844 14.191406 -21.023438 13.839844 -21.023438 L 7.796875 -21.023438 L 7.753906 -25.183594 C 7.753906 -25.753906 7.578125 -26.058594 7.050781 -26.058594 L 6.613281 -26.058594 C 6.21875 -26.058594 5.914062 -25.753906 5.867188 -25.183594 C 5.648438 -22.6875 4.640625 -21.023438 2.539062 -21.023438 L 0.964844 -21.023438 C 0.527344 -21.023438 0.304688 -20.761719 0.304688 -20.367188 L 0.304688 -19.929688 C 0.304688 -19.535156 0.570312 -19.269531 0.964844 -19.269531 L 3.855469 -19.269531 L 3.855469 -6.175781 C 3.855469 -1.707031 6.132812 0.4375 9.503906 0.4375 Z M 9.503906 0.4375 "/></g></g></g><g fill="#1f2933" fill-opacity="1"><g transform="translate(183.438706, 39.146335)"><g><path d="M 20.320312 -21.023438 C 14.804688 -21.023438 14.320312 -21.460938 11.34375 -21.460938 C 5.519531 -21.460938 1.664062 -17.738281 1.664062 -12.613281 C 1.664062 -7.882812 5.78125 -4.117188 11.035156 -4.117188 C 11.605469 -4.117188 12.132812 -4.160156 12.703125 -4.203125 C 15.679688 -3.941406 17.5625 -2.015625 17.5625 0.789062 C 17.5625 3.722656 15.152344 5.695312 11.5625 5.695312 C 4.25 5.648438 5.648438 -1.226562 2.933594 -1.226562 C 1.796875 -1.226562 1.3125 -0.4375 1.3125 0.4375 C 1.3125 3.242188 4.554688 7.09375 11.300781 7.09375 C 17.210938 7.09375 21.460938 4.597656 21.460938 0.527344 C 21.460938 -2.058594 19.578125 -4.160156 15.765625 -4.992188 C 19.007812 -6.394531 21.023438 -9.242188 21.023438 -12.875 C 21.023438 -15.109375 19.839844 -17.519531 17.957031 -18.921875 C 19.269531 -19.269531 20.761719 -19.09375 21.546875 -19.929688 C 22.074219 -20.367188 21.8125 -21.023438 20.320312 -21.023438 Z M 11.738281 -5.5625 C 8.191406 -5.5625 5.476562 -9.503906 5.476562 -14.191406 C 5.476562 -17.519531 7.488281 -20.058594 10.644531 -20.058594 C 14.539062 -20.058594 17.210938 -16.074219 17.210938 -11.519531 C 17.210938 -8.144531 15.109375 -5.5625 11.738281 -5.5625 Z M 11.738281 -5.5625 "/></g></g></g><g fill="#1f2933" fill-opacity="1"><g transform="translate(204.539886, 39.146335)"><g><path d="M 19.621094 -3.503906 L 18.746094 -12.21875 C 18.175781 -18 14.933594 -21.460938 9.546875 -21.460938 C 4.773438 -21.460938 1.796875 -19.007812 1.796875 -16.6875 C 1.796875 -15.679688 2.453125 -15.066406 3.503906 -15.066406 C 5.695312 -15.066406 4.992188 -20.058594 9.546875 -20.058594 C 13.050781 -20.058594 14.453125 -17.257812 14.933594 -12.089844 L 15.023438 -10.90625 C 13.839844 -12 11.957031 -12.65625 9.636719 -12.65625 C 5.082031 -12.65625 1.578125 -10.378906 1.621094 -6.175781 C 1.621094 -1.972656 4.949219 0.4375 9.765625 0.4375 C 12.964844 0.4375 15.066406 -0.789062 16.074219 -2.628906 C 16.25 -0.21875 17.300781 0.261719 19.269531 0.261719 C 20.890625 0.261719 22.074219 0 22.074219 -0.65625 C 22.074219 -1.75 19.882812 -0.789062 19.621094 -3.503906 Z M 10.730469 -0.964844 C 7.578125 -0.964844 5.476562 -3.503906 5.476562 -6.699219 C 5.476562 -9.417969 7.53125 -11.257812 10.511719 -11.257812 C 13.09375 -11.257812 14.890625 -9.8125 15.328125 -7.753906 L 15.503906 -5.78125 C 15.59375 -3.109375 13.664062 -0.964844 10.730469 -0.964844 Z M 10.730469 -0.964844 "/></g></g></g><g fill="#1f2933" fill-opacity="1"><g transform="translate(224.546562, 39.146335)"><g><path d="M 20.320312 -21.023438 C 14.804688 -21.023438 14.320312 -21.460938 11.34375 -21.460938 C 5.519531 -21.460938 1.664062 -17.738281 1.664062 -12.613281 C 1.664062 -7.882812 5.78125 -4.117188 11.035156 -4.117188 C 11.605469 -4.117188 12.132812 -4.160156 12.703125 -4.203125 C 15.679688 -3.941406 17.5625 -2.015625 17.5625 0.789062 C 17.5625 3.722656 15.152344 5.695312 11.5625 5.695312 C 4.25 5.648438 5.648438 -1.226562 2.933594 -1.226562 C 1.796875 -1.226562 1.3125 -0.4375 1.3125 0.4375 C 1.3125 3.242188 4.554688 7.09375 11.300781 7.09375 C 17.210938 7.09375 21.460938 4.597656 21.460938 0.527344 C 21.460938 -2.058594 19.578125 -4.160156 15.765625 -4.992188 C 19.007812 -6.394531 21.023438 -9.242188 21.023438 -12.875 C 21.023438 -15.109375 19.839844 -17.519531 17.957031 -18.921875 C 19.269531 -19.269531 20.761719 -19.09375 21.546875 -19.929688 C 22.074219 -20.367188 21.8125 -21.023438 20.320312 -21.023438 Z M 11.738281 -5.5625 C 8.191406 -5.5625 5.476562 -9.503906 5.476562 -14.191406 C 5.476562 -17.519531 7.488281 -20.058594 10.644531 -20.058594 C 14.539062 -20.058594 17.210938 -16.074219 17.210938 -11.519531 C 17.210938 -8.144531 15.109375 -5.5625 11.738281 -5.5625 Z M 11.738281 -5.5625 "/></g></g></g><g fill="#1f2933" fill-opacity="1"><g transform="translate(245.647742, 39.146335)"><g><path d="M 19.269531 -6.175781 C 18.308594 -4.074219 16.25 -2.363281 13.007812 -2.363281 C 9.460938 -2.363281 6.789062 -4.640625 5.78125 -8.410156 L 17.914062 -12.394531 C 19.226562 -12.832031 19.972656 -13.578125 19.972656 -14.980469 C 19.972656 -18 17.082031 -21.460938 11.824219 -21.460938 C 6 -21.460938 1.488281 -16.863281 1.488281 -10.6875 C 1.488281 -3.855469 6 0.4375 11.648438 0.4375 C 17.125 0.4375 20.015625 -3.195312 20.542969 -5.824219 C 20.671875 -6.65625 19.664062 -6.789062 19.269531 -6.175781 Z M 11.167969 -20.058594 C 14.191406 -20.058594 16.292969 -16.863281 16.292969 -14.890625 C 16.292969 -14.148438 15.984375 -13.664062 15.242188 -13.359375 L 5.476562 -9.855469 C 5.34375 -10.554688 5.300781 -11.300781 5.300781 -12.089844 C 5.300781 -16.554688 7.621094 -20.058594 11.167969 -20.058594 Z M 11.167969 -20.058594 "/></g></g></g><g fill="#1f2933" fill-opacity="1"><g transform="translate(265.17283, 39.146335)"><g><path d="M 10.25 0.394531 C 15.679688 0.394531 19.09375 -2.234375 19.09375 -5.519531 C 19.09375 -14.277344 5.738281 -9.984375 5.738281 -16.292969 C 5.738281 -18.484375 7.707031 -20.101562 10.25 -20.101562 C 15.636719 -20.101562 14.539062 -14.757812 17.039062 -14.757812 C 17.914062 -14.757812 18.613281 -15.417969 18.613281 -16.292969 C 18.613281 -18.65625 15.503906 -21.460938 10.074219 -21.460938 C 5.253906 -21.460938 1.839844 -18.832031 1.839844 -15.460938 C 1.839844 -6.832031 15.242188 -11.167969 15.242188 -4.730469 C 15.242188 -2.234375 13.050781 -0.875 10.25 -0.875 C 4.378906 -0.875 5.78125 -6.21875 3.066406 -6.21875 C 2.058594 -6.21875 1.359375 -5.648438 1.359375 -4.597656 C 1.359375 -2.539062 4.421875 0.394531 10.25 0.394531 Z M 10.25 0.394531 "/></g></g></g></g></g></g></svg>