<svg xmlns="http://www.w3.org/2000/svg" xmlns:xlink="http://www.w3.org/1999/xlink" width="400" zoomAndPan="magnify" viewBox="0 0 300 74.999997" height="100" preserveAspectRatio="xMidYMid meet" version="1.0"><defs><g/><clipPath id="a1fc70cbc6"><path d="M 4.46875 57.050781 L 38.96875 57.050781 L 38.96875 66.050781 L 4.46875 66.050781 Z M 4.46875 57.050781 " clip-rule="nonzero"/></clipPath><clipPath id="68315f1f1b"><rect x="0" width="94" y="0" height="55"/></clipPath><clipPath id="e1823b877f"><path d="M 27.355469 57.050781 L 61.855469 57.050781 L 61.855469 66.050781 L 27.355469 66.050781 Z M 27.355469 57.050781 " clip-rule="nonzero"/></clipPath><clipPath id="7b03bb6c30"><rect x="0" width="195" y="0" height="55"/></clipPath></defs><rect x="-30" width="360" fill="#ffffff" y="-7.5" height="89.999996" fill-opacity="1"/><rect x="-30" width="360" fill="#ffffff" y="-7.5" height="89.999996" fill-opacity="1"/><g clip-path="url(#a1fc70cbc6)"><path fill="#1fa59a" d="M 34.460938 57.050781 L 9.0625 57.050781 C 6.546875 57.050781 4.511719 59.085938 4.511719 61.601562 C 4.511719 64.113281 6.546875 66.152344 9.0625 66.152344 L 34.460938 66.152344 C 36.976562 66.152344 39.011719 64.113281 39.011719 61.601562 C 39.011719 59.085938 36.972656 57.050781 34.460938 57.050781 Z M 34.460938 57.050781 " fill-opacity="1" fill-rule="nonzero"/></g><g transform="matrix(1, 0, 0, 1, 3, 6)"><g clip-path="url(#68315f1f1b)"><g fill="#0f2a44" fill-opacity="1"><g transform="translate(0.16256, 41.777331)"><g><path d="M 2.84375 0 L 2.84375 -29.296875 L 14.609375 -29.296875 C 17.648438 -29.296875 19.96875 -28.585938 21.5625 -27.171875 C 23.164062 -25.765625 23.96875 -23.960938 23.96875 -21.765625 C 23.96875 -19.921875 23.472656 -18.445312 22.484375 -17.34375 C 21.492188 -16.238281 20.289062 -15.492188 18.875 -15.109375 C 20.539062 -14.773438 21.914062 -13.941406 23 -12.609375 C 24.09375 -11.285156 24.640625 -9.742188 24.640625 -7.984375 C 24.640625 -5.671875 23.800781 -3.757812 22.125 -2.25 C 20.457031 -0.75 18.085938 0 15.015625 0 Z M 8.203125 -16.984375 L 13.8125 -16.984375 C 15.3125 -16.984375 16.46875 -17.332031 17.28125 -18.03125 C 18.09375 -18.726562 18.5 -19.71875 18.5 -21 C 18.5 -22.226562 18.097656 -23.195312 17.296875 -23.90625 C 16.503906 -24.625 15.3125 -24.984375 13.71875 -24.984375 L 8.203125 -24.984375 Z M 8.203125 -4.359375 L 14.1875 -4.359375 C 15.769531 -4.359375 17 -4.722656 17.875 -5.453125 C 18.757812 -6.191406 19.203125 -7.234375 19.203125 -8.578125 C 19.203125 -9.941406 18.738281 -11.015625 17.8125 -11.796875 C 16.894531 -12.578125 15.65625 -12.96875 14.09375 -12.96875 L 8.203125 -12.96875 Z M 8.203125 -4.359375 "/></g></g></g><g fill="#0f2a44" fill-opacity="1"><g transform="translate(25.353181, 41.777331)"><g><path d="M 9.875 0.5 C 8.09375 0.5 6.628906 0.210938 5.484375 -0.359375 C 4.335938 -0.929688 3.484375 -1.691406 2.921875 -2.640625 C 2.367188 -3.585938 2.09375 -4.632812 2.09375 -5.78125 C 2.09375 -7.695312 2.84375 -9.253906 4.34375 -10.453125 C 5.851562 -11.660156 8.113281 -12.265625 11.125 -12.265625 L 16.40625 -12.265625 L 16.40625 -12.765625 C 16.40625 -14.179688 16 -15.222656 15.1875 -15.890625 C 14.375 -16.566406 13.367188 -16.90625 12.171875 -16.90625 C 11.085938 -16.90625 10.140625 -16.644531 9.328125 -16.125 C 8.523438 -15.613281 8.023438 -14.851562 7.828125 -13.84375 L 2.59375 -13.84375 C 2.726562 -15.351562 3.234375 -16.664062 4.109375 -17.78125 C 4.992188 -18.894531 6.132812 -19.75 7.53125 -20.34375 C 8.925781 -20.945312 10.488281 -21.25 12.21875 -21.25 C 15.175781 -21.25 17.503906 -20.507812 19.203125 -19.03125 C 20.910156 -17.5625 21.765625 -15.472656 21.765625 -12.765625 L 21.765625 0 L 17.203125 0 L 16.703125 -3.34375 C 16.085938 -2.226562 15.226562 -1.304688 14.125 -0.578125 C 13.019531 0.140625 11.601562 0.5 9.875 0.5 Z M 11.09375 -3.6875 C 12.625 -3.6875 13.8125 -4.1875 14.65625 -5.1875 C 15.507812 -6.1875 16.050781 -7.425781 16.28125 -8.90625 L 11.71875 -8.90625 C 10.289062 -8.90625 9.269531 -8.644531 8.65625 -8.125 C 8.039062 -7.613281 7.734375 -6.984375 7.734375 -6.234375 C 7.734375 -5.421875 8.039062 -4.789062 8.65625 -4.34375 C 9.269531 -3.90625 10.082031 -3.6875 11.09375 -3.6875 Z M 11.09375 -3.6875 "/></g></g></g><g fill="#0f2a44" fill-opacity="1"><g transform="translate(48.284177, 41.777331)"><g><path d="M 11.296875 0.5 C 9.453125 0.5 7.832031 0.203125 6.4375 -0.390625 C 5.050781 -0.992188 3.9375 -1.828125 3.09375 -2.890625 C 2.257812 -3.953125 1.757812 -5.175781 1.59375 -6.5625 L 6.984375 -6.5625 C 7.148438 -5.757812 7.601562 -5.070312 8.34375 -4.5 C 9.082031 -3.925781 10.039062 -3.640625 11.21875 -3.640625 C 12.382812 -3.640625 13.238281 -3.875 13.78125 -4.34375 C 14.332031 -4.820312 14.609375 -5.367188 14.609375 -5.984375 C 14.609375 -6.878906 14.21875 -7.484375 13.4375 -7.796875 C 12.65625 -8.117188 11.566406 -8.4375 10.171875 -8.75 C 9.273438 -8.9375 8.363281 -9.171875 7.4375 -9.453125 C 6.519531 -9.734375 5.675781 -10.085938 4.90625 -10.515625 C 4.144531 -10.953125 3.523438 -11.507812 3.046875 -12.1875 C 2.578125 -12.875 2.34375 -13.722656 2.34375 -14.734375 C 2.34375 -16.566406 3.070312 -18.109375 4.53125 -19.359375 C 6 -20.617188 8.0625 -21.25 10.71875 -21.25 C 13.164062 -21.25 15.117188 -20.675781 16.578125 -19.53125 C 18.046875 -18.394531 18.921875 -16.820312 19.203125 -14.8125 L 14.140625 -14.8125 C 13.835938 -16.34375 12.679688 -17.109375 10.671875 -17.109375 C 9.660156 -17.109375 8.882812 -16.910156 8.34375 -16.515625 C 7.800781 -16.128906 7.53125 -15.644531 7.53125 -15.0625 C 7.53125 -14.445312 7.929688 -13.957031 8.734375 -13.59375 C 9.546875 -13.238281 10.625 -12.90625 11.96875 -12.59375 C 13.414062 -12.257812 14.742188 -11.890625 15.953125 -11.484375 C 17.171875 -11.078125 18.140625 -10.476562 18.859375 -9.6875 C 19.585938 -8.894531 19.953125 -7.757812 19.953125 -6.28125 C 19.984375 -5 19.648438 -3.835938 18.953125 -2.796875 C 18.253906 -1.765625 17.25 -0.957031 15.9375 -0.375 C 14.625 0.207031 13.078125 0.5 11.296875 0.5 Z M 11.296875 0.5 "/></g></g></g><g fill="#0f2a44" fill-opacity="1"><g transform="translate(69.039227, 41.777331)"><g><path d="M 12.796875 0.5 C 10.710938 0.5 8.859375 0.0546875 7.234375 -0.828125 C 5.617188 -1.722656 4.347656 -2.976562 3.421875 -4.59375 C 2.503906 -6.21875 2.046875 -8.085938 2.046875 -10.203125 C 2.046875 -12.359375 2.5 -14.269531 3.40625 -15.9375 C 4.3125 -17.613281 5.566406 -18.914062 7.171875 -19.84375 C 8.773438 -20.78125 10.664062 -21.25 12.84375 -21.25 C 14.882812 -21.25 16.6875 -20.800781 18.25 -19.90625 C 19.8125 -19.019531 21.03125 -17.800781 21.90625 -16.25 C 22.78125 -14.707031 23.21875 -12.988281 23.21875 -11.09375 C 23.21875 -10.78125 23.210938 -10.457031 23.203125 -10.125 C 23.191406 -9.789062 23.171875 -9.441406 23.140625 -9.078125 L 7.359375 -9.078125 C 7.472656 -7.460938 8.039062 -6.191406 9.0625 -5.265625 C 10.082031 -4.347656 11.316406 -3.890625 12.765625 -3.890625 C 13.847656 -3.890625 14.757812 -4.132812 15.5 -4.625 C 16.238281 -5.113281 16.789062 -5.75 17.15625 -6.53125 L 22.59375 -6.53125 C 22.207031 -5.21875 21.5625 -4.023438 20.65625 -2.953125 C 19.75 -1.878906 18.628906 -1.035156 17.296875 -0.421875 C 15.972656 0.191406 14.472656 0.5 12.796875 0.5 Z M 12.84375 -16.90625 C 11.53125 -16.90625 10.367188 -16.535156 9.359375 -15.796875 C 8.359375 -15.054688 7.722656 -13.929688 7.453125 -12.421875 L 17.78125 -12.421875 C 17.695312 -13.796875 17.191406 -14.882812 16.265625 -15.6875 C 15.347656 -16.5 14.207031 -16.90625 12.84375 -16.90625 Z M 12.84375 -16.90625 "/></g></g></g></g></g><g clip-path="url(#e1823b877f)"><path fill="#1fa59a" d="M 57.34375 57.050781 L 31.945312 57.050781 C 29.433594 57.050781 27.394531 59.085938 27.394531 61.601562 C 27.394531 64.113281 29.433594 66.152344 31.945312 66.152344 L 57.347656 66.152344 C 59.859375 66.152344 61.898438 64.113281 61.898438 61.601562 C 61.898438 59.085938 59.859375 57.050781 57.34375 57.050781 Z M 57.34375 57.050781 " fill-opacity="1" fill-rule="nonzero"/></g><g transform="matrix(1, 0, 0, 1, 100, 6)"><g clip-path="url(#7b03bb6c30)"><g fill="#0f2a44" fill-opacity="1"><g transform="translate(0.142224, 41.777331)"><g><path d="M 3.09375 0 L 3.09375 -29.296875 L 7.203125 -29.296875 L 17.734375 -8.875 L 28.203125 -29.296875 L 32.34375 -29.296875 L 32.34375 0 L 28.828125 0 L 28.828125 -23.015625 L 19.03125 -4.1875 L 16.40625 -4.1875 L 6.609375 -22.96875 L 6.609375 0 Z M 3.09375 0 "/></g></g></g><g fill="#0f2a44" fill-opacity="1"><g transform="translate(34.371373, 41.777331)"><g><path d="M 12.34375 0.5 C 10.394531 0.5 8.640625 0.0546875 7.078125 -0.828125 C 5.515625 -1.722656 4.28125 -2.988281 3.375 -4.625 C 2.46875 -6.257812 2.015625 -8.175781 2.015625 -10.375 C 2.015625 -12.582031 2.472656 -14.5 3.390625 -16.125 C 4.304688 -17.757812 5.550781 -19.019531 7.125 -19.90625 C 8.707031 -20.800781 10.472656 -21.25 12.421875 -21.25 C 14.378906 -21.25 16.140625 -20.800781 17.703125 -19.90625 C 19.265625 -19.019531 20.5 -17.757812 21.40625 -16.125 C 22.3125 -14.5 22.765625 -12.582031 22.765625 -10.375 C 22.765625 -8.175781 22.300781 -6.257812 21.375 -4.625 C 20.457031 -2.988281 19.207031 -1.722656 17.625 -0.828125 C 16.050781 0.0546875 14.289062 0.5 12.34375 0.5 Z M 12.34375 -2.515625 C 13.539062 -2.515625 14.65625 -2.804688 15.6875 -3.390625 C 16.71875 -3.972656 17.554688 -4.847656 18.203125 -6.015625 C 18.847656 -7.191406 19.171875 -8.644531 19.171875 -10.375 C 19.171875 -12.101562 18.851562 -13.550781 18.21875 -14.71875 C 17.59375 -15.894531 16.765625 -16.773438 15.734375 -17.359375 C 14.703125 -17.953125 13.597656 -18.25 12.421875 -18.25 C 11.222656 -18.25 10.109375 -17.953125 9.078125 -17.359375 C 8.046875 -16.773438 7.207031 -15.894531 6.5625 -14.71875 C 5.925781 -13.550781 5.609375 -12.101562 5.609375 -10.375 C 5.609375 -8.644531 5.925781 -7.191406 6.5625 -6.015625 C 7.207031 -4.847656 8.039062 -3.972656 9.0625 -3.390625 C 10.082031 -2.804688 11.175781 -2.515625 12.34375 -2.515625 Z M 12.34375 -2.515625 "/></g></g></g><g fill="#0f2a44" fill-opacity="1"><g transform="translate(57.930042, 41.777331)"><g><path d="M 2.890625 0 L 2.890625 -20.75 L 6.0625 -20.75 L 6.359375 -16.78125 C 7.003906 -18.144531 7.976562 -19.226562 9.28125 -20.03125 C 10.59375 -20.84375 12.210938 -21.25 14.140625 -21.25 L 14.140625 -17.578125 L 13.1875 -17.578125 C 11.957031 -17.578125 10.828125 -17.359375 9.796875 -16.921875 C 8.765625 -16.492188 7.941406 -15.765625 7.328125 -14.734375 C 6.710938 -13.703125 6.40625 -12.273438 6.40625 -10.453125 L 6.40625 0 Z M 2.890625 0 "/></g></g></g><g fill="#0f2a44" fill-opacity="1"><g transform="translate(71.906198, 41.777331)"><g><path d="M 11.09375 0 C 9.195312 0 7.703125 -0.457031 6.609375 -1.375 C 5.523438 -2.300781 4.984375 -3.960938 4.984375 -6.359375 L 4.984375 -17.78125 L 1.375 -17.78125 L 1.375 -20.75 L 4.984375 -20.75 L 5.4375 -25.734375 L 8.5 -25.734375 L 8.5 -20.75 L 14.609375 -20.75 L 14.609375 -17.78125 L 8.5 -17.78125 L 8.5 -6.359375 C 8.5 -5.046875 8.757812 -4.160156 9.28125 -3.703125 C 9.8125 -3.242188 10.75 -3.015625 12.09375 -3.015625 L 14.265625 -3.015625 L 14.265625 0 Z M 11.09375 0 "/></g></g></g><g fill="#0f2a44" fill-opacity="1"><g transform="translate(86.886636, 41.777331)"><g><path d="M 11.09375 -6.53125 C 9.914062 -6.53125 8.835938 -6.679688 7.859375 -6.984375 L 5.78125 -5.015625 C 6.082031 -4.796875 6.460938 -4.609375 6.921875 -4.453125 C 7.378906 -4.296875 8.039062 -4.15625 8.90625 -4.03125 C 9.769531 -3.90625 10.984375 -3.773438 12.546875 -3.640625 C 15.335938 -3.441406 17.332031 -2.796875 18.53125 -1.703125 C 19.738281 -0.617188 20.34375 0.796875 20.34375 2.546875 C 20.34375 3.753906 20.015625 4.898438 19.359375 5.984375 C 18.703125 7.066406 17.695312 7.957031 16.34375 8.65625 C 14.988281 9.351562 13.25 9.703125 11.125 9.703125 C 9.257812 9.703125 7.597656 9.457031 6.140625 8.96875 C 4.691406 8.488281 3.5625 7.75 2.75 6.75 C 1.945312 5.757812 1.546875 4.515625 1.546875 3.015625 C 1.546875 2.234375 1.753906 1.390625 2.171875 0.484375 C 2.585938 -0.421875 3.367188 -1.28125 4.515625 -2.09375 C 3.898438 -2.34375 3.375 -2.613281 2.9375 -2.90625 C 2.507812 -3.195312 2.113281 -3.523438 1.75 -3.890625 L 1.75 -4.859375 L 5.3125 -8.375 C 3.664062 -9.757812 2.84375 -11.597656 2.84375 -13.890625 C 2.84375 -15.253906 3.160156 -16.492188 3.796875 -17.609375 C 4.441406 -18.734375 5.378906 -19.617188 6.609375 -20.265625 C 7.835938 -20.921875 9.332031 -21.25 11.09375 -21.25 C 12.289062 -21.25 13.378906 -21.082031 14.359375 -20.75 L 22.015625 -20.75 L 22.015625 -18.125 L 18.125 -17.953125 C 18.925781 -16.773438 19.328125 -15.421875 19.328125 -13.890625 C 19.328125 -12.523438 19 -11.285156 18.34375 -10.171875 C 17.6875 -9.054688 16.75 -8.171875 15.53125 -7.515625 C 14.320312 -6.859375 12.84375 -6.53125 11.09375 -6.53125 Z M 11.09375 -9.421875 C 12.570312 -9.421875 13.75 -9.800781 14.625 -10.5625 C 15.5 -11.332031 15.9375 -12.441406 15.9375 -13.890625 C 15.9375 -15.316406 15.5 -16.410156 14.625 -17.171875 C 13.75 -17.941406 12.570312 -18.328125 11.09375 -18.328125 C 9.582031 -18.328125 8.382812 -17.941406 7.5 -17.171875 C 6.625 -16.410156 6.1875 -15.316406 6.1875 -13.890625 C 6.1875 -12.441406 6.625 -11.332031 7.5 -10.5625 C 8.382812 -9.800781 9.582031 -9.421875 11.09375 -9.421875 Z M 4.984375 2.671875 C 4.984375 4.066406 5.566406 5.109375 6.734375 5.796875 C 7.910156 6.484375 9.375 6.828125 11.125 6.828125 C 12.851562 6.828125 14.238281 6.445312 15.28125 5.6875 C 16.332031 4.9375 16.859375 3.929688 16.859375 2.671875 C 16.859375 1.785156 16.492188 1.015625 15.765625 0.359375 C 15.046875 -0.296875 13.710938 -0.679688 11.765625 -0.796875 C 10.222656 -0.910156 8.894531 -1.050781 7.78125 -1.21875 C 6.632812 -0.601562 5.878906 0.0546875 5.515625 0.765625 C 5.160156 1.484375 4.984375 2.117188 4.984375 2.671875 Z M 4.984375 2.671875 "/></g></g></g><g fill="#0f2a44" fill-opacity="1"><g transform="translate(108.771503, 41.777331)"><g><path d="M 9.796875 0.5 C 8.066406 0.5 6.628906 0.207031 5.484375 -0.375 C 4.335938 -0.957031 3.484375 -1.738281 2.921875 -2.71875 C 2.367188 -3.695312 2.09375 -4.757812 2.09375 -5.90625 C 2.09375 -8.019531 2.898438 -9.648438 4.515625 -10.796875 C 6.140625 -11.941406 8.34375 -12.515625 11.125 -12.515625 L 16.734375 -12.515625 L 16.734375 -12.765625 C 16.734375 -14.578125 16.257812 -15.945312 15.3125 -16.875 C 14.363281 -17.8125 13.09375 -18.28125 11.5 -18.28125 C 10.132812 -18.28125 8.957031 -17.9375 7.96875 -17.25 C 6.976562 -16.570312 6.359375 -15.578125 6.109375 -14.265625 L 2.515625 -14.265625 C 2.648438 -15.773438 3.15625 -17.046875 4.03125 -18.078125 C 4.914062 -19.109375 6.015625 -19.894531 7.328125 -20.4375 C 8.640625 -20.976562 10.03125 -21.25 11.5 -21.25 C 14.40625 -21.25 16.585938 -20.472656 18.046875 -18.921875 C 19.515625 -17.378906 20.25 -15.328125 20.25 -12.765625 L 20.25 0 L 17.109375 0 L 16.90625 -3.71875 C 16.320312 -2.550781 15.460938 -1.554688 14.328125 -0.734375 C 13.203125 0.0859375 11.691406 0.5 9.796875 0.5 Z M 10.328125 -2.46875 C 11.671875 -2.46875 12.820312 -2.816406 13.78125 -3.515625 C 14.75 -4.210938 15.484375 -5.117188 15.984375 -6.234375 C 16.484375 -7.347656 16.734375 -8.519531 16.734375 -9.75 L 16.734375 -9.796875 L 11.421875 -9.796875 C 9.359375 -9.796875 7.898438 -9.4375 7.046875 -8.71875 C 6.203125 -8.007812 5.78125 -7.125 5.78125 -6.0625 C 5.78125 -4.976562 6.175781 -4.109375 6.96875 -3.453125 C 7.757812 -2.796875 8.878906 -2.46875 10.328125 -2.46875 Z M 10.328125 -2.46875 "/></g></g></g><g fill="#0f2a44" fill-opacity="1"><g transform="translate(130.196073, 41.777331)"><g><path d="M 11.09375 -6.53125 C 9.914062 -6.53125 8.835938 -6.679688 7.859375 -6.984375 L 5.78125 -5.015625 C 6.082031 -4.796875 6.460938 -4.609375 6.921875 -4.453125 C 7.378906 -4.296875 8.039062 -4.15625 8.90625 -4.03125 C 9.769531 -3.90625 10.984375 -3.773438 12.546875 -3.640625 C 15.335938 -3.441406 17.332031 -2.796875 18.53125 -1.703125 C 19.738281 -0.617188 20.34375 0.796875 20.34375 2.546875 C 20.34375 3.753906 20.015625 4.898438 19.359375 5.984375 C 18.703125 7.066406 17.695312 7.957031 16.34375 8.65625 C 14.988281 9.351562 13.25 9.703125 11.125 9.703125 C 9.257812 9.703125 7.597656 9.457031 6.140625 8.96875 C 4.691406 8.488281 3.5625 7.75 2.75 6.75 C 1.945312 5.757812 1.546875 4.515625 1.546875 3.015625 C 1.546875 2.234375 1.753906 1.390625 2.171875 0.484375 C 2.585938 -0.421875 3.367188 -1.28125 4.515625 -2.09375 C 3.898438 -2.34375 3.375 -2.613281 2.9375 -2.90625 C 2.507812 -3.195312 2.113281 -3.523438 1.75 -3.890625 L 1.75 -4.859375 L 5.3125 -8.375 C 3.664062 -9.757812 2.84375 -11.597656 2.84375 -13.890625 C 2.84375 -15.253906 3.160156 -16.492188 3.796875 -17.609375 C 4.441406 -18.734375 5.378906 -19.617188 6.609375 -20.265625 C 7.835938 -20.921875 9.332031 -21.25 11.09375 -21.25 C 12.289062 -21.25 13.378906 -21.082031 14.359375 -20.75 L 22.015625 -20.75 L 22.015625 -18.125 L 18.125 -17.953125 C 18.925781 -16.773438 19.328125 -15.421875 19.328125 -13.890625 C 19.328125 -12.523438 19 -11.285156 18.34375 -10.171875 C 17.6875 -9.054688 16.75 -8.171875 15.53125 -7.515625 C 14.320312 -6.859375 12.84375 -6.53125 11.09375 -6.53125 Z M 11.09375 -9.421875 C 12.570312 -9.421875 13.75 -9.800781 14.625 -10.5625 C 15.5 -11.332031 15.9375 -12.441406 15.9375 -13.890625 C 15.9375 -15.316406 15.5 -16.410156 14.625 -17.171875 C 13.75 -17.941406 12.570312 -18.328125 11.09375 -18.328125 C 9.582031 -18.328125 8.382812 -17.941406 7.5 -17.171875 C 6.625 -16.410156 6.1875 -15.316406 6.1875 -13.890625 C 6.1875 -12.441406 6.625 -11.332031 7.5 -10.5625 C 8.382812 -9.800781 9.582031 -9.421875 11.09375 -9.421875 Z M 4.984375 2.671875 C 4.984375 4.066406 5.566406 5.109375 6.734375 5.796875 C 7.910156 6.484375 9.375 6.828125 11.125 6.828125 C 12.851562 6.828125 14.238281 6.445312 15.28125 5.6875 C 16.332031 4.9375 16.859375 3.929688 16.859375 2.671875 C 16.859375 1.785156 16.492188 1.015625 15.765625 0.359375 C 15.046875 -0.296875 13.710938 -0.679688 11.765625 -0.796875 C 10.222656 -0.910156 8.894531 -1.050781 7.78125 -1.21875 C 6.632812 -0.601562 5.878906 0.0546875 5.515625 0.765625 C 5.160156 1.484375 4.984375 2.117188 4.984375 2.671875 Z M 4.984375 2.671875 "/></g></g></g><g fill="#0f2a44" fill-opacity="1"><g transform="translate(152.080949, 41.777331)"><g><path d="M 12.21875 0.5 C 10.238281 0.5 8.476562 0.046875 6.9375 -0.859375 C 5.40625 -1.765625 4.203125 -3.023438 3.328125 -4.640625 C 2.453125 -6.265625 2.015625 -8.175781 2.015625 -10.375 C 2.015625 -12.550781 2.445312 -14.453125 3.3125 -16.078125 C 4.175781 -17.710938 5.378906 -18.984375 6.921875 -19.890625 C 8.472656 -20.796875 10.265625 -21.25 12.296875 -21.25 C 14.304688 -21.25 16.039062 -20.796875 17.5 -19.890625 C 18.96875 -18.984375 20.09375 -17.789062 20.875 -16.3125 C 21.65625 -14.832031 22.046875 -13.242188 22.046875 -11.546875 C 22.046875 -11.242188 22.039062 -10.9375 22.03125 -10.625 C 22.019531 -10.320312 22.015625 -9.972656 22.015625 -9.578125 L 5.484375 -9.578125 C 5.566406 -7.992188 5.9375 -6.675781 6.59375 -5.625 C 7.25 -4.582031 8.070312 -3.796875 9.0625 -3.265625 C 10.050781 -2.734375 11.101562 -2.46875 12.21875 -2.46875 C 13.664062 -2.46875 14.878906 -2.800781 15.859375 -3.46875 C 16.835938 -4.144531 17.550781 -5.050781 18 -6.1875 L 21.46875 -6.1875 C 20.90625 -4.269531 19.835938 -2.675781 18.265625 -1.40625 C 16.691406 -0.132812 14.675781 0.5 12.21875 0.5 Z M 12.21875 -18.28125 C 10.539062 -18.28125 9.050781 -17.769531 7.75 -16.75 C 6.457031 -15.738281 5.710938 -14.253906 5.515625 -12.296875 L 18.578125 -12.296875 C 18.492188 -14.171875 17.851562 -15.632812 16.65625 -16.6875 C 15.457031 -17.75 13.976562 -18.28125 12.21875 -18.28125 Z M 12.21875 -18.28125 "/></g></g></g><g fill="#0f2a44" fill-opacity="1"><g transform="translate(174.677185, 41.777331)"><g><path d="M 10.84375 0.5 C 8.351562 0.5 6.285156 -0.125 4.640625 -1.375 C 2.992188 -2.632812 2.03125 -4.335938 1.75 -6.484375 L 5.359375 -6.484375 C 5.578125 -5.398438 6.15625 -4.457031 7.09375 -3.65625 C 8.03125 -2.863281 9.289062 -2.46875 10.875 -2.46875 C 12.351562 -2.46875 13.441406 -2.78125 14.140625 -3.40625 C 14.835938 -4.039062 15.1875 -4.789062 15.1875 -5.65625 C 15.1875 -6.90625 14.734375 -7.738281 13.828125 -8.15625 C 12.921875 -8.570312 11.644531 -8.953125 10 -9.296875 C 8.882812 -9.515625 7.769531 -9.832031 6.65625 -10.25 C 5.539062 -10.664062 4.601562 -11.257812 3.84375 -12.03125 C 3.09375 -12.800781 2.71875 -13.8125 2.71875 -15.0625 C 2.71875 -16.875 3.394531 -18.359375 4.75 -19.515625 C 6.101562 -20.671875 7.9375 -21.25 10.25 -21.25 C 12.457031 -21.25 14.265625 -20.695312 15.671875 -19.59375 C 17.078125 -18.5 17.894531 -16.929688 18.125 -14.890625 L 14.640625 -14.890625 C 14.503906 -15.953125 14.050781 -16.78125 13.28125 -17.375 C 12.519531 -17.976562 11.492188 -18.28125 10.203125 -18.28125 C 8.953125 -18.28125 7.984375 -18.015625 7.296875 -17.484375 C 6.617188 -16.960938 6.28125 -16.269531 6.28125 -15.40625 C 6.28125 -14.5625 6.71875 -13.898438 7.59375 -13.421875 C 8.46875 -12.953125 9.660156 -12.550781 11.171875 -12.21875 C 12.453125 -11.9375 13.671875 -11.59375 14.828125 -11.1875 C 15.984375 -10.789062 16.929688 -10.191406 17.671875 -9.390625 C 18.410156 -8.597656 18.78125 -7.445312 18.78125 -5.9375 C 18.8125 -4.070312 18.109375 -2.53125 16.671875 -1.3125 C 15.234375 -0.101562 13.289062 0.5 10.84375 0.5 Z M 10.84375 0.5 "/></g></g></g></g></g></svg>