<svg xmlns="http://www.w3.org/2000/svg" xmlns:xlink="http://www.w3.org/1999/xlink" width="300" zoomAndPan="magnify" viewBox="0 0 224.87999 52.499999" height="70" preserveAspectRatio="xMidYMid meet" version="1.0"><defs><g/><clipPath id="3331e82e84"><rect x="0" width="183" y="0" height="40"/></clipPath></defs><g transform="matrix(1, 0, 0, 1, 21, 6)"><g clip-path="url(#3331e82e84)"><g fill="#006d77" fill-opacity="1"><g transform="translate(0.454184, 28.326914)"><g><path d="M 13.632812 -10.671875 C 15.589844 -11.175781 16.875 -12.710938 16.875 -14.808594 C 16.875 -17.601562 14.582031 -19.835938 9.554688 -19.835938 L 1.816406 -19.835938 C 1.425781 -19.835938 1.144531 -19.640625 1.144531 -19.304688 L 1.144531 -19.191406 C 1.144531 -18.410156 2.261719 -18.074219 2.261719 -16.789062 L 2.261719 -3.046875 C 2.261719 -1.761719 1.144531 -1.425781 1.144531 -0.640625 L 1.144531 -0.53125 C 1.144531 -0.195312 1.425781 0 1.816406 0 L 9.472656 0 C 15.925781 0 18.828125 -2.289062 18.828125 -5.585938 C 18.828125 -8.269531 16.847656 -10.226562 13.632812 -10.671875 Z M 7.292969 -16.425781 C 7.292969 -17.542969 7.878906 -17.878906 8.605469 -17.878906 L 9.386719 -17.878906 C 11.285156 -17.878906 12.542969 -16.484375 12.542969 -14.082031 C 12.542969 -12.488281 11.621094 -11.453125 10.195312 -11.453125 L 8.800781 -11.453125 C 7.90625 -11.453125 7.292969 -11.984375 7.292969 -12.90625 Z M 10.726562 -1.957031 L 9.386719 -1.957031 C 8.101562 -1.957031 7.292969 -2.988281 7.292969 -4.332031 L 7.292969 -9.5 L 8.464844 -9.5 C 11.816406 -9.5 13.523438 -6.929688 13.523438 -4.859375 C 13.523438 -3.128906 12.515625 -1.957031 10.726562 -1.957031 Z M 10.726562 -1.957031 "/></g></g></g><g fill="#006d77" fill-opacity="1"><g transform="translate(18.493966, 28.326914)"><g><path d="M 13.96875 -3.046875 L 13.355469 -8.046875 C 12.90625 -11.511719 10.308594 -13.6875 6.566406 -13.6875 C 3.714844 -13.6875 0.976562 -12.710938 0.976562 -10.421875 C 0.976562 -9.332031 1.761719 -8.605469 2.933594 -8.605469 C 5.417969 -8.605469 4.636719 -12.347656 6.566406 -12.347656 C 8.019531 -12.347656 8.214844 -10.921875 8.546875 -7.625 L 8.546875 -7.542969 C 7.851562 -7.960938 6.902344 -8.242188 5.726562 -8.242188 C 3.074219 -8.242188 0.699219 -6.789062 0.699219 -3.96875 C 0.699219 -1.089844 2.988281 0.28125 5.980469 0.28125 C 7.824219 0.28125 8.941406 -0.363281 9.527344 -1.171875 C 9.75 -0.167969 10.558594 0.167969 12.238281 0.167969 C 13.773438 0.167969 15.394531 -0.0273438 15.394531 -0.753906 C 15.394531 -1.535156 14.21875 -1.0625 13.96875 -3.046875 Z M 7.515625 -1.144531 C 6.371094 -1.144531 5.699219 -2.878906 5.699219 -4.859375 C 5.699219 -6.007812 6.285156 -6.761719 7.125 -6.761719 C 7.933594 -6.761719 8.660156 -6.117188 8.855469 -4.441406 L 8.96875 -3.15625 C 8.96875 -2.207031 8.4375 -1.144531 7.515625 -1.144531 Z M 7.515625 -1.144531 "/></g></g></g><g fill="#006d77" fill-opacity="1"><g transform="translate(32.512363, 28.326914)"><g><path d="M 6.789062 0.25 C 10.671875 0.25 12.878906 -1.535156 12.878906 -3.855469 C 12.878906 -8.996094 5.726562 -6.984375 5.726562 -10.8125 C 5.726562 -11.621094 6.175781 -12.402344 7.039062 -12.402344 C 8.96875 -12.402344 8.074219 -8.632812 10.785156 -8.632812 C 11.816406 -8.632812 12.65625 -9.359375 12.65625 -10.335938 C 12.65625 -12.152344 10.335938 -13.6875 6.789062 -13.6875 C 3.296875 -13.6875 0.894531 -11.929688 0.894531 -9.441406 C 0.894531 -4.023438 8.296875 -6.175781 8.296875 -2.515625 C 8.296875 -1.398438 7.625 -0.976562 6.789062 -0.976562 C 4.46875 -0.976562 5.417969 -4.804688 2.625 -4.804688 C 1.507812 -4.804688 0.640625 -4.273438 0.640625 -3.015625 C 0.640625 -1.0625 3.269531 0.25 6.789062 0.25 Z M 6.789062 0.25 "/></g></g></g><g fill="#006d77" fill-opacity="1"><g transform="translate(44.659691, 28.326914)"><g><path d="M 12.152344 -4.414062 C 11.648438 -3.742188 10.558594 -3.183594 9.359375 -3.183594 C 7.988281 -3.183594 6.902344 -3.855469 6.175781 -5 L 11.734375 -8.128906 C 12.375 -8.464844 12.824219 -9.023438 12.824219 -9.863281 C 12.824219 -11.621094 11.148438 -13.6875 7.488281 -13.6875 C 3.828125 -13.6875 0.613281 -10.921875 0.613281 -6.789062 C 0.613281 -2.542969 3.464844 0.28125 7.515625 0.28125 C 11.175781 0.28125 13.128906 -2.488281 13.1875 -4.023438 C 13.214844 -4.636719 12.542969 -4.804688 12.152344 -4.414062 Z M 6.984375 -12.320312 C 8.410156 -12.320312 8.855469 -10.335938 8.855469 -9.441406 C 8.855469 -8.855469 8.578125 -8.324219 8.128906 -8.019531 L 5.53125 -6.453125 C 5.253906 -7.292969 5.113281 -8.296875 5.113281 -9.386719 C 5.113281 -11.007812 5.839844 -12.320312 6.984375 -12.320312 Z M 6.984375 -12.320312 "/></g></g></g><g fill="#006d77" fill-opacity="1"><g transform="translate(56.946655, 28.326914)"><g/></g></g><g fill="#1f2933" fill-opacity="1"><g transform="translate(61.054352, 28.326914)"><g><path d="M 23.46875 -1.984375 L 23.160156 -7.347656 C 22.878906 -11.957031 20.730469 -13.6875 17.878906 -13.6875 C 15.867188 -13.6875 14.109375 -12.542969 13.410156 -10.617188 C 12.515625 -12.601562 10.699219 -13.6875 8.632812 -13.6875 C 6.84375 -13.6875 5.308594 -12.683594 4.496094 -11.175781 L 4.496094 -13.160156 C 4.496094 -13.578125 4.21875 -13.855469 3.6875 -13.578125 L 1.507812 -12.570312 C 1.230469 -12.460938 1.089844 -12.347656 1.089844 -12.152344 L 1.089844 -12.070312 C 1.089844 -11.566406 2.207031 -11.539062 2.207031 -10.421875 L 2.207031 -1.957031 C 2.207031 -0.976562 1.144531 -0.921875 1.144531 -0.417969 L 1.144531 -0.308594 C 1.144531 -0.0820312 1.367188 0.0273438 1.703125 0.0273438 L 5.195312 0.0273438 C 5.53125 0.0273438 5.753906 -0.0820312 5.753906 -0.308594 L 5.753906 -0.417969 C 5.753906 -0.921875 4.664062 -0.976562 4.664062 -1.957031 L 4.636719 -8.828125 C 4.722656 -10.921875 6.117188 -12.601562 8.101562 -12.601562 C 10.03125 -12.601562 11.566406 -10.785156 11.566406 -7.683594 L 11.566406 -1.957031 C 11.566406 -0.976562 10.589844 -0.921875 10.589844 -0.417969 L 10.589844 -0.308594 C 10.589844 -0.0820312 10.8125 0.0273438 11.175781 0.0273438 L 14.472656 0.0273438 C 14.808594 0.0273438 15.003906 -0.0820312 15.003906 -0.308594 L 15.003906 -0.417969 C 15.003906 -0.921875 14.023438 -0.976562 14.023438 -1.957031 L 14.023438 -7.542969 C 14.023438 -8.019531 13.996094 -8.492188 13.914062 -8.910156 C 13.996094 -11.035156 15.476562 -12.601562 17.238281 -12.601562 C 19.277344 -12.601562 20.535156 -11.175781 20.730469 -7.402344 L 21.007812 -1.957031 C 21.035156 -0.976562 20.03125 -0.921875 20.03125 -0.417969 L 20.03125 -0.308594 C 20.03125 -0.0820312 20.226562 0.0273438 20.589844 0.0273438 L 23.941406 0.0273438 C 24.25 0.0273438 24.5 -0.0820312 24.5 -0.308594 L 24.5 -0.417969 C 24.5 -0.921875 23.523438 -0.976562 23.46875 -1.984375 Z M 23.46875 -1.984375 "/></g></g></g><g fill="#1f2933" fill-opacity="1"><g transform="translate(84.819032, 28.326914)"><g><path d="M 8.214844 0.28125 C 12.152344 0.28125 14.808594 -2.738281 14.808594 -6.59375 C 14.808594 -10.503906 11.902344 -13.6875 7.710938 -13.6875 C 3.882812 -13.6875 0.921875 -10.785156 0.921875 -6.902344 C 0.921875 -3.101562 3.773438 0.28125 8.214844 0.28125 Z M 8.546875 -0.640625 C 5.476562 -0.640625 3.410156 -4.105469 3.410156 -7.683594 C 3.410156 -10.8125 5.054688 -12.765625 7.429688 -12.765625 C 10.28125 -12.765625 12.347656 -9.667969 12.347656 -5.753906 C 12.347656 -2.625 10.726562 -0.640625 8.546875 -0.640625 Z M 8.546875 -0.640625 "/></g></g></g><g fill="#1f2933" fill-opacity="1"><g transform="translate(99.228393, 28.326914)"><g><path d="M 7.988281 -13.6875 C 6.257812 -13.6875 4.972656 -12.738281 4.359375 -10.953125 L 4.359375 -13.1875 C 4.359375 -13.605469 4.164062 -13.828125 3.632812 -13.578125 L 1.507812 -12.628906 C 1.257812 -12.488281 1.089844 -12.320312 1.089844 -12.125 L 1.089844 -12.070312 C 1.089844 -11.539062 2.207031 -11.511719 2.207031 -10.449219 L 2.207031 -1.957031 C 2.207031 -0.976562 1.171875 -0.949219 1.171875 -0.445312 L 1.171875 -0.335938 C 1.171875 -0.113281 1.367188 0 1.730469 0 L 5.195312 0 C 5.558594 0 5.753906 -0.113281 5.753906 -0.335938 L 5.753906 -0.445312 C 5.753906 -0.949219 4.582031 -0.976562 4.582031 -1.957031 L 4.582031 -8.324219 C 4.582031 -10.421875 5.417969 -12.179688 6.957031 -12.179688 C 8.6875 -12.179688 7.988281 -10.226562 9.441406 -10.226562 C 10.226562 -10.226562 10.558594 -10.8125 10.558594 -11.539062 C 10.558594 -12.710938 9.667969 -13.6875 7.988281 -13.6875 Z M 7.988281 -13.6875 "/></g></g></g><g fill="#1f2933" fill-opacity="1"><g transform="translate(108.499306, 28.326914)"><g><path d="M 6.0625 0.28125 C 8.296875 0.28125 9.636719 -1.398438 9.636719 -3.128906 C 9.636719 -3.632812 8.96875 -3.660156 8.800781 -3.242188 C 8.6875 -2.289062 7.960938 -1.566406 6.734375 -1.566406 C 5.699219 -1.566406 4.972656 -2.375 4.972656 -3.910156 L 4.972656 -12.292969 L 8.828125 -12.292969 C 9.050781 -12.292969 9.246094 -12.460938 9.246094 -12.710938 L 9.246094 -12.992188 C 9.246094 -13.214844 9.050781 -13.410156 8.828125 -13.410156 L 4.972656 -13.410156 L 4.945312 -16.0625 C 4.945312 -16.425781 4.832031 -16.621094 4.496094 -16.621094 L 4.21875 -16.621094 C 3.96875 -16.621094 3.773438 -16.425781 3.742188 -16.0625 C 3.605469 -14.472656 2.960938 -13.410156 1.621094 -13.410156 L 0.613281 -13.410156 C 0.335938 -13.410156 0.195312 -13.242188 0.195312 -12.992188 L 0.195312 -12.710938 C 0.195312 -12.460938 0.363281 -12.292969 0.613281 -12.292969 L 2.457031 -12.292969 L 2.457031 -3.9375 C 2.457031 -1.089844 3.910156 0.28125 6.0625 0.28125 Z M 6.0625 0.28125 "/></g></g></g><g fill="#1f2933" fill-opacity="1"><g transform="translate(117.072064, 28.326914)"><g><path d="M 12.960938 -13.410156 C 9.441406 -13.410156 9.136719 -13.6875 7.234375 -13.6875 C 3.519531 -13.6875 1.0625 -11.316406 1.0625 -8.046875 C 1.0625 -5.027344 3.6875 -2.625 7.039062 -2.625 C 7.402344 -2.625 7.738281 -2.652344 8.101562 -2.683594 C 10 -2.515625 11.203125 -1.285156 11.203125 0.503906 C 11.203125 2.375 9.667969 3.632812 7.375 3.632812 C 2.710938 3.605469 3.605469 -0.78125 1.871094 -0.78125 C 1.144531 -0.78125 0.839844 -0.28125 0.839844 0.28125 C 0.839844 2.066406 2.90625 4.527344 7.207031 4.527344 C 10.980469 4.527344 13.6875 2.933594 13.6875 0.335938 C 13.6875 -1.3125 12.488281 -2.652344 10.058594 -3.183594 C 12.125 -4.078125 13.410156 -5.894531 13.410156 -8.214844 C 13.410156 -9.636719 12.65625 -11.175781 11.453125 -12.070312 C 12.292969 -12.292969 13.242188 -12.179688 13.746094 -12.710938 C 14.082031 -12.992188 13.914062 -13.410156 12.960938 -13.410156 Z M 7.488281 -3.546875 C 5.222656 -3.546875 3.492188 -6.0625 3.492188 -9.050781 C 3.492188 -11.175781 4.777344 -12.796875 6.789062 -12.796875 C 9.273438 -12.796875 10.980469 -10.253906 10.980469 -7.347656 C 10.980469 -5.195312 9.636719 -3.546875 7.488281 -3.546875 Z M 7.488281 -3.546875 "/></g></g></g><g fill="#1f2933" fill-opacity="1"><g transform="translate(130.53193, 28.326914)"><g><path d="M 12.515625 -2.234375 L 11.957031 -7.792969 C 11.59375 -11.480469 9.527344 -13.6875 6.089844 -13.6875 C 3.046875 -13.6875 1.144531 -12.125 1.144531 -10.644531 C 1.144531 -10 1.566406 -9.609375 2.234375 -9.609375 C 3.632812 -9.609375 3.183594 -12.796875 6.089844 -12.796875 C 8.324219 -12.796875 9.21875 -11.007812 9.527344 -7.710938 L 9.582031 -6.957031 C 8.828125 -7.65625 7.625 -8.074219 6.144531 -8.074219 C 3.242188 -8.074219 1.003906 -6.621094 1.035156 -3.9375 C 1.035156 -1.257812 3.15625 0.28125 6.230469 0.28125 C 8.269531 0.28125 9.609375 -0.503906 10.253906 -1.675781 C 10.363281 -0.140625 11.035156 0.167969 12.292969 0.167969 C 13.324219 0.167969 14.082031 0 14.082031 -0.417969 C 14.082031 -1.117188 12.683594 -0.503906 12.515625 -2.234375 Z M 6.84375 -0.613281 C 4.832031 -0.613281 3.492188 -2.234375 3.492188 -4.273438 C 3.492188 -6.007812 4.804688 -7.179688 6.703125 -7.179688 C 8.351562 -7.179688 9.5 -6.257812 9.777344 -4.945312 L 9.890625 -3.6875 C 9.945312 -1.984375 8.714844 -0.613281 6.84375 -0.613281 Z M 6.84375 -0.613281 "/></g></g></g><g fill="#1f2933" fill-opacity="1"><g transform="translate(143.293642, 28.326914)"><g><path d="M 12.960938 -13.410156 C 9.441406 -13.410156 9.136719 -13.6875 7.234375 -13.6875 C 3.519531 -13.6875 1.0625 -11.316406 1.0625 -8.046875 C 1.0625 -5.027344 3.6875 -2.625 7.039062 -2.625 C 7.402344 -2.625 7.738281 -2.652344 8.101562 -2.683594 C 10 -2.515625 11.203125 -1.285156 11.203125 0.503906 C 11.203125 2.375 9.667969 3.632812 7.375 3.632812 C 2.710938 3.605469 3.605469 -0.78125 1.871094 -0.78125 C 1.144531 -0.78125 0.839844 -0.28125 0.839844 0.28125 C 0.839844 2.066406 2.90625 4.527344 7.207031 4.527344 C 10.980469 4.527344 13.6875 2.933594 13.6875 0.335938 C 13.6875 -1.3125 12.488281 -2.652344 10.058594 -3.183594 C 12.125 -4.078125 13.410156 -5.894531 13.410156 -8.214844 C 13.410156 -9.636719 12.65625 -11.175781 11.453125 -12.070312 C 12.292969 -12.292969 13.242188 -12.179688 13.746094 -12.710938 C 14.082031 -12.992188 13.914062 -13.410156 12.960938 -13.410156 Z M 7.488281 -3.546875 C 5.222656 -3.546875 3.492188 -6.0625 3.492188 -9.050781 C 3.492188 -11.175781 4.777344 -12.796875 6.789062 -12.796875 C 9.273438 -12.796875 10.980469 -10.253906 10.980469 -7.347656 C 10.980469 -5.195312 9.636719 -3.546875 7.488281 -3.546875 Z M 7.488281 -3.546875 "/></g></g></g><g fill="#1f2933" fill-opacity="1"><g transform="translate(156.753508, 28.326914)"><g><path d="M 12.292969 -3.9375 C 11.679688 -2.597656 10.363281 -1.507812 8.296875 -1.507812 C 6.035156 -1.507812 4.332031 -2.960938 3.6875 -5.363281 L 11.425781 -7.90625 C 12.265625 -8.1875 12.738281 -8.660156 12.738281 -9.554688 C 12.738281 -11.480469 10.894531 -13.6875 7.542969 -13.6875 C 3.828125 -13.6875 0.949219 -10.753906 0.949219 -6.816406 C 0.949219 -2.457031 3.828125 0.28125 7.429688 0.28125 C 10.921875 0.28125 12.765625 -2.039062 13.101562 -3.714844 C 13.1875 -4.246094 12.542969 -4.332031 12.292969 -3.9375 Z M 7.125 -12.796875 C 9.050781 -12.796875 10.394531 -10.753906 10.394531 -9.5 C 10.394531 -9.023438 10.195312 -8.714844 9.722656 -8.519531 L 3.492188 -6.285156 C 3.410156 -6.734375 3.378906 -7.207031 3.378906 -7.710938 C 3.378906 -10.558594 4.859375 -12.796875 7.125 -12.796875 Z M 7.125 -12.796875 "/></g></g></g><g fill="#1f2933" fill-opacity="1"><g transform="translate(169.208027, 28.326914)"><g><path d="M 6.539062 0.25 C 10 0.25 12.179688 -1.425781 12.179688 -3.519531 C 12.179688 -9.109375 3.660156 -6.371094 3.660156 -10.394531 C 3.660156 -11.789062 4.917969 -12.824219 6.539062 -12.824219 C 9.972656 -12.824219 9.273438 -9.414062 10.867188 -9.414062 C 11.425781 -9.414062 11.875 -9.832031 11.875 -10.394531 C 11.875 -11.902344 9.890625 -13.6875 6.425781 -13.6875 C 3.351562 -13.6875 1.171875 -12.011719 1.171875 -9.863281 C 1.171875 -4.359375 9.722656 -7.125 9.722656 -3.015625 C 9.722656 -1.425781 8.324219 -0.558594 6.539062 -0.558594 C 2.792969 -0.558594 3.6875 -3.96875 1.957031 -3.96875 C 1.3125 -3.96875 0.867188 -3.605469 0.867188 -2.933594 C 0.867188 -1.621094 2.820312 0.25 6.539062 0.25 Z M 6.539062 0.25 "/></g></g></g></g></g></svg>