<?xml version="1.0" encoding="UTF-8"?>
<svg version="1.1" xmlns="http://www.w3.org/2000/svg" width="1280" height="426">
<path d="M0 0 C1.04732803 -0.00428513 2.09465607 -0.00857025 3.17372131 -0.01298523 C5.39192992 -0.01872385 7.61015735 -0.01923224 9.82836914 -0.01489258 C13.17953824 -0.01175907 16.52980105 -0.0351058 19.88085938 -0.06054688 C37.47091959 -0.11395625 56.03576246 0.50972856 69.59594727 13.484375 C76.10335272 20.48178743 80.5127211 29.08954773 84.91015625 37.48828125 C89.3895534 45.92553465 93.93004125 54.31382471 98.66015625 62.61328125 C103.85679535 71.74110717 108.96512063 80.91474754 114.03515625 90.11328125 C114.39180359 90.75995758 114.74845093 91.40663391 115.11590576 92.07290649 C121.07596147 102.8823917 121.07596147 102.8823917 122.28515625 105.30078125 C122.29102249 104.13868637 122.29688873 102.97659149 122.30293274 101.77928162 C122.36019132 90.81779866 122.43296956 79.8565135 122.52087116 68.8952322 C122.56556348 63.26016614 122.60482231 57.6251722 122.6315918 51.98999023 C122.65763585 46.54985378 122.69804653 41.10999499 122.74834251 35.67003059 C122.76500368 33.59649171 122.77652262 31.52290481 122.78277016 29.4493084 C122.79241922 26.5406992 122.82048872 23.63279916 122.8527832 20.72436523 C122.85134811 19.87056274 122.84991302 19.01676025 122.84843445 18.13708496 C122.93209777 12.79523238 123.78143496 9.04540781 126.28515625 4.30078125 C130.17788775 0.65134547 133.75056813 0.17431633 138.9465332 0.13964844 C140.68898064 0.12523712 140.68898064 0.12523712 142.46662903 0.11053467 C144.35099922 0.10415985 144.35099922 0.10415985 146.2734375 0.09765625 C148.21007515 0.08910614 148.21007515 0.08910614 150.18583679 0.0803833 C152.92036329 0.06988331 155.65486048 0.06403435 158.3894043 0.06054688 C161.88306412 0.05506933 165.37633281 0.03105349 168.86987019 0.00257492 C172.21271818 -0.0206001 175.55551336 -0.02250446 178.8984375 -0.02734375 C180.77369865 -0.04586395 180.77369865 -0.04586395 182.68684387 -0.0647583 C194.05579316 -0.03562357 194.05579316 -0.03562357 198.28515625 3.30078125 C201.87296291 8.71613387 201.69406519 13.63464769 201.62573242 19.89599609 C201.6261705 20.95025787 201.62660858 22.00451965 201.62705994 23.09072876 C201.62497513 26.56458251 201.60165794 30.03794963 201.578125 33.51171875 C201.57252797 35.92452735 201.56825838 38.33733936 201.56526184 40.75015259 C201.5538216 47.09268651 201.52436116 53.43501351 201.4911499 59.77746582 C201.4550282 67.39163436 201.44128399 75.00587218 201.42378998 82.62010193 C201.39472368 94.18047218 201.33723009 105.7403886 201.28515625 117.30078125 C177.52515625 117.30078125 153.76515625 117.30078125 129.28515625 117.30078125 C135.91667527 133.50132121 135.91667527 133.50132121 145.09008789 135.20898438 C147.74356755 135.24858206 150.30356684 135.20579007 152.9453125 135.08203125 C154.34490534 135.07461225 155.74455193 135.07428455 157.14414978 135.08068848 C160.80224252 135.07862459 164.45161226 134.98131339 168.10754395 134.86297607 C171.84790552 134.7591281 175.58849542 134.74688134 179.33007812 134.7265625 C186.65166031 134.67347779 193.96645142 134.51961184 201.28515625 134.30078125 C201.33189889 148.16547843 201.36702318 162.03016338 201.38878059 175.89492321 C201.39922248 182.33272724 201.41338921 188.77047837 201.43603516 195.20825195 C201.45774889 201.41981337 201.46972182 207.63132387 201.47491074 213.8429203 C201.47860912 216.21401076 201.48583101 218.58509841 201.49661636 220.95616722 C201.51111156 224.27446921 201.51313499 227.59256017 201.51220703 230.91088867 C201.51939758 231.89344131 201.52658813 232.87599396 201.53399658 233.88832092 C201.51629924 239.72785919 201.29795951 243.9633323 197.34765625 248.55078125 C194.22714226 251.19849009 191.61281338 251.4291357 187.66870117 251.46191406 C186.7330986 251.47152161 185.79749603 251.48112915 184.83354187 251.49102783 C183.8211293 251.49527771 182.80871674 251.49952759 181.765625 251.50390625 C180.71546707 251.50960632 179.66530914 251.5153064 178.58332825 251.5211792 C176.35316983 251.5306358 174.12299741 251.53716579 171.89282227 251.54101562 C168.52399178 251.55063467 165.15579437 251.58161556 161.78710938 251.61328125 C143.06759219 251.70676709 124.78984586 250.62067521 110.46875 236.88671875 C105.47395319 230.97159266 101.9837824 224.06347692 98.28515625 217.30078125 C97.06480505 215.09840228 95.84337898 212.8966187 94.62109375 210.6953125 C91.88843684 205.76659622 89.16894522 200.83078127 86.45703125 195.890625 C82.44214247 188.57781279 78.40003003 181.2803773 74.34765625 173.98828125 C73.76991455 172.94752441 73.19217285 171.90676758 72.59692383 170.83447266 C69.26880434 164.84565886 65.92090296 158.86833905 62.56030273 152.89770508 C62.14727654 152.16367714 61.73425034 151.4296492 61.30870819 150.67337799 C60.30096275 148.8824532 59.29307437 147.09160886 58.28515625 145.30078125 C58.27635689 147.10363083 58.27635689 147.10363083 58.26737976 148.94290161 C58.21015373 160.27259586 58.1373925 171.60209814 58.04944134 182.93159676 C58.00472402 188.75614156 57.96547069 194.5806162 57.9387207 200.40527344 C57.91270161 206.02694894 57.8723086 211.64835462 57.82196999 217.26986313 C57.80529193 219.41400673 57.79378351 221.55819701 57.78754234 223.70239639 C57.77791169 226.70699566 57.74986401 229.71090314 57.7175293 232.71533203 C57.71968193 234.043507 57.71968193 234.043507 57.72187805 235.39851379 C57.6453185 240.43253513 57.08933086 243.94556843 54.28515625 248.30078125 C48.75728375 252.6390391 41.69202674 251.73195256 35.00390625 251.69921875 C33.07363586 251.70352402 33.07363586 251.70352402 31.10437012 251.70791626 C28.38766611 251.71232523 25.67125916 251.70595517 22.95458984 251.69189453 C19.48448792 251.67480294 16.01508223 251.68465188 12.5450058 251.70261192 C9.21875117 251.71610215 5.89268061 251.70663766 2.56640625 251.69921875 C0.70526184 251.70832779 0.70526184 251.70832779 -1.19348145 251.71762085 C-12.16768966 251.6282658 -12.16768966 251.6282658 -16.71484375 248.30078125 C-19.33200683 245.37441136 -20.08900074 243.55462358 -20.0756073 239.64373779 C-20.07973129 238.71268219 -20.08385529 237.78162659 -20.08810425 236.82235718 C-20.07731842 235.80815704 -20.06653259 234.79395691 -20.05541992 233.74902344 C-20.055858 232.67554657 -20.05629608 231.6020697 -20.05674744 230.49606323 C-20.05465674 226.94640949 -20.03131176 223.39722753 -20.0078125 219.84765625 C-20.00221756 217.38714862 -19.99794698 214.92663765 -19.99494934 212.46612549 C-19.9834926 205.98875712 -19.95401799 199.51159042 -19.9208374 193.03430176 C-19.88476035 185.26332771 -19.87097935 177.49228626 -19.85347748 169.72125244 C-19.82438146 157.91428843 -19.76689937 146.10776696 -19.71484375 134.30078125 C4.04515625 134.30078125 27.80515625 134.30078125 52.28515625 134.30078125 C45.65363723 118.10024129 45.65363723 118.10024129 36.48022461 116.39257812 C33.82674495 116.35298044 31.26674566 116.39577243 28.625 116.51953125 C27.22540716 116.52695025 25.82576057 116.52727795 24.42616272 116.52087402 C20.76806998 116.52293791 17.11870024 116.62024911 13.46276855 116.73858643 C9.72240698 116.8424344 5.98181708 116.85468116 2.24023438 116.875 C-5.08134781 116.92808471 -12.39613892 117.08195066 -19.71484375 117.30078125 C-19.8083231 103.04498119 -19.87857448 88.78922873 -19.92209244 74.53318501 C-19.94297764 67.91369823 -19.97131303 61.29441719 -20.01660156 54.67504883 C-20.06002496 48.28840802 -20.08397383 41.90196524 -20.09435272 35.51518822 C-20.10175031 33.07708811 -20.11619582 30.63899898 -20.13776398 28.20098305 C-20.16675033 24.78910422 -20.17080161 21.37804637 -20.16894531 17.96606445 C-20.18332642 16.95545959 -20.19770752 15.94485474 -20.21252441 14.90362549 C-20.18664872 10.5157759 -20.15527926 8.01669472 -17.81648254 4.21505737 C-12.55179801 -0.5802766 -6.76921243 -0.00615664 0 0 Z " fill="#007CBA" transform="translate(365.71484375,135.69921875)"/>
<path d="M0 0 C0.99 0.26683594 1.98 0.53367188 3 0.80859375 C16.71034054 4.91075681 29.02249985 11.89134466 40 21 C41.27423828 22.02867188 41.27423828 22.02867188 42.57421875 23.078125 C62.67926882 40.12165253 74.81624403 65.04240288 78 91 C78.28094182 95.44201722 78.33442613 99.86244809 78.3125 104.3125 C78.30512817 106.09188965 78.30512817 106.09188965 78.29760742 107.90722656 C78.18097024 116.64245406 77.45184066 124.57674096 75 133 C74.6596875 134.22203125 74.319375 135.4440625 73.96875 136.703125 C66.61091118 160.86467681 51.1379081 181.45242329 29.25390625 194.27734375 C20.8871188 198.70681946 13.07748865 202.11800016 3.5625 202.25 C1.89380859 202.28867187 1.89380859 202.28867187 0.19140625 202.328125 C-3.34007533 201.96503509 -5.1769687 201.11086914 -8 199 C-10.38942271 194.22115458 -9.61408365 187.45633458 -8.3515625 182.40625 C-6.1328318 176.56548884 -2.88654048 171.37141719 0.3203125 166.03125 C6.10537998 155.59122124 8.80091542 143.95590371 6.421875 132.125 C3.16919991 121.71643972 -4.13698715 114.28338202 -13.59375 109.1171875 C-22.42440978 105.01723832 -31.36731233 104.90725923 -40.5234375 107.96875 C-49.3711654 111.65297739 -56.85992405 118.1090406 -61.38671875 126.6015625 C-66.08700205 138.04716465 -64.51561505 148.74569789 -60 160 C-58.60423372 162.85271684 -57.11016418 165.60487402 -55.5234375 168.35546875 C-53.98279576 171.0298648 -52.56924013 173.7405132 -51.1875 176.5 C-50.78917969 177.2940625 -50.39085937 178.088125 -49.98046875 178.90625 C-48.13039209 182.85701131 -47.78090236 186.10658007 -47.6875 190.4375 C-47.63142578 192.13712891 -47.63142578 192.13712891 -47.57421875 193.87109375 C-48.08509825 197.625355 -49.06664246 198.69794018 -52 201 C-58.078366 204.039183 -66.91367805 202.33433061 -73.125 200.375 C-96.86783351 191.39374492 -115.23343434 172.90580809 -125.9128418 150.07666016 C-137.46829134 124.20625073 -138.9917796 93.64526055 -129.3125 66.9375 C-124.62056158 54.80578437 -118.63031858 43.79969381 -110 34 C-109.32453125 33.18144531 -108.6490625 32.36289063 -107.953125 31.51953125 C-94.53783689 15.72963922 -76.65639514 5.81625515 -57 0 C-55.85660156 -0.34160156 -54.71320313 -0.68320312 -53.53515625 -1.03515625 C-36.65269906 -5.19292062 -16.6843362 -4.81760208 0 0 Z " fill="#007CBA" transform="translate(1054,32)"/>
<path d="M0 0 C2.22911499 0.02240279 4.45828937 0.03947429 6.68748474 0.05145264 C12.53343018 0.09710711 18.37575413 0.2148274 24.22027588 0.34790039 C30.19257618 0.47102175 36.16546623 0.52554014 42.13867188 0.5859375 C53.84273051 0.71434262 65.54411014 0.91893768 77.24609375 1.171875 C75.85315807 4.02095232 74.36420647 6.53086109 72.48046875 9.0859375 C71.92665527 9.8385083 71.3728418 10.5910791 70.80224609 11.36645508 C70.20621582 12.16849365 69.61018555 12.97053223 68.99609375 13.796875 C68.38072754 14.62920654 67.76536133 15.46153809 67.13134766 16.3190918 C62.14712236 23.03027971 57.04566528 29.64601269 51.86621094 36.20751953 C51.31868164 36.90345215 50.77115234 37.59938477 50.20703125 38.31640625 C49.73056152 38.91815674 49.2540918 39.51990723 48.76318359 40.13989258 C46.81633877 42.74748664 45.04425933 45.46025374 43.24609375 48.171875 C44.38535309 48.17330002 45.52461243 48.17472504 46.69839478 48.17619324 C57.43950694 48.19286913 68.18024055 48.23566105 78.92115211 48.30396557 C84.44309537 48.33824337 89.96476172 48.36334683 95.48681641 48.36743164 C100.81684605 48.37171282 106.14625096 48.40016112 111.47608566 48.44530678 C113.50858292 48.45828747 115.54115491 48.46258745 117.57368851 48.45802879 C120.42301988 48.45312695 123.27052245 48.47919685 126.11962891 48.51245117 C126.9583252 48.50382553 127.79702148 48.49519989 128.66113281 48.48631287 C134.53834893 48.60115632 137.15051235 49.92560754 141.24609375 54.171875 C142.51643778 56.71256305 142.39385324 58.52399109 142.4230957 61.3684082 C142.44234856 62.99568596 142.44234856 62.99568596 142.46199036 64.65583801 C142.46937729 65.83288803 142.47676422 67.00993805 142.484375 68.22265625 C142.49244675 69.42875046 142.50051849 70.63484467 142.50883484 71.87748718 C142.52268475 74.43385374 142.53340282 76.99023886 142.54125977 79.54663086 C142.5584771 83.45787554 142.60235751 87.36827622 142.64648438 91.27929688 C142.65661055 93.76041044 142.66512689 96.2415312 142.671875 98.72265625 C142.68938309 99.89363358 142.70689117 101.0646109 142.72492981 102.27107239 C142.70338288 110.33070008 142.70338288 110.33070008 140.53198242 114.32495117 C135.77341936 118.16971562 131.22333911 118.46291055 125.28224182 118.43257141 C124.48591038 118.43639696 123.68957894 118.44022251 122.86911625 118.44416398 C120.2037738 118.45447341 117.53864761 118.45050576 114.87329102 118.4465332 C112.96112875 118.4508808 111.04896823 118.45606411 109.1368103 118.46202087 C103.94470073 118.4754166 98.75266392 118.47598892 93.56054044 118.47345757 C89.22643667 118.47238831 84.89234764 118.47727007 80.55824703 118.482063 C70.33398616 118.49316005 60.10976203 118.49359439 49.88549805 118.48754883 C39.33644165 118.48150716 28.78751857 118.49382452 18.23848492 118.5151189 C9.18188106 118.53272869 0.12531965 118.53873726 -8.9313007 118.53548115 C-14.34061975 118.53366725 -19.7498437 118.53631527 -25.15914726 118.55019569 C-30.24565046 118.56275935 -35.33194563 118.56084374 -40.41844559 118.54778481 C-42.28488421 118.54541633 -44.15133741 118.54816338 -46.01775932 118.55640793 C-48.56643843 118.56685416 -51.1144168 118.55879199 -53.66307068 118.5460968 C-54.40091795 118.55347109 -55.13876522 118.56084537 -55.8989715 118.56844312 C-60.5821824 118.51939714 -63.76635369 117.62106151 -67.75390625 115.171875 C-73.85315533 108.44166912 -72.12128816 98.42348426 -71.89013672 89.93261719 C-70.85143858 68.88315742 -62.13061698 52.49774411 -49.35693359 36.22851562 C-46.09958606 32.04942704 -42.90026042 27.82572989 -39.69140625 23.609375 C-39.04316895 22.75947998 -38.39493164 21.90958496 -37.72705078 21.03393555 C-36.76387939 19.76996948 -36.76387939 19.76996948 -35.78125 18.48046875 C-35.14527893 17.68096802 -34.50930786 16.88146729 -33.85406494 16.05773926 C-31.6808133 13.23511616 -31.6808133 13.23511616 -30.19180298 10.06965637 C-23.25212379 -2.3230216 -12.77392286 -0.37700485 0 0 Z " fill="#007CB9" transform="translate(661.75390625,268.828125)"/>
<path d="M0 0 C0.78493521 -0.00467997 1.56987041 -0.00935994 2.37859154 -0.01418173 C4.99947559 -0.02611394 7.61983504 -0.01668158 10.24072266 -0.00723267 C12.12347722 -0.01129916 14.00622939 -0.01664147 15.88897705 -0.02316284 C20.99635933 -0.03683298 26.10355969 -0.03153899 31.21094513 -0.02202559 C36.55730172 -0.01442746 41.90364279 -0.02147503 47.25 -0.02618408 C56.22805577 -0.03164118 65.2060375 -0.0244512 74.18408203 -0.01016235 C84.56218843 0.00616405 94.94011802 0.00087551 105.31822014 -0.01564157 C114.23047842 -0.02925771 123.14268349 -0.03117546 132.05494881 -0.02332556 C137.37705508 -0.01864977 142.69907827 -0.01802167 148.0211792 -0.02793503 C153.02481102 -0.03660424 158.02821498 -0.03058351 163.0318222 -0.01325226 C164.86761853 -0.00928719 166.70343404 -0.01042181 168.53922272 -0.01704025 C171.04626369 -0.02524505 173.55257571 -0.0149473 176.05957031 0 C177.14780877 -0.01003825 177.14780877 -0.01003825 178.25803185 -0.02027929 C182.90627562 0.03343004 186.07793616 0.93954992 190.02978516 3.38095093 C194.3909575 8.69686797 193.5151534 15.09321618 193.47583008 21.60604858 C193.46744535 23.71564559 193.49588763 25.82241123 193.52783203 27.93173218 C193.64090696 49.53395372 184.52930677 64.5623909 171.65332031 81.27352905 C170.03658599 83.37212314 168.42846485 85.47703885 166.82275391 87.58407593 C160.99617519 95.22504882 160.99617519 95.22504882 159.11422729 97.54850769 C157.42763429 99.84033381 156.04788814 102.05386809 154.63922119 104.51168823 C147.66183916 115.94834719 147.66183916 115.94834719 141.60459709 118.33752632 C134.75973415 119.76780001 127.82807465 119.33427748 120.88525391 119.04110718 C118.66190339 119.00934556 116.43843276 118.98517238 114.21492004 118.96821594 C108.4001729 118.90371604 102.59280283 118.73714844 96.78094482 118.54824829 C90.83561007 118.37341246 84.88906636 118.29650716 78.94189453 118.21102905 C67.30130674 118.02944422 55.66616236 117.73985576 44.02978516 117.38095093 C48.38530066 109.68948718 48.38530066 109.68948718 50.92041016 106.49813843 C51.45770752 105.81557983 51.99500488 105.13302124 52.54858398 104.42977905 C53.11988037 103.71241577 53.69117676 102.99505249 54.27978516 102.25595093 C55.51902855 100.68118676 56.75726605 99.10563064 57.99462891 97.52938843 C58.64544434 96.70148804 59.29625977 95.87358765 59.96679688 95.02059937 C63.62850604 90.33534498 67.23643733 85.60925115 70.84228516 80.88095093 C71.54192383 79.96684448 72.2415625 79.05273804 72.96240234 78.1109314 C73.9335498 76.83693481 73.9335498 76.83693481 74.92431641 75.53720093 C75.50028564 74.78245483 76.07625488 74.02770874 76.66967773 73.25009155 C78.07676318 71.42420466 78.07676318 71.42420466 79.02978516 69.38095093 C77.94063812 69.38983337 76.85149109 69.39871582 75.7293396 69.40786743 C65.45939815 69.48899464 55.18952182 69.54893627 44.9193325 69.58819962 C39.63944506 69.60906403 34.35981655 69.63736104 29.08007812 69.68270874 C23.98371464 69.72620692 18.88760003 69.75009666 13.79106522 69.7604599 C11.84780587 69.7678441 9.90455996 69.7822638 7.96140671 69.80387115 C5.23699381 69.8329579 2.51360598 69.83690473 -0.2109375 69.83505249 C-1.01223083 69.84943359 -1.81352417 69.8638147 -2.63909912 69.87863159 C-7.83718744 69.84045508 -10.9359815 68.95592907 -14.97021484 65.38095093 C-16.87264164 61.97932109 -17.22459451 59.08600361 -17.24487305 55.22689819 C-17.25440506 54.22558365 -17.26393707 53.2242691 -17.27375793 52.19261169 C-17.27284653 51.1216777 -17.27193512 50.05074371 -17.27099609 48.94735718 C-17.27528122 47.83666367 -17.27956635 46.72597015 -17.28398132 45.58161926 C-17.28971726 43.23568401 -17.29023032 40.88973097 -17.28588867 38.54379272 C-17.28272935 34.95990586 -17.30619587 31.37684513 -17.33154297 27.7930603 C-17.33381613 25.5111603 -17.33451938 23.22925808 -17.33349609 20.94735718 C-17.34270584 19.87844742 -17.35191559 18.80953766 -17.36140442 17.70823669 C-17.3000338 7.81149296 -17.3000338 7.81149296 -13.97021484 3.38095093 C-9.32286559 0.48663849 -5.35336951 -0.04938113 0 0 Z " fill="#007CB9" transform="translate(608.97021484375,135.61904907226563)"/>
<path d="M0 0 C1.5941174 1.341455 3.17754636 2.69571496 4.75 4.0625 C5.56984375 4.74957031 6.3896875 5.43664062 7.234375 6.14453125 C29.08123645 24.97218359 38.85643271 48.52502388 41.03125 76.70703125 C41.60332489 97.18254497 36.50762778 118.81542873 22.59375 134.39453125 C16.45688038 139.94631796 9.37844737 144.52483087 0.921875 144.32421875 C-10.86991139 142.90326607 -17.87796047 130.5879055 -24.734375 122.11328125 C-27.67924949 118.54193501 -30.70716976 115.05035513 -33.75 111.5625 C-38.22547523 106.4303393 -42.59007551 101.23064201 -46.875 95.9375 C-49.77496065 92.42702132 -52.75764252 88.99422858 -55.75 85.5625 C-60.26481932 80.38324047 -64.6823793 75.14414168 -69.0078125 69.8046875 C-71.55253917 66.69249565 -74.14628508 63.62532516 -76.75 60.5625 C-80.79617888 55.7982825 -84.78847217 50.99567298 -88.73046875 46.14453125 C-90.70008987 43.73518076 -92.68259362 41.33897392 -94.67578125 38.94921875 C-113.72232717 16.07211085 -113.72232717 16.07211085 -113.58984375 4.9140625 C-112.79454816 -1.75910739 -108.36200195 -6.50815363 -103.25 -10.5625 C-73.18394092 -31.23291562 -27.04910383 -21.15971886 0 0 Z " fill="#007CBA" transform="translate(942.25,252.9375)"/>
<path d="M0 0 C4.29686234 3.86621912 8.30168019 8.19168796 9.08984375 14.09375 C9.26802491 26.56643093 3.00514859 32.9764462 -4.85302734 41.96728516 C-6.86780481 44.29702608 -8.80720506 46.6850822 -10.74609375 49.078125 C-14.49397173 53.6826608 -18.31592819 58.21831691 -22.16015625 62.7421875 C-25.05854198 66.1587204 -27.91764475 69.60317338 -30.74609375 73.078125 C-34.49526864 77.68425415 -38.31794563 82.222021 -42.16455078 86.74658203 C-45.02456313 90.1166349 -47.83865108 93.51838808 -50.62109375 96.953125 C-54.78830499 102.07625567 -59.10921832 107.05407428 -63.44873047 112.03076172 C-66.61061818 115.66531703 -69.71452316 119.33324368 -72.74609375 123.078125 C-76.9302471 128.24632923 -81.27096342 133.26787778 -85.64257812 138.27734375 C-86.42858398 139.17839844 -86.42858398 139.17839844 -87.23046875 140.09765625 C-87.74005127 140.6803125 -88.24963379 141.26296875 -88.7746582 141.86328125 C-90.18613159 143.50824376 -91.54248478 145.18815357 -92.8984375 146.87890625 C-96.94834556 151.53528973 -101.06606516 153.26166924 -107.12109375 154.140625 C-115.25991785 153.7071965 -122.83197628 148.15012073 -128.2734375 142.45703125 C-139.05857333 129.3781242 -144.53613023 112.49377756 -145.24609375 95.578125 C-145.28605469 94.70671875 -145.32601563 93.8353125 -145.3671875 92.9375 C-145.91122525 68.99983909 -139.28021566 45.72663661 -123.24609375 27.578125 C-122.54226563 26.71960938 -121.8384375 25.86109375 -121.11328125 24.9765625 C-94.99708601 -5.74316546 -35.60560352 -28.48448281 0 0 Z " fill="#007CBA" transform="translate(1213.24609375,243.421875)"/>
<path d="M0 0 C2.50604393 -0.00441119 5.0103749 -0.04095139 7.51611328 -0.07861328 C9.12938861 -0.08447661 10.74267215 -0.08844924 12.35595703 -0.09033203 C13.46399689 -0.11188858 13.46399689 -0.11188858 14.59442139 -0.13388062 C20.06376 -0.08612609 23.3218588 1.08860561 27.74658203 4.37060547 C45.72678907 30.78439155 45.33347281 91.77457197 49.74658203 117.37060547 C-7.01341797 117.37060547 -63.77341797 117.37060547 -122.25341797 117.37060547 C-118.57659757 110.62976808 -114.9513844 104.11055173 -110.81591797 97.68310547 C-109.76063326 96.02723592 -108.70597592 94.37096643 -107.65185547 92.71435547 C-107.09981445 91.84810547 -106.54777344 90.98185547 -105.97900391 90.08935547 C-102.94113178 85.30303062 -99.94227399 80.49238029 -96.94091797 75.68310547 C-96.0040918 74.18372437 -96.0040918 74.18372437 -95.04833984 72.65405273 C-91.77577586 67.41552686 -88.50819148 62.17394516 -85.24560547 56.92919922 C-82.11366383 51.89608019 -78.96717136 46.87234486 -75.81005859 41.85498047 C-74.51264297 39.78432466 -73.23126848 37.70523945 -71.95654297 35.62060547 C-60.93260573 18.12807695 -45.1686642 6.90855626 -25.03466797 1.80859375 C-16.74107971 0.02068751 -8.44527937 -0.00166541 0 0 Z " fill="#007CB9" transform="translate(255.25341796875,135.62939453125)"/>
<path d="M0 0 C5.39494578 0.22655244 10.792143 0.32583727 16.19049072 0.43640137 C26.75113925 0.67119102 37.30170222 1.04573386 47.85455322 1.51062012 C46.3924402 5.27793152 44.71157271 8.57828294 42.58111572 12.01843262 C41.92748047 13.07755859 41.27384521 14.13668457 40.60040283 15.22790527 C39.89360162 16.36390273 39.18664819 17.49980548 38.47955322 18.63562012 C37.74957417 19.81434353 37.01984031 20.99321882 36.29034424 22.17224121 C31.21209646 30.36970997 26.07828369 38.53173078 20.91314697 46.67468262 C17.36717182 52.2701449 13.86170287 57.89077238 10.35455322 63.51062012 C4.36082807 73.10894194 -1.64337942 82.69996941 -7.71478271 92.24938965 C-9.19491715 94.58881032 -10.65880435 96.93792452 -12.12200928 99.28796387 C-13.08774531 100.82077422 -14.05387566 102.35333622 -15.02044678 103.88562012 C-15.44873779 104.5816333 -15.87702881 105.27764648 -16.31829834 105.99475098 C-20.41153471 112.43277251 -24.57744792 116.44634799 -32.14544678 118.51062012 C-35.41487122 118.77131653 -35.41487122 118.77131653 -38.98944092 118.78527832 C-39.64552841 118.79038925 -40.30161591 118.79550018 -40.97758484 118.80076599 C-43.12868576 118.81457425 -45.27946329 118.81371248 -47.43060303 118.81140137 C-48.93462746 118.81529203 -50.4386508 118.81962747 -51.94267273 118.8243866 C-55.08720471 118.83182911 -58.23162435 118.83157108 -61.37615967 118.82629395 C-65.4000733 118.82049008 -69.42352802 118.83746158 -73.44736576 118.86063862 C-76.55037612 118.87538567 -79.65327604 118.87624656 -82.75631523 118.87312889 C-84.2398412 118.87364123 -85.72337349 118.87886254 -87.20686531 118.88894081 C-89.28182826 118.90131266 -91.35589795 118.89451112 -93.43084717 118.88293457 C-94.60965958 118.883564 -95.78847198 118.88419342 -97.00300598 118.88484192 C-101.44959286 118.35531412 -104.02261111 116.63345579 -107.14544678 113.51062012 C-108.62662629 101.84633145 -100.79009662 92.72001973 -94.70794678 83.32312012 C-93.46750345 81.39007796 -92.22795097 79.45646391 -90.98919678 77.52233887 C-90.35497803 76.53282227 -89.72075928 75.54330566 -89.06732178 74.52380371 C-85.91495579 69.58141283 -82.81027972 64.60951775 -79.70794678 59.63562012 C-79.08677979 58.6403833 -78.46561279 57.64514648 -77.82562256 56.61975098 C-75.93145818 53.58385493 -74.03828065 50.54734586 -72.14544678 47.51062012 C-69.62576897 43.46823131 -67.10472557 39.42669852 -64.58294678 35.38562012 C-64.04291016 34.51824219 -63.50287354 33.65086426 -62.94647217 32.75720215 C-61.76956797 30.87135043 -60.54413348 29.01532634 -59.28411865 27.18395996 C-57.38405224 24.22679757 -56.32782841 21.2399379 -55.1942749 17.91931152 C-45.6736895 -6.05254074 -21.7433105 -1.00962454 0 0 Z " fill="#007CBA" transform="translate(165.14544677734375,268.4893798828125)"/>
<path d="M0 0 C28.05 0 56.1 0 85 0 C87.413125 13.509375 89.82625 27.01875 92.3125 40.9375 C93.06829346 45.16812256 93.82408691 49.39874512 94.6027832 53.75756836 C95.54138184 59.01281738 95.54138184 59.01281738 95.98381042 61.49024963 C96.28611408 63.18284742 96.58848543 64.87543312 96.89091492 66.56800842 C97.04594986 67.43570358 97.2009848 68.30339874 97.36071777 69.1973877 C97.59095044 70.48546042 97.59095044 70.48546042 97.82583427 71.79955482 C98.12500249 73.4764771 98.42325068 75.15356382 98.72047615 76.83083153 C99.42521955 80.80565674 100.14263362 84.7772254 100.88925171 88.74441528 C101.10013192 89.88460161 101.10013192 89.88460161 101.31527233 91.047822 C101.57620779 92.45722324 101.84239767 93.86566833 102.11536884 95.27278805 C103.20784375 101.23316292 104.08438697 106.83122606 101.3125 112.375 C98.17903301 115.93190848 95.64227993 116.85646451 90.94021606 117.26742554 C89.79994965 117.27504913 88.65968323 117.28267273 87.48486328 117.29052734 C86.18646515 117.30328705 84.88806702 117.31604675 83.55032349 117.32919312 C82.14032135 117.33225093 80.7303172 117.3344786 79.3203125 117.3359375 C77.86449046 117.34237004 76.40866971 117.34909873 74.95285034 117.35610962 C71.9048971 117.36806549 68.85705706 117.37179219 65.80908203 117.37060547 C61.91637116 117.37040235 58.02439096 117.39770344 54.1318531 117.43214989 C51.12568878 117.4544611 48.11969916 117.45844174 45.11346054 117.45738602 C43.67901975 117.45973567 42.24457367 117.46852327 40.810215 117.48405075 C26.42795977 117.62517231 26.42795977 117.62517231 21 113 C17.91031071 107.94768977 16.99734896 102.88467523 16.00708008 97.14257812 C15.83107773 96.1662291 15.65507538 95.18988007 15.47373962 94.1839447 C14.89649645 90.967941 14.33274872 87.74973718 13.76953125 84.53125 C13.37092286 82.28963528 12.97163617 80.04814109 12.57170105 77.8067627 C11.73638627 73.11388515 10.9074121 68.41994674 10.08325195 63.72509766 C9.02725602 57.71099879 7.95846501 51.69926382 6.88528919 45.68820953 C6.06021678 41.06153939 5.24046248 36.43393999 4.42246056 31.80601501 C4.03023237 29.58903594 3.63669835 27.37228748 3.24183083 25.15577698 C2.6909528 22.0572109 2.14688708 18.95752524 1.60473633 15.85742188 C1.44113617 14.94399521 1.27753601 14.03056854 1.10897827 13.08946228 C0.96185898 12.24005569 0.81473969 11.39064911 0.66316223 10.51550293 C0.5343205 9.78401787 0.40547876 9.05253281 0.27273273 8.29888153 C-0.05334294 5.55036901 0 2.76778728 0 0 Z " fill="#007CB9" transform="translate(223,270)"/>
</svg>
