<?xml version="1.0" encoding="UTF-8"?>
<svg version="1.1" xmlns="http://www.w3.org/2000/svg" width="5000" height="1157">
<path d="M0 0 C1.76179961 -0.00282767 3.5235975 -0.00697023 5.2853913 -0.01230523 C10.13546456 -0.02316887 14.98535563 -0.01532431 19.83542228 -0.00447119 C25.10916198 0.00403211 30.38287685 -0.00485242 35.6566152 -0.01153535 C44.90330711 -0.02084006 54.14994472 -0.01896429 63.39663601 -0.00980282 C77.14828834 0.00378455 90.89989887 0.00023539 104.65155421 -0.00676142 C127.79354105 -0.01800823 150.93550008 -0.01502254 174.07748508 -0.00359058 C197.02115584 0.00772641 219.96481651 0.01369672 242.90849018 0.01222134 C244.34996384 0.01213593 245.7914375 0.01205105 247.23291116 0.0119667 C253.0260633 0.01161884 258.81921543 0.01123374 264.61236756 0.01080112 C280.80927083 0.00960637 297.00617402 0.00942468 313.20307732 0.01000404 C314.30956128 0.01004308 314.30956128 0.01004308 315.43839845 0.01008291 C338.95000492 0.01098182 362.46160826 0.01628118 385.9732132 0.02471161 C386.73591778 0.0249848 387.49862237 0.02525799 388.28443921 0.02553945 C400.66959036 0.02999293 413.0547414 0.03470781 425.43989244 0.03943834 C474.48002785 0.05815277 523.52014787 0.0646104 572.56028652 0.05905628 C575.65480449 0.05870929 578.74932246 0.05836368 581.84384043 0.05801799 C582.60896442 0.05793239 583.3740884 0.05784678 584.16239797 0.05775859 C592.63707136 0.05681234 601.11174475 0.05590062 609.58641815 0.05503082 C610.72654415 0.05491244 610.72654415 0.05491244 611.88970299 0.05479168 C653.01925565 0.05055949 694.1488066 0.05588776 735.2783584 0.06454211 C736.73053025 0.06484539 738.18270209 0.06514829 739.63487394 0.06545081 C740.3526947 0.0656004 741.07051547 0.06575 741.81008837 0.06590412 C743.25820458 0.06620554 744.70632079 0.06650652 746.154437 0.06680708 C749.76189343 0.06755593 753.36934986 0.06831193 756.97680629 0.06908325 C772.75183311 0.07242378 788.52685867 0.074505 804.30188584 0.07314754 C805.01044465 0.073087 805.71900345 0.07302646 806.44903373 0.07296408 C810.01573319 0.07265216 813.58243265 0.07231873 817.1491321 0.07197776 C843.02978467 0.06951679 868.91041969 0.07367386 894.79106862 0.08918776 C908.45779821 0.09719285 922.12450286 0.09987337 935.7912339 0.09454541 C944.9518319 0.09154111 954.1124081 0.09595627 963.2730009 0.10609398 C968.47216183 0.11165383 973.67127244 0.11433142 978.87043358 0.1079274 C1062.79386803 0.01344413 1149.56483874 5.50748002 1318.85594082 93.37473011 C1373.20051882 149.02881602 1385.08476261 229.64268522 1385.10594082 304.12473011 C1385.10638268 304.83623974 1385.10682453 305.54774937 1385.10727978 306.28081989 C1385.1228257 354.06160589 1382.18807199 403.60827372 1363.85594082 448.37473011 C1363.53931484 449.15187366 1363.22268887 449.92901722 1362.89646816 450.72971058 C1352.29389402 476.33792122 1336.65500105 500.83390925 1314.85594082 518.37473011 C1313.97164394 519.10820667 1313.08734707 519.84168324 1312.17625332 520.59738636 C1292.85546918 536.1080922 1269.97620841 547.89387767 1246.61326504 556.00681019 C1241.81408419 557.73407932 1238.55602276 559.83209846 1234.85594082 563.37473011 C1233.54490318 566.45952455 1233.66105373 567.76008623 1234.66844082 570.93723011 C1240.63142627 577.58169961 1251.50898861 578.51484802 1259.85594082 580.12473011 C1309.22517652 590.2254345 1358.74859356 612.22886925 1387.61082363 655.44504261 C1391.35466499 661.24726264 1394.68324688 667.24479029 1397.85594082 673.37473011 C1398.19722012 674.02602894 1398.53849941 674.67732777 1398.89012051 675.34836292 C1420.18750426 716.49613114 1426.19538018 766.0661943 1426.15672207 811.88254261 C1426.16063073 813.86910557 1426.16496964 815.85566773 1426.1697073 817.84222889 C1426.17708868 821.97157996 1426.17693857 826.10084544 1426.17161465 830.23019886 C1426.16698714 834.39925402 1426.1738993 838.56801723 1426.19212246 842.7370348 C1426.29207657 865.80437567 1426.22634049 888.50583627 1422.85594082 911.37473011 C1422.70629879 912.41718891 1422.55665676 913.45964771 1422.40248013 914.53369617 C1415.02591931 965.44168154 1398.86951727 1016.09352793 1365.85594082 1056.37473011 C1365.25394863 1057.15976917 1364.65195644 1057.94480824 1364.03172207 1058.75363636 C1353.57970308 1072.11231206 1341.21497921 1084.12459413 1327.53562832 1094.14377308 C1325.85886492 1095.37258718 1324.20106929 1096.62417519 1322.54344082 1097.87863636 C1269.96305386 1137.12230709 1202.85995894 1150.69119811 1138.85594082 1156.37473011 C1137.85229479 1156.46512438 1136.84864876 1156.55551865 1135.81458922 1156.64865215 C1125.62733605 1157.47350505 1115.49111298 1157.51786378 1105.27652168 1157.50895119 C1103.31021282 1157.51090747 1101.34390434 1157.51329759 1099.37759647 1157.51607916 C1093.98327174 1157.52244748 1088.58896197 1157.52264333 1083.1946342 1157.52180175 C1077.3226258 1157.52197187 1071.45062266 1157.52788491 1065.57861692 1157.53304261 C1055.29019179 1157.54126983 1045.00176983 1157.54578965 1034.71334171 1157.54776859 C1023.67803284 1157.54990048 1012.64272791 1157.55416866 1001.60742092 1157.56101131 C1000.90954129 1157.56144193 1000.21166166 1157.56187254 999.49263417 1157.56231621 C996.65013155 1157.56407464 993.80762895 1157.56584429 990.96512635 1157.56762923 C956.55313428 1157.58919599 922.14114145 1157.60010104 887.72914417 1157.60910546 C876.57247129 1157.61204094 865.41579861 1157.61541103 854.25912595 1157.61907268 C853.47167202 1157.61933097 852.68421809 1157.61958926 851.87290191 1157.61985538 C848.68692473 1157.62090164 845.50094755 1157.62195007 842.31497036 1157.6230012 C787.83228336 1157.64096008 733.34959604 1157.65634005 678.86690649 1157.66376023 C674.59022991 1157.6643442 670.31355333 1157.66494146 666.03687676 1157.66553785 C665.18853263 1157.66565597 664.3401885 1157.66577409 663.46613698 1157.66589578 C654.87141485 1157.66709315 646.27669272 1157.66830192 637.6819706 1157.66952832 C635.95872284 1157.66977355 634.23547508 1157.67001741 632.51222732 1157.67025989 C577.13377695 1157.6780544 521.75534774 1157.70045208 466.37690663 1157.73293631 C426.57155264 1157.75627774 386.76620285 1157.77783111 346.96084213 1157.78494263 C346.14251959 1157.78508965 345.32419704 1157.78523667 344.48107685 1157.78538814 C326.51854169 1157.78857268 308.55600657 1157.79062377 290.59347116 1157.79161569 C283.36667894 1157.79203043 276.13988673 1157.79258533 268.91309452 1157.7931776 C267.72672089 1157.79326861 267.72672089 1157.79326861 266.51638012 1157.79336145 C241.03032255 1157.79537815 215.54428997 1157.80962135 190.05824112 1157.83012261 C164.3986674 1157.85069041 138.73912258 1157.85860429 113.07954144 1157.84904484 C109.5355128 1157.84772636 105.99148412 1157.84654832 102.44745541 1157.84545422 C101.75272276 1157.84523437 101.05799012 1157.84501452 100.34220497 1157.84478801 C89.33362781 1157.84167148 78.32510587 1157.85200869 67.3165415 1157.86792977 C56.49683639 1157.88329954 45.67721126 1157.88411257 34.85750359 1157.87038153 C29.06782039 1157.86344897 23.27832767 1157.86293743 17.48866107 1157.87994162 C12.22480049 1157.89527622 6.96128459 1157.89229821 1.69743456 1157.87453134 C-0.1979001 1157.87137389 -2.09326067 1157.8749632 -3.98856569 1157.88602309 C-21.93489589 1157.98395004 -21.93489589 1157.98395004 -29.14405918 1153.37473011 C-29.99097324 1152.91711292 -30.83788731 1152.45949574 -31.71046543 1151.98801136 C-41.85263266 1145.37873213 -48.80900461 1136.6974266 -51.78023051 1124.83481852 C-53.43676761 1115.61410284 -53.42254672 1106.48469551 -53.39574146 1097.15582657 C-53.39783023 1095.31353864 -53.40079458 1093.47125153 -53.40455019 1091.62896624 C-53.41232807 1086.56963235 -53.40768372 1081.51037493 -53.40099429 1076.4510423 C-53.39591774 1070.94563877 -53.40244197 1065.44024691 -53.40748096 1059.93484503 C-53.41470463 1050.28692714 -53.41448499 1040.63903163 -53.40938663 1030.99111271 C-53.40217972 1017.31594294 -53.40511268 1003.64079174 -53.41094472 989.96562195 C-53.42151709 965.15766752 -53.42224359 940.34972188 -53.41664982 915.54176617 C-53.41648423 914.80703074 -53.41631864 914.07229531 -53.41614803 913.31529518 C-53.41598217 912.57938222 -53.41581631 911.84346927 -53.41564542 911.08525592 C-53.41059877 888.66385342 -53.40929641 866.24245455 -53.41169071 843.8210516 C-53.41184567 842.3195211 -53.41199998 840.8179906 -53.41215365 839.3164601 C-53.41277459 833.28241811 -53.41341192 827.24837613 -53.41407318 821.21433415 C-53.41590717 804.34686578 -53.41704839 787.4793974 -53.41764545 770.61192894 C-53.41767275 769.84383279 -53.41770004 769.07573664 -53.41772816 768.28436485 C-53.41854668 743.81039383 -53.41629308 719.33642408 -53.4119463 694.86245346 C-53.4118058 694.06868832 -53.4116653 693.27492318 -53.41152055 692.45710455 C-53.40923066 679.5669217 -53.40679173 666.67673887 -53.4043402 653.78655604 C-53.39462707 602.66026355 -53.3950788 551.53398154 -53.40480137 500.40768909 C-53.40724375 487.52281381 -53.40966585 474.63793852 -53.4119463 461.7530632 C-53.41215764 460.56301039 -53.41215764 460.56301039 -53.41237326 459.3489161 C-53.41668554 434.89952328 -53.41851419 410.45013133 -53.41764545 386.00073814 C-53.4176047 384.84946051 -53.4176047 384.84946051 -53.41756313 383.67492474 C-53.41693817 366.82680131 -53.4156709 349.97867797 -53.41382445 333.13055463 C-53.41316617 327.10222712 -53.41254 321.0738996 -53.41192303 315.04557209 C-53.41176825 313.54588282 -53.41161079 312.04619355 -53.41145063 310.54650428 C-53.40906337 288.13037486 -53.41109648 265.71424953 -53.41614803 243.29812062 C-53.41631362 242.5633024 -53.41647921 241.82848418 -53.41664982 241.07139874 C-53.41681518 240.33793619 -53.41698055 239.60447365 -53.41715092 238.84878498 C-53.42266671 214.11342967 -53.42063946 189.37808492 -53.41008833 164.64273112 C-53.40420698 150.37889282 -53.40384507 136.1150795 -53.41138068 121.85124183 C-53.41585681 112.32975118 -53.41308995 102.8082806 -53.40437114 93.28679292 C-53.39960265 87.85777211 -53.39800962 82.42880101 -53.40518311 76.99978172 C-53.41164263 72.06085062 -53.40890036 67.12201334 -53.39882179 62.18308908 C-53.3968076 60.4075872 -53.39813933 58.63207755 -53.40323366 56.85658184 C-53.44750573 40.24804151 -52.33410246 25.69449721 -40.33155918 12.93723011 C-28.19009888 1.82709076 -15.76758354 -0.07342688 0 0 Z M345.85594082 246.37473011 C345.85594082 306.76473011 345.85594082 367.15473011 345.85594082 429.37473011 C387.47695769 429.4013738 387.47695769 429.4013738 429.09797573 429.42603016 C430.15045911 429.42662216 430.15045911 429.42662216 431.22420478 429.42722612 C454.85402291 429.44048149 478.48384144 429.45098066 502.11366177 429.45941639 C502.88512265 429.4596925 503.65658353 429.45996862 504.45142202 429.4602531 C521.21922497 429.46623956 537.98702803 429.47177984 554.75483128 429.47686077 C562.97831313 429.47935534 571.20179495 429.48194846 579.42527676 429.48459339 C580.24359173 429.48485491 581.06190671 429.48511643 581.90501911 429.48538587 C608.40670102 429.49390147 634.90837438 429.50891878 661.41005112 429.52732455 C688.65456355 429.54621176 715.89907125 429.5585061 743.14359011 429.56256009 C746.99580298 429.56313636 750.84801584 429.56378763 754.70022869 429.5644846 C755.83743269 429.56468687 755.83743269 429.56468687 756.99761051 429.56489322 C769.17859585 429.56725237 781.35956653 429.57651689 793.5405459 429.58839418 C805.80041073 429.60019991 818.06026109 429.60465827 830.32013141 429.60173286 C836.95714768 429.60035 843.59413001 429.60239498 850.23114109 429.61314106 C856.31629625 429.62292133 862.40137994 429.62333415 868.48653848 429.6165279 C870.67930866 429.61568751 872.87208341 429.61818387 875.06484465 429.62449647 C907.39626678 429.71210489 939.80520083 426.46267823 964.66453457 403.81613636 C982.35116739 385.69877884 987.23675778 360.36464438 987.09055996 335.85910511 C986.68079161 313.64244189 981.98944418 288.8923645 965.85594082 272.37473011 C944.01525198 252.28668914 915.92387626 246.1625072 886.8972435 246.25168228 C885.95425731 246.25052844 885.01127112 246.24937459 884.0397096 246.24818578 C880.89813833 246.24555108 877.75661891 246.25001517 874.61505032 246.25447559 C872.33279158 246.25403925 870.0505329 246.25316317 867.76827449 246.25188643 C861.51085375 246.24965392 855.25345019 246.25364574 848.99603164 246.25866449 C842.93688479 246.2625425 836.87773977 246.26170353 830.81859218 246.26098265 C818.42904472 246.25967083 806.03950261 246.26300224 793.6499567 246.26900005 C781.38663933 246.27492152 769.12332418 246.2787669 756.86000538 246.27985287 C756.09688444 246.27992161 755.3337635 246.27999035 754.54751768 246.28006117 C750.67185148 246.28039951 746.79618528 246.28070089 742.92051908 246.28098805 C715.4848476 246.28308723 688.04917902 246.28982117 660.61350918 246.29929066 C633.96376975 246.30847825 607.31403112 246.31556032 580.66429043 246.31979847 C579.84251241 246.31993 579.02073439 246.32006152 578.17405401 246.32019703 C569.92125647 246.32151558 561.66845893 246.32279139 553.41566138 246.32403589 C536.60446929 246.32657196 519.79327725 246.32939321 502.98208523 246.33238697 C502.20917102 246.33252426 501.43625681 246.33266155 500.63992096 246.332803 C476.95409948 246.33702523 453.26827848 246.34245598 429.58245754 246.34908009 C428.57395842 246.34936142 428.57395842 246.34936142 427.54508559 246.34964844 C400.31537044 246.35726294 373.08565568 246.36615739 345.85594082 246.37473011 Z M345.85594082 697.37473011 C345.85594082 763.37473011 345.85594082 829.37473011 345.85594082 897.37473011 C388.54350054 897.4147119 388.54350054 897.4147119 431.23106289 897.45168018 C431.95080244 897.45227218 432.67054199 897.45286419 433.41209183 897.45347413 C457.65798068 897.47336288 481.90387039 897.48910923 506.14976406 897.50175953 C507.33743197 897.50238079 507.33743197 897.50238079 508.54909316 897.50301459 C525.75978626 897.51199494 542.97047961 897.52030525 560.18117335 897.5279261 C568.62224173 897.53166785 577.06331004 897.53555755 585.50437832 897.53952503 C586.34433138 897.53991731 587.18428444 897.54030959 588.04969063 897.54071375 C615.23696648 897.55348008 642.42422354 897.57600074 669.61148802 897.60362177 C697.56803799 897.63197254 725.52457757 897.6503987 753.48114168 897.65647508 C757.43683952 897.65733945 761.39253733 897.65831635 765.34823513 897.65936184 C766.12671385 897.65956411 766.90519257 897.65976638 767.70726155 897.65997478 C780.19949412 897.66350923 792.69169441 897.67739438 805.18391385 897.69522621 C817.76650581 897.71296339 830.34906601 897.71961528 842.93167001 897.71523424 C849.73957754 897.71316428 856.54738545 897.71618198 863.35527706 897.73234653 C869.60361035 897.74707316 875.85178724 897.74760063 882.10012811 897.7374268 C884.34549632 897.73617159 886.59087477 897.73986813 888.83622319 897.74937966 C924.59444649 897.89189047 965.37418962 892.93122655 992.40183926 866.95383167 C1011.44778215 847.95583325 1018.92731869 825.64164701 1019.16844082 799.12473011 C1019.08711021 774.73546727 1013.4306879 749.97001779 996.85594082 731.37473011 C996.25137051 730.6876598 995.64680019 730.00058949 995.02390957 729.29269886 C971.08447628 703.74050375 933.10482556 698.50245564 899.88978314 697.26414713 C892.86811106 697.09589218 885.8471442 697.1141293 878.8239584 697.13422108 C876.50573079 697.13334631 874.18750338 697.13159038 871.869277 697.12904274 C865.5727988 697.12461837 859.27639 697.13250437 852.97992063 697.14259887 C846.86474539 697.15040596 840.74957889 697.14867243 834.63440009 697.14723518 C822.14435436 697.14462228 809.65432996 697.15123309 797.16429043 697.16327 C784.81402893 697.17514145 772.46377634 697.1828094 760.11350918 697.18497562 C759.34296377 697.1851131 758.57241837 697.18525058 757.7785231 697.18539223 C753.8646331 697.18606898 749.95074309 697.18667172 746.03685308 697.18724598 C718.38100259 697.19143654 690.72516369 697.20488247 663.06931973 697.2238512 C636.21743233 697.24224714 609.36554811 697.25640107 582.51365566 697.26486683 C581.68462315 697.26512988 580.85559063 697.26539293 580.00143592 697.26566396 C571.67525306 697.26830121 563.34907018 697.2708528 555.02288727 697.27334168 C538.06448763 697.27841285 521.1060882 697.28405535 504.14768887 697.29004383 C503.36812649 697.29031841 502.58856412 697.29059299 501.78537865 697.29087589 C477.91151843 697.29931488 454.03766017 697.31017328 430.16380215 697.32343006 C429.48656396 697.32380518 428.80932577 697.32418029 428.11156522 697.32456678 C400.69302285 697.33979043 373.27448203 697.35758297 345.85594082 697.37473011 Z " fill="#FFB600" transform="translate(3574.1440591812134,-0.37473011016845703)"/>
<path d="M0 0 C1.36585972 -0.00165464 2.73171897 -0.00374317 4.09757745 -0.0062201 C7.82489287 -0.01173224 11.55218507 -0.01112447 15.27950324 -0.00944251 C19.34478278 -0.00870634 23.41005605 -0.01374619 27.47533286 -0.01801753 C35.52689839 -0.02556958 43.5784573 -0.02778917 51.63002601 -0.02834659 C61.27960502 -0.02926302 70.92917795 -0.0359389 80.57875433 -0.04269341 C103.89957578 -0.05872841 127.22039655 -0.0646542 150.54122252 -0.06944216 C161.58332486 -0.07178098 172.62542669 -0.07538398 183.66752864 -0.07913754 C221.49808854 -0.09197188 259.32864817 -0.10269033 297.15921021 -0.10614014 C299.53258847 -0.10636177 301.90596674 -0.10658355 304.27934501 -0.10680549 C306.65832021 -0.10702613 309.03729541 -0.10724661 311.41627061 -0.10746694 C316.18856327 -0.10790948 320.96085592 -0.1083566 325.73314857 -0.10880661 C326.9163935 -0.108916 328.09963843 -0.10902539 329.31873927 -0.1091381 C367.65745447 -0.1127661 405.99615074 -0.12867706 444.3348587 -0.15199697 C484.90956004 -0.17663162 525.48425057 -0.19031469 566.0589596 -0.19150805 C570.51919977 -0.1916795 574.97943994 -0.19189492 579.4396801 -0.19214249 C581.08692369 -0.19222614 581.08692369 -0.19222614 582.76744492 -0.19231148 C600.3881409 -0.19345887 618.00881733 -0.20445435 635.62950672 -0.21902954 C653.36572345 -0.23344576 671.10191532 -0.23660276 688.8381363 -0.22858956 C699.35388341 -0.22415711 709.86954988 -0.22789752 720.38528628 -0.24382807 C727.43513422 -0.25366449 734.48492641 -0.25231839 741.53477399 -0.24239184 C745.5348775 -0.23706133 749.53482759 -0.23608557 753.53491764 -0.24890056 C812.15963355 -0.42453849 870.85675093 9.27782166 923.91967201 35.13142776 C924.61802162 35.46883987 925.31637123 35.80625198 926.03588295 36.1538887 C930.03665397 38.09463186 934.00649293 40.08891839 937.95873451 42.12654495 C939.94867468 43.14629019 941.9490659 44.14312436 943.95092201 45.13924026 C967.97194644 57.27187402 989.12957625 73.86862005 1009.19701576 91.63533401 C1010.90412817 93.11792824 1012.65468753 94.53112116 1014.41967201 95.94392776 C1015.24467201 96.66580276 1016.06967201 97.38767776 1016.91967201 98.13142776 C1016.91967201 98.79142776 1016.91967201 99.45142776 1016.91967201 100.13142776 C1017.57967201 100.13142776 1018.23967201 100.13142776 1018.91967201 100.13142776 C1020.22435951 101.42439651 1020.22435951 101.42439651 1021.79467201 103.31892776 C1024.41729403 106.42182418 1027.1213204 109.39892601 1029.93798256 112.32674026 C1043.29827724 126.34525345 1054.40183352 142.304681 1063.91967201 159.13142776 C1064.37293861 159.9256514 1064.82620522 160.71987503 1065.29320717 161.53816605 C1086.16361532 198.49754922 1095.91082454 238.96710075 1096.23217201 281.25642776 C1096.27567787 283.17648636 1096.27567787 283.17648636 1096.32006264 285.13533401 C1096.38120092 294.32488754 1095.33705996 302.948326 1089.66967201 310.50642776 C1080.13304513 319.60957161 1068.20998604 322.25884766 1055.26429272 322.25447559 C1053.30487707 322.25746217 1053.30487707 322.25746217 1051.30587727 322.26050907 C1049.86834989 322.25765653 1048.43082269 322.25471094 1046.99329567 322.25168228 C1045.45695317 322.25211858 1043.92061074 322.25299456 1042.3842687 322.25427145 C1038.17009072 322.25650493 1033.95593821 322.2525108 1029.74176347 322.24749339 C1025.19446844 322.24317262 1020.64717482 322.24463647 1016.09987831 322.24539566 C1008.2238735 322.24591986 1000.34787697 322.24278387 992.47187424 322.23715782 C981.08451341 322.2290288 969.69715658 322.22642616 958.30979317 322.22516983 C939.83429153 322.22298152 921.3587943 322.21632741 902.88329506 322.20686722 C884.9366807 322.1976874 866.99006754 322.19060935 849.04345131 322.18635941 C847.93711501 322.18609668 846.83077872 322.18583396 845.69091708 322.18556327 C840.1407211 322.18425823 834.5905251 322.18299452 829.0403291 322.18175137 C783.00010701 322.17138563 736.95988974 322.15377331 690.91967201 322.13142776 C690.77999001 321.4720018 690.640308 320.81257584 690.4963932 320.13316727 C689.85463501 317.11357874 689.20750994 314.09516413 688.56029701 311.07674026 C688.34067299 310.03944778 688.12104897 309.0021553 687.89476967 307.93342972 C684.00852042 289.87169197 676.6628958 274.61577597 660.93920326 264.14705276 C636.64407508 249.27362562 608.4172177 247.9685106 580.63587379 247.997715 C578.92839029 247.99584281 577.22090722 247.99354049 575.51342481 247.99084967 C570.85780175 247.98477549 566.20219677 247.98486006 561.54657066 247.98604405 C556.51088048 247.98624918 551.47519595 247.98071861 546.43950844 247.97598648 C536.58640252 247.96770305 526.73330259 247.96493267 516.88019348 247.9643741 C508.86394272 247.96389777 500.84769392 247.96183718 492.83144379 247.95867348 C470.06559283 247.94987259 447.29974657 247.94525312 424.53389389 247.94600395 C422.69542657 247.94606389 422.69542657 247.94606389 420.8198185 247.94612503 C419.59266353 247.94616591 418.36550856 247.94620679 417.10116708 247.94624891 C397.22978486 247.94665505 377.35842161 247.93709224 357.48704488 247.92298666 C337.04569494 247.90859192 316.60435423 247.90171821 296.16299909 247.90258044 C284.70194378 247.90291138 273.24090836 247.90020981 261.77985764 247.88940239 C252.01874813 247.88025644 242.25766753 247.87815548 232.49655557 247.88491181 C227.5256096 247.88815669 222.55471895 247.88830811 217.58377838 247.87955856 C161.96535762 246.39453994 161.96535762 246.39453994 112.91967201 269.13142776 C112.20553139 269.72310745 111.49139076 270.31478714 110.75560951 270.92439651 C96.66360658 283.68337214 90.70444847 304.01672182 89.74682045 322.46052933 C88.89507714 348.96477715 91.46394537 371.22067681 107.23217201 393.38142776 C125.67555368 412.25372528 151.59333692 419.41798022 177.33176994 420.70092583 C178.14251058 420.7419148 178.95325122 420.78290378 179.78855975 420.82513485 C191.17015878 421.34258752 202.56040308 421.27495263 213.95110512 421.26945877 C216.54815916 421.27188149 219.14521282 421.27474519 221.74226594 421.2780081 C227.35859699 421.28439324 232.97492065 421.287222 238.59125519 421.2876339 C246.94399943 421.28828296 255.29673244 421.29470428 263.64947284 421.30238069 C276.85251391 421.31442021 290.05555446 421.32310135 303.25859943 421.32941884 C324.23338945 421.3394885 345.20816342 421.35876142 366.18294375 421.38096123 C374.27020592 421.38948912 382.35746836 421.39775657 390.44473076 421.40606499 C391.34310792 421.40699 392.24148508 421.407915 393.16708579 421.40886804 C414.52553087 421.43083216 435.88397773 421.45063474 457.24242592 421.46931839 C458.64315197 421.47054791 458.64315197 421.47054791 460.07217552 421.47180227 C481.84509022 421.49087492 503.61800482 421.50784032 525.39092445 421.52016068 C526.79457127 421.52095518 526.79457127 421.52095518 528.22657458 421.52176573 C535.76942218 421.5260174 543.31226982 421.53019363 550.85511747 421.53435053 C582.02327027 421.5515862 613.191401 421.5788459 644.35953484 421.6175109 C648.77017745 421.62297163 653.18082021 421.62830477 657.59146309 421.63355255 C658.89330459 421.63510412 658.89330459 421.63510412 660.22144592 421.63668704 C674.12737485 421.65294161 688.03328819 421.65853646 701.93922573 421.65985021 C715.94117674 421.6613622 729.94308581 421.67362679 743.94501832 421.69660662 C751.51540714 421.70872646 759.0857262 421.71615149 766.65612411 421.70989418 C825.74939921 421.66593723 825.74939921 421.66593723 849.91967201 425.13142776 C850.98715282 425.28087365 852.05463363 425.43031953 853.15446234 425.58429408 C890.0399776 430.82750315 925.81336083 441.21759697 959.91967201 456.13142776 C961.22919838 456.70328812 961.22919838 456.70328812 962.56517982 457.2867012 C981.604733 465.71255515 999.94690821 476.06911196 1016.91967201 488.13142776 C1017.54808998 488.57728226 1018.17650795 489.02313675 1018.82396889 489.48250198 C1030.7924801 498.02247115 1042.0776927 507.19429322 1052.91967201 517.13142776 C1053.97026566 518.08866495 1055.02105563 519.04568671 1056.07201576 520.00252151 C1057.14645363 520.98275014 1058.22067562 521.96321545 1059.29467201 522.94392776 C1059.7947477 523.40009476 1060.29482338 523.85626175 1060.81005287 524.32625198 C1066.79757517 529.81321297 1066.79757517 529.81321297 1068.91967201 532.13142776 C1068.91967201 532.79142776 1068.91967201 533.45142776 1068.91967201 534.13142776 C1069.57967201 534.13142776 1070.23967201 534.13142776 1070.91967201 534.13142776 C1072.29467201 535.45955276 1072.29467201 535.45955276 1073.91967201 537.38142776 C1074.54615639 538.12134964 1075.17264076 538.86127151 1075.81810951 539.62361526 C1076.51162514 540.45119339 1077.20514076 541.27877151 1077.91967201 542.13142776 C1078.65443764 542.97963089 1079.38920326 543.82783401 1080.14623451 544.70174026 C1091.87582268 558.41809907 1101.96190817 573.04495143 1110.66283607 588.85261917 C1111.85366755 591.01175301 1113.06825478 593.15585751 1114.28685951 595.29939651 C1126.48196289 617.10956855 1134.44525081 641.47231998 1139.23217201 665.94392776 C1139.37952797 666.69367874 1139.52688393 667.44342972 1139.67870522 668.21590042 C1142.42919087 683.4620019 1143.21930318 698.76638668 1143.19433022 714.22542191 C1143.19869308 716.04808635 1143.20388137 717.87074897 1143.20981789 719.69340897 C1143.22305349 724.58439063 1143.22380377 729.47529429 1143.22125459 734.36629033 C1143.22017377 738.48050267 1143.22509654 742.59469992 1143.22986001 746.70890898 C1143.24090299 756.43463994 1143.24142286 766.16033226 1143.23534584 775.88606644 C1143.22931746 785.84539762 1143.2416003 795.80458711 1143.26291591 805.76389414 C1143.28066248 814.37948334 1143.28651271 822.99502799 1143.28327817 831.61063474 C1143.281485 836.72751474 1143.2839003 841.84429378 1143.29799271 846.96115685 C1143.44367831 904.83734268 1133.68120085 958.13211652 1100.91967201 1007.13142776 C1100.51184486 1007.74195999 1100.10401772 1008.35249222 1099.68383217 1008.98152542 C1089.73085163 1023.70072199 1078.24353054 1037.35141161 1065.91967201 1050.13142776 C1065.35602943 1050.71698441 1064.79238686 1051.30254105 1064.2116642 1051.90584183 C1056.83159131 1059.53042293 1049.27560082 1066.57173943 1040.91967201 1073.13142776 C1039.82496171 1074.03624961 1038.73263817 1074.9439645 1037.64232826 1075.85408401 C1022.25751736 1088.59985564 1005.36806255 1099.43402317 987.91967201 1109.13142776 C987.14252846 1109.5651973 986.3653849 1109.99896683 985.56469154 1110.44588089 C925.26945355 1143.80324639 857.04909645 1157.7237838 788.59316877 1157.51062907 C784.68797797 1157.501929 780.78281534 1157.5110701 776.87762594 1157.51769322 C770.06816483 1157.52688991 763.25877798 1157.52521661 756.44931793 1157.51596069 C746.32262538 1157.50223427 736.19598873 1157.50596759 726.0692919 1157.5129193 C707.97252793 1157.52478812 689.87579902 1157.51980368 671.77903701 1157.50764102 C655.94146735 1157.49707029 640.1039096 1157.49256992 624.26633644 1157.49393654 C623.21241095 1157.49402057 622.15848546 1157.4941046 621.07262283 1157.49419118 C616.79350735 1157.49454347 612.51439187 1157.4949275 608.2352764 1157.49535675 C568.16157811 1157.49931445 528.08790083 1157.48663875 488.01420855 1157.46583019 C452.47569237 1157.4474632 416.93719633 1157.44164869 381.39867592 1157.44710159 C379.11647421 1157.44744803 376.8342725 1157.44779413 374.5520708 1157.44813988 C373.42374853 1157.44831088 372.29542626 1157.44848187 371.13291241 1157.44865805 C365.45207836 1157.44951171 359.7712443 1157.45033548 354.09041023 1157.45112705 C352.96946199 1157.45128413 351.84851375 1157.45144121 350.69359739 1157.45160305 C320.92434578 1157.45560051 291.1550961 1157.45010757 261.38584566 1157.44161576 C258.17947084 1157.4407088 254.97309602 1157.43980315 251.76672119 1157.43890053 C249.6400505 1157.43829942 247.51337981 1157.4376908 245.38670912 1157.43707462 C230.61124062 1157.432867 215.83577592 1157.43226923 201.06030701 1157.43418012 C182.01133448 1157.43663166 162.96238231 1157.43248257 143.91341531 1157.41697011 C133.85952196 1157.40896961 123.80566248 1157.40628116 113.75176716 1157.41161247 C107.01165023 1157.41461901 100.27156289 1157.41019473 93.53145301 1157.40006389 C89.7077625 1157.39450997 85.88414031 1157.39181679 82.06044954 1157.39823047 C56.08876431 1157.43813582 30.25425252 1156.19197597 4.41967201 1153.44392776 C3.64693947 1153.362173 2.87420692 1153.28041824 2.07805824 1153.19618607 C-79.98494009 1144.35101067 -162.87999992 1118.43262411 -238.36939049 1055.65095901 C-241.41444256 1052.82090342 -244.55598085 1050.12829358 -247.75220299 1047.47127151 C-249.08032799 1046.13142776 -249.08032799 1046.13142776 -249.08032799 1044.13142776 C-249.64622643 1043.89939651 -250.21212486 1043.66736526 -250.79517174 1043.42830276 C-260.19553104 1038.093398 -267.61283596 1025.63819875 -274.08032799 1017.13142776 C-274.54616295 1016.52250687 -275.01199791 1015.91358597 -275.49194908 1015.28621292 C-312.14006066 967.18635821 -332.90359888 905.53491516 -333.39282799 845.13142776 C-333.42183189 843.93775589 -333.4508358 842.74408401 -333.48071861 841.51424026 C-333.56010806 830.35086191 -331.10571294 820.28685367 -323.08032799 812.13142776 C-305.64039051 797.73596213 -276.35818702 801.84544988 -255.14747143 801.89929652 C-250.82872942 801.90802101 -246.50999248 801.90500457 -242.19124413 801.90349197 C-234.72849011 801.90244875 -227.26577135 801.90866608 -219.8030262 801.91996765 C-209.01346348 801.93629662 -198.22391762 801.94143818 -187.43434389 801.94394363 C-169.92440187 801.9483092 -152.41447859 801.96158723 -134.90454674 801.98054886 C-117.90617529 801.99893725 -100.90780895 802.01307923 -83.90942955 802.02156448 C-82.33490893 802.02235265 -82.33490893 802.02235265 -80.7285798 802.02315675 C-75.4620741 802.02576703 -70.19556837 802.02829439 -64.9290626 802.03078055 C-21.31280475 802.05147755 22.30343266 802.08667186 65.91967201 802.13142776 C66.03929802 803.11418434 66.03929802 803.11418434 66.16134071 804.11679459 C66.53070797 807.12371997 66.90871979 810.12949974 67.28685951 813.13533401 C67.41214027 814.16581863 67.53742104 815.19630325 67.66649818 816.25801468 C70.39586261 837.75496802 80.24441135 857.06676124 97.13451576 870.81111526 C124.49601764 891.97396147 159.99628668 896.29033163 193.50638771 896.27186966 C195.39206067 896.27445682 197.27773309 896.27747095 199.16340476 896.28087306 C204.32554232 896.28890543 209.48766594 896.29073053 214.649809 896.29147053 C220.22545435 896.29332771 225.80109258 896.30087846 231.37673378 896.30760574 C243.56118858 896.32116376 255.74564007 896.3272101 267.93010116 896.3316164 C275.54684757 896.33438363 283.16359273 896.33862191 290.78033829 896.34312057 C311.89293492 896.35531092 333.00553072 896.36564538 354.11813068 896.36899567 C355.48197891 896.36921729 356.84582713 896.36943908 358.20967536 896.36966102 C359.57668647 896.36988165 360.94369759 896.37010214 362.3107087 896.37032247 C365.05284035 896.370765 367.794972 896.37121212 370.53710365 896.37166214 C371.21698648 896.37177153 371.89686931 896.37188092 372.59735465 896.37199363 C394.61843213 896.37562032 416.63947662 896.39152706 438.66054147 896.4148525 C461.9812947 896.43950912 485.30202653 896.45316455 508.6227954 896.45436358 C521.3196953 896.45527778 534.016552 896.46096529 546.71343994 896.4791832 C557.52971526 896.49464861 568.34593401 896.49966694 579.1622183 896.49144509 C584.67201061 896.48756103 590.18168925 896.48835731 595.69146729 896.50250244 C639.18991302 896.60769081 686.28488242 895.77096555 719.65795326 863.44783401 C736.75812043 844.39578673 742.74429947 819.57366406 741.82201576 794.47371292 C740.99018707 779.74341317 738.73807476 765.38660623 731.91967201 752.13142776 C731.57420326 751.4082637 731.22873451 750.68509964 730.87279701 749.94002151 C722.35402854 733.16504936 706.05614075 721.61963223 688.72435951 715.32283401 C675.41334968 711.15460198 661.8193472 708.30897012 647.91967201 707.13142776 C647.04883801 707.04933829 646.178004 706.96724881 645.28078109 706.88267177 C633.6601248 705.906095 622.05466297 705.98419278 610.4011631 705.98666763 C608.01608958 705.98352953 605.6310166 705.97995372 603.24594432 705.97598022 C598.07723011 705.96833769 592.90852243 705.96370216 587.73980331 705.96176338 C580.05246774 705.95885014 572.36514593 705.95021028 564.6778165 705.94035027 C551.73497122 705.92387007 538.7921254 705.91166557 525.84927368 705.90163231 C507.33139188 705.88717374 488.81352523 705.8644091 470.29565426 705.83996719 C462.85193369 705.83017848 455.40821277 705.8206566 447.96449184 705.8111372 C446.72403819 705.80954905 446.72403819 705.80954905 445.45852487 705.80792882 C425.78777998 705.78279522 406.1170323 705.76029418 386.44628334 705.7386055 C385.58605519 705.73765506 384.72582705 705.73670462 383.83953138 705.73572538 C363.79271935 705.71359858 343.74590649 705.6927244 323.69909096 705.6740303 C322.83817643 705.67322655 321.97726191 705.6724228 321.09025907 705.67159469 C316.74941521 705.6675441 312.40857135 705.66350248 308.06772748 705.65946143 C307.20985193 705.65866244 306.35197637 705.65786345 305.46810459 705.65704025 C303.73658766 705.65542794 302.00507073 705.65381712 300.2735538 705.65220778 C271.5856606 705.62550272 242.89778115 705.59209319 214.20990423 705.55142964 C210.14767883 705.54568093 206.08545331 705.54002213 202.02322769 705.53442574 C201.22389323 705.53332393 200.42455876 705.53222213 199.60100204 705.53108694 C186.80448831 705.51367034 174.00797869 705.50344227 161.21145557 705.49617328 C148.3167521 705.48873395 135.42207185 705.47424014 122.52738401 705.45274753 C115.55829941 705.44133526 108.58924636 705.4330023 101.62015152 705.43375587 C74.32186013 705.4338689 47.13879252 705.40804873 19.91967201 703.13142776 C18.93993113 703.05187383 17.96019025 702.97231989 16.95076025 702.89035523 C11.64021516 702.45542127 6.34170398 701.95796778 1.04467201 701.38142776 C-0.11161705 701.25787415 -0.11161705 701.25787415 -1.29126549 701.13182449 C-85.53096739 692.02779421 -173.60490997 665.42548044 -236.24829674 605.81111526 C-238.7648892 603.42989812 -241.33414368 601.14577858 -243.95532799 598.88142776 C-247.36191488 595.87124371 -250.36762911 592.69564443 -253.29517174 589.22127151 C-254.50247882 587.80790327 -255.7464067 586.4251431 -257.02173424 585.07283401 C-313.31700061 525.25263383 -327.22396656 445.01943167 -327.24829674 366.08064651 C-327.25152499 363.56028603 -327.25489011 361.03992572 -327.2583828 358.51956558 C-327.26431242 353.27828411 -327.26622901 348.03701898 -327.26563072 342.79573441 C-327.26552916 336.16395189 -327.27920336 329.53227656 -327.29640293 322.90051937 C-327.30765554 317.70694903 -327.30954596 312.51340358 -327.309021 307.31982231 C-327.31018042 304.87843137 -327.31448329 302.43703932 -327.32235336 299.99566078 C-327.55180523 221.51776906 -303.67201114 154.84786096 -247.95532799 98.75642776 C-241.60744683 92.44473374 -235.16106185 86.6116524 -228.08032799 81.13142776 C-226.99023571 80.23253234 -225.90318654 79.32993847 -224.81860924 78.42439651 C-163.34811697 27.45755063 -79.48523376 -0.11409304 0 0 Z " fill="#FFB600" transform="translate(2138.080327987671,-0.13142776489257813)"/>
<path d="M0 0 C1.69578422 -0.0037397 3.39156671 -0.0083425 5.08734649 -0.01373065 C9.73359082 -0.02593677 14.379763 -0.02570299 19.02601969 -0.02334189 C24.04258555 -0.02293312 29.05912847 -0.03397879 34.07568359 -0.04345703 C43.89972304 -0.06005561 53.72373848 -0.06556609 63.54779077 -0.06668179 C71.53657323 -0.06763293 79.52534778 -0.07174656 87.51412773 -0.07808304 C110.1789695 -0.0956934 132.84379235 -0.10492239 155.50864101 -0.10342209 C156.72999099 -0.10334218 157.95134096 -0.10326227 159.20970154 -0.10317993 C160.43254834 -0.10309817 161.65539515 -0.10301641 162.91529792 -0.10293217 C182.72385299 -0.10211964 202.53233196 -0.12124963 222.34086502 -0.14945666 C242.69501599 -0.17821117 263.04912987 -0.1919955 283.40330166 -0.19026911 C294.82454991 -0.18960603 306.2457184 -0.19506224 317.66694832 -0.21662521 C327.39327187 -0.23487091 337.11947952 -0.23915663 346.8458128 -0.22560637 C351.80376604 -0.21909345 356.76149715 -0.21889867 361.71942902 -0.23631287 C366.26776523 -0.25212333 370.81570466 -0.24909922 375.36403167 -0.2317446 C376.9999737 -0.22869213 378.63594595 -0.23224012 380.27185232 -0.24346475 C396.87964264 -0.34977171 413.44752898 1.95799962 426.03660583 13.70492554 C434.56308671 23.01170001 440.2453713 34.46612973 445.97019958 45.60726929 C448.08237827 49.71372595 450.29007663 53.75312331 452.57176208 57.76742554 C456.6258719 64.91572767 460.64032625 72.08529928 464.63426208 79.26742554 C464.95637665 79.84657715 465.27849121 80.42572876 465.61036682 81.02243042 C470.67981119 90.14227979 475.66329485 99.30661719 480.61204529 108.49252319 C484.26700696 115.25691318 488.01726743 121.96115158 491.82176208 128.64242554 C497.14789214 137.99765716 502.28447117 147.44522708 507.36888123 156.9336853 C511.39198548 164.43828978 515.48326818 171.89945264 519.63426208 179.33383179 C523.19741615 185.71646648 526.72789542 192.11717026 530.25926208 198.51742554 C530.77961029 199.46036972 530.77961029 199.46036972 531.31047058 200.42236328 C535.68938577 208.35932208 540.05088191 216.30549209 544.38426208 224.26742554 C550.97841865 236.38297813 557.64987117 248.45571196 564.31980896 260.52963257 C568.00910688 267.20849649 571.6937179 273.88994761 575.37913513 280.57095337 C576.37560553 282.3773462 577.3721084 284.18372111 578.36863708 285.99008179 C578.86242859 286.88515442 578.86242859 286.88515442 579.36619568 287.79830933 C581.40540115 291.49430703 583.44575855 295.18966647 585.48692322 298.88458252 C592.29349894 311.20594147 599.08661227 323.53398776 605.81590271 335.89779663 C609.89684286 343.38908067 614.01138613 350.86166694 618.13426208 358.32992554 C618.47035492 358.93879608 618.80644775 359.54766663 619.15272522 360.17498779 C622.59260976 366.4061892 626.03494232 372.63603492 629.47927856 378.86477661 C631.17745511 381.93611622 632.8748272 385.00789974 634.57176208 388.07992554 C634.90390717 388.68115234 635.23605225 389.28237915 635.57826233 389.90182495 C640.20071193 398.27234003 644.77911469 406.66577977 649.32176208 415.07992554 C653.06592761 422.01477125 656.84664956 428.92297952 660.73069763 435.78036499 C664.57804449 442.58377813 668.35778827 449.42450785 672.13426208 456.26742554 C672.48023438 456.89420197 672.82620667 457.52097839 673.18266296 458.16674805 C677.85519828 466.6358032 682.48251487 475.12787736 687.07176208 483.64242554 C691.75010092 492.32143681 696.56099183 500.91602683 701.43968201 509.48373413 C706.14509833 517.77695102 710.65681949 526.1678192 715.15354919 534.57553101 C718.971097 541.69435577 722.88394592 548.74983927 726.88426208 555.76742554 C732.12478927 564.9606618 737.16585068 574.24925787 742.1559906 583.58041382 C745.95061319 590.65691476 749.84227201 597.66840729 753.82176208 604.64242554 C758.71118029 613.21560059 763.43025134 621.87098105 768.07176208 630.57992554 C773.27111546 640.33425544 778.54887853 650.03645814 783.9438324 659.68392944 C787.04415816 665.24454762 790.11990711 670.81879758 793.19676208 676.39242554 C793.71333374 677.32781662 793.71333374 677.32781662 794.24034119 678.28210449 C798.89441627 686.71234047 803.50324586 695.16542972 808.07176208 703.64242554 C812.75005718 712.32145964 817.56099247 720.91602795 822.43968201 729.48373413 C827.14590495 737.77837268 831.65854696 746.17060872 836.15574646 754.57992554 C839.95042454 761.65660093 843.84211486 768.66828885 847.82176208 775.64242554 C852.98849692 784.70000226 857.94463579 793.86067677 862.84098816 803.06613159 C867.60596392 812.01862105 872.51422756 820.87707704 877.54051208 829.68539429 C882.21538356 837.90356688 886.68758782 846.22363897 891.14524841 854.56112671 C895.04415067 861.83325483 899.04785863 869.03665506 903.13426208 876.20492554 C907.50682592 883.87672206 911.72177818 891.60811495 915.80076599 899.43954468 C919.68456691 906.88414817 923.76670566 914.20991888 927.86326599 921.53890991 C930.9900698 927.14808477 934.09325221 932.77034048 937.19676208 938.39242554 C937.71265396 939.32659302 937.71265396 939.32659302 938.2389679 940.27963257 C942.89350198 948.71069224 947.50279848 957.16459959 952.07176208 965.64242554 C956.75005718 974.32145964 961.56099247 982.91602795 966.43968201 991.48373413 C971.14217968 999.77180695 975.65193192 1008.15704737 980.14476013 1016.56015015 C984.04377388 1023.83263246 988.04767823 1031.03633861 992.13426208 1038.20492554 C996.50469108 1045.8729764 1000.71943709 1053.59972453 1004.79417419 1061.42855835 C1007.51656716 1066.64982729 1010.32178377 1071.8161893 1013.19676208 1076.95492554 C1042.13811647 1128.73100853 1042.13811647 1128.73100853 1038.80613708 1142.68930054 C1036.10538999 1149.02378008 1030.76234176 1152.30003331 1024.66434437 1155.04031068 C1017.46701262 1157.82227863 1010.4063216 1157.67863061 1002.78683472 1157.62818909 C1001.3106366 1157.62949884 999.83443917 1157.63212838 998.35824543 1157.63595659 C994.31952904 1157.64264018 990.28105295 1157.63069835 986.24236715 1157.6156224 C981.8805217 1157.60263549 977.51868919 1157.60705337 973.15682983 1157.60932922 C965.60550173 1157.61090028 958.05425155 1157.6015086 950.50294304 1157.58461571 C939.58510661 1157.56020755 928.66730775 1157.55241858 917.749447 1157.54865173 C900.03484253 1157.5420901 882.32027957 1157.52213675 864.60569763 1157.4937439 C847.40029609 1157.46619587 830.19490584 1157.44496592 812.98948669 1157.43222046 C811.92848078 1157.43143229 810.86747487 1157.43064412 809.77431726 1157.42983206 C804.45142367 1157.42591688 799.12853001 1157.42212577 793.80563629 1157.41839635 C749.66514948 1157.38730942 705.52470792 1157.33448146 661.38426208 1157.26742554 C659.46271879 1153.74655926 657.54150417 1150.22551373 655.62034607 1146.70443726 C655.07965233 1145.71372726 654.53895859 1144.72301727 653.98188019 1143.70228577 C650.11330579 1136.61147902 646.26719729 1129.50929611 642.44676208 1122.39242554 C637.93995778 1114.00976952 633.42113795 1105.63384461 628.88426208 1097.26742554 C621.43086079 1083.51983967 614.02263681 1069.7480228 606.61375427 1055.97640991 C600.38480047 1044.39901704 594.15011077 1032.82490047 587.88426208 1021.26742554 C583.39259537 1012.98246239 578.91377687 1004.69070718 574.44676208 996.39242554 C573.87409607 995.32886841 573.30143005 994.26531128 572.71141052 993.16952515 C569.9533864 988.04588185 567.19763775 982.92103355 564.44699097 977.79342651 C563.47139853 975.97509558 562.49519169 974.15709592 561.51878357 972.33920288 C560.28657153 970.044629 559.05556396 967.74940778 557.82591248 965.45346069 C556.99627991 963.90924438 556.99627991 963.90924438 556.14988708 962.33383179 C555.66294373 961.42576782 555.17600037 960.51770386 554.67430115 959.5821228 C553.33670175 957.10999364 553.33670175 957.10999364 551.38426208 954.26742554 C549.15944937 953.81526601 549.15944937 953.81526601 546.52561605 953.89483005 C544.97293372 953.88471723 544.97293372 953.88471723 543.38888407 953.87440011 C542.24061372 953.88228115 541.09234338 953.89016219 539.90927696 953.89828205 C538.08490441 953.89308975 538.08490441 953.89308975 536.22367585 953.88779256 C532.8217478 953.88118081 529.42032051 953.88814969 526.01843977 953.90062696 C522.32740545 953.91088882 518.63639945 953.90382499 514.94535983 953.89889449 C508.46785252 953.89265851 501.99042767 953.89762961 495.51292992 953.90980911 C485.88105342 953.92786959 476.24922922 953.92882069 466.61733888 953.92618315 C450.41718797 953.9222357 434.21707369 953.93228743 418.01693344 953.95023537 C401.96983535 953.9679683 385.9227525 953.97952953 369.87564468 953.98279381 C368.87899883 953.98300003 367.88235297 953.98320625 366.85550573 953.98341871 C361.79433137 953.98443367 356.73315699 953.98533784 351.6719826 953.98619934 C315.79579193 953.99250559 279.9196212 954.01273163 244.04344177 954.04110718 C209.18374233 954.068647 174.32404834 954.08990443 139.46434021 954.10263062 C137.85339549 954.10322248 137.85339549 954.10322248 136.20990643 954.10382631 C125.42502116 954.10778177 114.64013585 954.11160922 103.85525051 954.11534289 C81.88393319 954.12295214 59.91261624 954.13141589 37.94129944 954.14039612 C36.4258915 954.14101392 36.4258915 954.14101392 34.87986927 954.14164421 C-32.61867476 954.16926014 -100.11720771 954.21679735 -167.61573792 954.26742554 C-167.9067337 954.85163773 -168.19772949 955.43584991 -168.49754333 956.0377655 C-171.57833441 962.22179497 -174.66214705 968.40431126 -177.74757385 974.58602905 C-178.89252591 976.88090425 -180.03675447 979.17614057 -181.18019104 981.47177124 C-187.51661491 994.19186425 -193.90681038 1006.87265728 -200.57914734 1019.42033386 C-203.30766014 1024.55296724 -205.91069341 1029.74639603 -208.49073792 1034.95492554 C-208.98557678 1035.94838989 -209.48041565 1036.94185425 -209.99024963 1037.96542358 C-211.53411218 1041.0650845 -213.07530472 1044.16605909 -214.61573792 1047.26742554 C-226.03198872 1070.25185443 -226.03198872 1070.25185443 -231.58058167 1080.69711304 C-237.66473669 1092.15236976 -243.40714335 1103.77723958 -249.17823792 1115.39242554 C-251.32289153 1119.70877027 -253.47045004 1124.02365263 -255.61964417 1128.33773804 C-256.08866653 1129.28408112 -256.5576889 1130.23042419 -257.04092407 1131.20544434 C-260.045556 1137.23593526 -263.15401597 1143.20552944 -266.31311035 1149.15606689 C-266.72812034 1149.93883216 -267.14313033 1150.72159742 -267.57071638 1151.52808285 C-268.58524274 1153.4414521 -269.60042324 1155.35447448 -270.61573792 1157.26742554 C-316.16295533 1157.35900043 -361.71016299 1157.42947411 -407.25745432 1157.47168685 C-412.63591554 1157.47668962 -418.01437658 1157.48186692 -423.39283752 1157.4871521 C-424.46358281 1157.48820134 -425.5343281 1157.48925058 -426.63752022 1157.49033162 C-443.9701079 1157.50773223 -461.30264245 1157.53926804 -478.63519863 1157.57603672 C-496.42277363 1157.61345568 -514.21032082 1157.63566342 -531.99793357 1157.64377952 C-542.97199452 1157.64926529 -553.94590532 1157.66658567 -564.91992005 1157.6990914 C-572.44735595 1157.72025106 -579.97471434 1157.72662228 -587.50217781 1157.72143105 C-591.84378979 1157.71887154 -596.18513955 1157.72276826 -600.52670479 1157.74424744 C-604.50644533 1157.76379222 -608.48574868 1157.76464457 -612.46550985 1157.75102112 C-613.900429 1157.74933875 -615.33537606 1157.7543458 -616.77024076 1157.76695827 C-627.7288906 1157.85763445 -637.90598918 1156.490144 -646.61573792 1149.26742554 C-650.95578904 1143.84236163 -652.8675586 1138.45333895 -652.80323792 1131.51742554 C-650.94189829 1115.97100932 -639.60278265 1100.47514831 -632.1552887 1087.04818726 C-629.66414454 1082.54864207 -627.20235063 1078.03317498 -624.74073792 1073.51742554 C-624.24968567 1072.61757935 -623.75863342 1071.71773315 -623.25270081 1070.7906189 C-616.99266128 1059.30865717 -610.80734506 1047.7863806 -604.61573792 1036.26742554 C-597.47229662 1022.97766452 -590.3195332 1009.69384522 -583.08399963 996.45394897 C-579.41206621 989.73364096 -575.7600007 983.00277514 -572.11573792 976.26742554 C-567.98547373 968.63384507 -563.84045281 961.00862866 -559.67823792 953.39242554 C-551.70243911 938.79078131 -543.83597739 924.13011888 -535.96730042 909.47055054 C-525.80407827 890.54876808 -525.80407827 890.54876808 -520.67823792 881.39242554 C-516.484658 873.89840752 -512.41481756 866.34033686 -508.36573792 858.76742554 C-508.04664459 858.17082123 -507.72755127 857.57421692 -507.39878845 856.95953369 C-504.52562246 851.58705052 -501.65500307 846.21320704 -498.78468323 840.83920288 C-492.663607 829.38854005 -486.49273929 817.98011331 -480.05323792 806.70492554 C-474.94757569 797.76054167 -470.13651332 788.68986318 -465.42018127 779.53500366 C-460.48126704 769.9592085 -455.33372163 760.50697686 -450.14698792 751.06381226 C-447.45166078 746.14157422 -444.78501437 741.20382384 -442.11573792 736.26742554 C-437.98569157 728.63372831 -433.84055129 721.00857342 -429.67823792 713.39242554 C-424.68957773 704.26198648 -419.75325814 695.10397538 -414.82691956 685.93978882 C-410.63243929 678.14203926 -406.40264093 670.36432837 -402.15480042 662.59555054 C-398.27974208 655.5015284 -394.44308169 648.38728775 -390.61573792 641.26742554 C-385.82707281 632.35925377 -381.00684219 623.46933816 -376.15480042 614.59555054 C-371.67516806 606.39474209 -367.24862867 598.16574349 -362.82447815 589.93490601 C-358.65538404 582.18386568 -354.44911085 574.45399833 -350.22291565 566.73397827 C-346.80925915 560.48638522 -343.44612109 554.21286418 -340.09742737 547.93026733 C-339.4577308 546.73013568 -338.81800087 545.53002181 -338.17823792 544.32992554 C-337.86107819 543.73491241 -337.54391846 543.13989929 -337.21714783 542.52685547 C-332.92227045 534.47786836 -328.51982976 526.49964147 -323.99073792 518.57992554 C-318.84848413 509.58491762 -314.01828482 500.45523812 -309.2749176 491.24447632 C-305.81859987 484.54381441 -302.25539029 477.92276643 -298.55763245 471.35287476 C-294.70338311 464.48332331 -291.00513086 457.53224968 -287.30323792 450.57992554 C-282.50658676 441.57260236 -277.60943892 432.63263129 -272.55323792 423.76742554 C-268.93165264 417.41735117 -265.42739532 411.07002761 -262.23683167 404.49008179 C-259.48455736 399.01869312 -256.50235802 393.6719528 -253.55860901 388.30184937 C-249.56576347 381.01609206 -245.61174755 373.71037991 -241.67823792 366.39242554 C-236.08926749 355.99919794 -230.48028654 345.61706961 -224.85401917 335.24398804 C-222.61606137 331.11709297 -220.3852207 326.98644297 -218.15870667 322.85336304 C-213.25386449 313.757085 -208.34468345 304.69342846 -203.06886292 295.80648804 C-201.58310926 293.21041311 -200.24460376 290.57811447 -198.92823792 287.89242554 C-196.16471204 282.26355967 -193.19389049 276.7649695 -190.17823792 271.26742554 C-185.43930554 262.62791244 -180.75915709 253.95855575 -176.11573792 245.26742554 C-170.65145774 235.04445825 -165.13449426 224.8517656 -159.57276917 214.68148804 C-156.42634712 208.92652979 -153.30064083 203.16044332 -150.17823792 197.39242554 C-149.63795959 196.3943689 -149.09768127 195.39631226 -148.54103088 194.36801147 C-147.44622124 192.34526998 -146.35149488 190.32248341 -145.2568512 188.2996521 C-142.0040581 182.28958214 -138.74834585 176.28109303 -135.49317932 170.27230835 C-132.7713473 165.24776551 -130.05022562 160.2228406 -127.33058167 155.19711304 C-121.61676694 144.64016012 -115.88843496 134.09142774 -110.13502502 123.55599976 C-106.44768716 116.80082099 -102.77842336 110.03599865 -99.11573792 103.26742554 C-94.47275532 94.68728192 -89.8143367 86.11581034 -85.1330719 77.55648804 C-82.54706531 72.82430361 -79.97722963 68.08425971 -77.43214417 63.32992554 C-49.0776354 10.4117547 -49.0776354 10.4117547 -28.65480042 3.16195679 C-18.99726631 0.319315 -9.99789394 -0.02091161 0 0 Z M-27.96339417 412.98226929 C-34.94973457 422.64422942 -35.91668512 433.63325826 -35.87643433 445.21601868 C-35.88025987 446.39271592 -35.88408542 447.56941317 -35.88802689 448.7817679 C-35.89652287 452.02582822 -35.89613751 455.2697427 -35.8918463 458.5138067 C-35.88937028 462.02104198 -35.89840402 465.52825111 -35.90588379 469.03547668 C-35.91860811 475.89770221 -35.92042735 482.75988856 -35.91808353 489.62212389 C-35.91629783 495.20153817 -35.91805539 500.7809406 -35.92230797 506.36035347 C-35.92290316 507.15555087 -35.92349835 507.95074827 -35.92411157 508.77004256 C-35.92532337 510.38566744 -35.9265375 512.00129232 -35.92775395 513.6169172 C-35.93862055 528.75480472 -35.93647104 543.89266994 -35.9303691 559.03055871 C-35.92519954 572.86809213 -35.93645798 586.70555516 -35.95546732 600.54307466 C-35.9748554 614.76575061 -35.98310009 628.98839327 -35.97934407 643.21108252 C-35.97743365 651.19034077 -35.97990415 659.1695391 -35.99405861 667.14878654 C-36.00598567 673.94086632 -36.00736239 680.73284927 -35.99526844 687.52493041 C-35.98938931 690.98747537 -35.9882534 694.44984335 -36.00027084 697.9123764 C-36.01073119 701.67236405 -36.00264256 705.43187804 -35.98995972 709.19184875 C-35.997334 710.27717437 -36.00470829 711.36249999 -36.01230603 712.48071426 C-35.94198768 722.40980417 -34.21729868 731.58389071 -27.01417542 738.89242554 C-21.84709025 743.6270234 -17.03772017 745.79475868 -9.85646057 745.58065796 C-0.92349382 744.33191135 7.31665373 739.39897092 15.07176208 735.07992554 C16.65247498 734.21174194 16.65247498 734.21174194 18.26512146 733.32601929 C24.61458911 729.83089948 30.93874724 726.29044507 37.24217224 722.71298218 C43.0993068 719.39850855 49.02213262 716.20927498 54.94676208 713.01742554 C62.89635839 708.73312976 70.78954063 704.36571432 78.63426208 699.89242554 C87.89103457 694.61756266 97.24974105 689.55088772 106.65208435 684.54244995 C113.96247996 680.64793838 121.23936942 676.71426354 128.4372406 672.61581421 C135.36704818 668.68198641 142.388996 664.91905114 149.40086365 661.13412476 C156.13749168 657.49422385 162.84348482 653.80496435 169.52757263 650.06967163 C175.6782656 646.64065172 181.87283391 643.29577783 188.07176208 639.95492554 C195.97928764 635.69096562 203.82969041 631.34186268 211.63426208 626.89242554 C220.24990587 621.98394711 228.94704203 617.24348637 237.69676208 612.57992554 C247.4510523 607.38049637 257.15329331 602.10280986 266.80076599 596.70785522 C272.36138302 593.6075301 277.93555274 590.5316311 283.50926208 587.45492554 C284.44216064 586.9398494 284.44216064 586.9398494 285.39390564 586.41436768 C293.93248993 581.70176958 302.49076384 577.02748314 311.07176208 572.39242554 C321.88548525 566.55119819 332.63184377 560.59678064 343.36228943 554.6043396 C356.93914535 547.02665527 370.55028737 539.53134916 384.25218201 532.18197632 C391.68824624 528.19051374 399.08213964 524.13184503 406.45066833 520.01742554 C412.83330497 516.45427038 419.23412708 512.92401327 425.63426208 509.39242554 C426.26089752 509.04652374 426.88753296 508.70062195 427.53315735 508.34423828 C435.59379565 503.89551749 443.66850272 499.47367581 451.75926208 495.07992554 C459.05553276 491.11716935 466.294445 487.0639321 473.50926208 482.95492554 C482.65299156 477.7499731 491.89740611 472.74927227 501.18589783 467.80923462 C509.10855882 463.59308012 516.96752374 459.28392632 524.75926208 454.82992554 C533.54876688 449.80735137 542.43915854 445.00454207 551.38426208 440.26742554 C563.39487386 433.90472886 575.28604855 427.36174502 587.07273865 420.59066772 C589.11541805 419.42132654 591.16523192 418.26653864 593.22019958 417.11898804 C603.27002749 411.74521292 603.27002749 411.74521292 609.82176208 402.89242554 C610.00738708 402.02617554 610.19301208 401.15992554 610.38426208 400.26742554 C606.73267271 396.31153705 604.66965431 394.46876312 599.31904767 394.1408637 C598.57659264 394.14012472 597.83413761 394.13938574 597.06918395 394.13862437 C596.20659844 394.13535218 595.34401293 394.13207998 594.45528847 394.12870863 C593.51039982 394.13019225 592.56551116 394.13167588 591.59198952 394.13320446 C590.07688678 394.12967611 590.07688678 394.12967611 588.53117591 394.12607649 C585.11912636 394.11937665 581.7071148 394.11984501 578.2950592 394.12025452 C575.83495347 394.1169565 573.37484828 394.11323106 570.91474378 394.10911304 C564.8448629 394.10013153 558.77499435 394.09586423 552.70510856 394.09359407 C545.43629024 394.0906331 538.1674816 394.08193623 530.89866836 394.07317979 C513.32705264 394.05232862 495.75543524 394.04186401 478.18381003 394.03305018 C469.87069166 394.0288441 461.55757401 394.02362202 453.24445625 394.01836565 C424.78715679 394.0004737 396.32985712 393.98547828 367.87255287 393.97804546 C366.08571532 393.97757071 364.29887777 393.97709482 362.51204022 393.9766178 C361.62592793 393.97638143 360.73981565 393.97614505 359.82685148 393.97590151 C355.33736204 393.97470031 350.84787261 393.97348486 346.35838318 393.97225952 C345.46742942 393.97201937 344.57647566 393.97177922 343.6585233 393.97153179 C314.7790107 393.96364086 285.89953919 393.94021416 257.02004452 393.90770358 C226.48687049 393.87339417 195.95372049 393.85369323 165.42052686 393.85040122 C162.06756106 393.84998369 158.71459527 393.84950412 155.36162949 393.84897804 C154.53603542 393.84885485 153.71044136 393.84873166 152.85982929 393.84860473 C139.581056 393.84627394 126.30233048 393.83062051 113.02357421 393.8101362 C99.67093237 393.78986504 86.31834781 393.78440697 72.96569343 393.79390683 C65.03677158 393.799117 57.10804063 393.79326735 49.17914631 393.77137216 C43.25213392 393.7562447 37.32526126 393.76212462 31.39824192 393.77604268 C29.00512363 393.77842318 26.61198691 393.77407239 24.21889682 393.76221403 C2.95061957 393.663374 -13.45849715 395.68910985 -27.96339417 412.98226929 Z " fill="#FFB600" transform="translate(668.6157379150391,-0.267425537109375)"/>
<path d="M0 0 C1.02181541 -0.00445784 2.04363082 -0.00891569 3.09641033 -0.01350862 C4.2173035 -0.01332426 5.33819667 -0.01313989 6.4930563 -0.01294994 C7.68519361 -0.01662663 8.87733093 -0.02030332 10.10559362 -0.02409142 C13.41599448 -0.03321045 16.72634579 -0.03782624 20.03675449 -0.04048073 C23.60680623 -0.04438747 27.17684366 -0.05396561 30.74688625 -0.0626936 C39.36974109 -0.08244849 47.99259708 -0.09252338 56.61546889 -0.10142139 C60.67803296 -0.10580624 64.74059572 -0.11117257 68.80315876 -0.11641026 C82.3116383 -0.13342224 95.82011704 -0.14791554 109.32860565 -0.155159 C112.8334907 -0.15706883 116.33837574 -0.15898917 119.84326077 -0.16094494 C121.14991483 -0.16167055 121.14991483 -0.16167055 122.48296594 -0.16241082 C136.58851506 -0.17070789 150.69397929 -0.19603947 164.79949135 -0.22852562 C179.28756179 -0.26162023 193.77558913 -0.27960996 208.26369756 -0.28280324 C216.39567545 -0.28496621 224.52752956 -0.2936835 232.65947056 -0.31926441 C239.58633223 -0.34100434 246.51304008 -0.34900573 253.439932 -0.33929763 C256.97148252 -0.33476228 260.50271587 -0.33659389 264.0342226 -0.35605907 C267.8707285 -0.37702183 271.706801 -0.3666752 275.54334927 -0.35352612 C276.64862738 -0.36449536 277.7539055 -0.37546461 278.89267689 -0.38676625 C289.04803896 -0.30298141 297.95544566 2.07494416 305.36889553 9.30609608 C310.417309 15.0969233 310.34691378 20.71806617 310.55639553 28.14593983 C309.75596483 37.59804781 303.77652632 46.62780452 299.08764553 54.63422108 C293.96539247 63.53135194 289.0331239 72.50922174 284.21264553 81.57172108 C280.05679558 89.37432123 275.88710316 97.16228394 271.51537991 104.84662342 C267.68205635 111.59362456 263.95273907 118.39778906 260.21264553 125.19672108 C255.2308929 134.25248423 250.2010309 143.27684809 245.08764553 152.25922108 C240.76022518 159.86790117 236.59170265 167.53996233 232.54785061 175.30267811 C228.64577584 182.78250753 224.5529465 190.14836682 220.43188381 197.50922108 C212.46332339 211.7461705 204.53818538 226.00025479 196.83764553 240.38422108 C191.94305596 249.52618175 186.91889943 258.58197143 181.786376 267.59222889 C177.35444251 275.39081777 173.0804318 283.2683658 168.83080959 291.1674242 C165.19045366 297.91593305 161.45130871 304.60018092 157.65014553 311.25922108 C152.22638998 320.7706363 147.05687731 330.40234523 141.93371487 340.07733631 C137.04428539 349.30510989 132.0147885 358.43458103 126.83251858 367.502141 C122.17634522 375.6804668 117.72912995 383.96432568 113.30422878 392.26892567 C109.16182538 400.04304139 104.9727404 407.78532281 100.66894436 415.47137928 C97.20875622 421.66115237 93.83207866 427.89465639 90.46264553 434.13422108 C86.34468489 441.7558675 82.19665841 449.35804574 77.97778225 456.92426014 C73.99532842 464.06706538 70.03895464 471.2241578 66.08764553 478.38422108 C65.74183437 479.01067524 65.39602322 479.6371294 65.03973293 480.28256702 C60.09950562 489.23379323 55.1979763 498.20542643 50.31933498 507.19037342 C46.87859271 513.50660557 43.34010977 519.76246751 39.77514553 526.00922108 C34.0075954 536.12777646 28.53456791 546.39048003 23.09500027 556.6873827 C18.89073226 564.64517574 14.66768893 572.58224416 10.20507717 580.39911366 C6.93432842 586.13956353 3.79094806 591.94683663 0.65014553 597.75922108 C0.10060207 598.77508289 -0.44894138 599.79094471 -1.01513767 600.83759022 C-3.24506531 604.96147363 -5.47351739 609.08612205 -7.69458103 613.21478748 C-9.28425237 616.16914077 -10.87920665 619.12059252 -12.47485447 622.07172108 C-12.94640965 622.9523119 -13.41796482 623.83290272 -13.90380955 624.74017811 C-25.22834387 645.64176951 -25.22834387 645.64176951 -33.66235447 648.25922108 C-37.03735447 648.13422108 -37.03735447 648.13422108 -39.41235447 646.38422108 C-41.70635645 643.20791064 -42.16240198 640.71498401 -42.16615564 636.90256792 C-42.16942783 636.03311676 -42.17270002 635.16366559 -42.17607138 634.26786742 C-42.17458775 633.31015398 -42.17310413 632.35244054 -42.17157555 631.36570549 C-42.17510389 629.83623937 -42.17510389 629.83623937 -42.17870352 628.27587494 C-42.18541299 624.82524988 -42.18493471 621.37466231 -42.18452549 617.92403126 C-42.18782291 615.4386144 -42.19154822 612.95319807 -42.19566697 610.46778244 C-42.20465415 604.33148043 -42.20891685 598.19518971 -42.21118593 592.05888201 C-42.21414523 584.71146666 -42.2228411 577.36406092 -42.23160021 570.01665061 C-42.25245814 552.25454009 -42.262917 534.4924279 -42.27172982 516.73030798 C-42.27593489 508.32839281 -42.28115711 499.92647835 -42.28641435 491.52456378 C-42.30430677 462.76774761 -42.3193026 434.01093124 -42.32673454 405.25411034 C-42.3272093 403.44823853 -42.32768519 401.64236672 -42.3281622 399.83649492 C-42.32839858 398.94093611 -42.32863496 398.0453773 -42.3288785 397.12268034 C-42.3300797 392.58526749 -42.33129515 388.04785463 -42.33252048 383.51044178 C-42.33276063 382.60997456 -42.33300078 381.70950734 -42.33324821 380.78175324 C-42.34114003 351.59056738 -42.36456831 322.39942217 -42.39707643 293.20825406 C-42.43137698 262.35122688 -42.45108596 231.49422349 -42.45437878 200.63717693 C-42.45479633 197.24940613 -42.45527589 193.86163534 -42.45580196 190.47386456 C-42.45592516 189.63969024 -42.45604835 188.80551593 -42.45617527 187.94606361 C-42.45850717 174.52271649 -42.47416673 161.09941657 -42.49464381 147.67608628 C-42.51490345 134.1810908 -42.52037848 120.68615199 -42.51087318 107.19114412 C-42.50565854 99.17515808 -42.51153384 91.15936076 -42.53340785 83.1434019 C-42.54851285 77.15506662 -42.54267082 71.16694327 -42.52873733 65.1785972 C-42.52635313 62.75789398 -42.53072666 60.33717262 -42.54256598 57.91649718 C-42.64913822 34.68647637 -42.64913822 34.68647637 -38.03735447 25.13422108 C-37.53075291 24.05785389 -37.02415134 22.9814867 -36.50219822 21.87250233 C-29.78355313 11.20171307 -21.23004653 4.4541113 -9.03735447 1.13422108 C-8.43154043 0.95845423 -7.8257264 0.78268738 -7.20155436 0.60159427 C-4.74440299 0.07095628 -2.51431707 0.00509531 0 0 Z " fill="#FFB600" transform="translate(42.037354469299316,-0.13422107696533203)"/>
</svg>
