<svg xmlns="http://www.w3.org/2000/svg" xmlns:xlink="http://www.w3.org/1999/xlink" width="400" zoomAndPan="magnify" viewBox="0 0 300 74.999997" height="100" preserveAspectRatio="xMidYMid meet" version="1.0"><defs><g/><clipPath id="997aa4f437"><rect x="0" width="91" y="0" height="59"/></clipPath><clipPath id="4240ff54f1"><path d="M 163 24 L 179.441406 24 L 179.441406 46 L 163 46 Z M 163 24 " clip-rule="nonzero"/></clipPath><clipPath id="fe32677fe2"><rect x="0" width="180" y="0" height="70"/></clipPath></defs><rect x="-30" width="360" fill="#ffffff" y="-7.5" height="89.999996" fill-opacity="1"/><rect x="-30" width="360" fill="#ffffff" y="-7.5" height="89.999996" fill-opacity="1"/><g transform="matrix(1, 0, 0, 1, 15, 6)"><g clip-path="url(#997aa4f437)"><g fill="#006d77" fill-opacity="1"><g transform="translate(0.984312, 41.901003)"><g><path d="M 20.714844 -16.214844 C 23.6875 -16.980469 25.640625 -19.316406 25.640625 -22.5 C 25.640625 -26.746094 22.160156 -30.140625 14.519531 -30.140625 L 2.757812 -30.140625 C 2.164062 -30.140625 1.742188 -29.84375 1.742188 -29.332031 L 1.742188 -29.164062 C 1.742188 -27.976562 3.4375 -27.464844 3.4375 -25.511719 L 3.4375 -4.628906 C 3.4375 -2.675781 1.742188 -2.164062 1.742188 -0.976562 L 1.742188 -0.804688 C 1.742188 -0.296875 2.164062 0 2.757812 0 L 14.390625 0 C 24.195312 0 28.613281 -3.480469 28.613281 -8.492188 C 28.613281 -12.566406 25.597656 -15.539062 20.714844 -16.214844 Z M 11.078125 -24.960938 C 11.078125 -26.660156 11.972656 -27.167969 13.074219 -27.167969 L 14.261719 -27.167969 C 17.148438 -27.167969 19.0625 -25.046875 19.0625 -21.394531 C 19.0625 -18.976562 17.660156 -17.40625 15.496094 -17.40625 L 13.371094 -17.40625 C 12.015625 -17.40625 11.078125 -18.210938 11.078125 -19.613281 Z M 16.300781 -2.972656 L 14.261719 -2.972656 C 12.3125 -2.972656 11.078125 -4.542969 11.078125 -6.578125 L 11.078125 -14.433594 L 12.863281 -14.433594 C 17.957031 -14.433594 20.546875 -10.527344 20.546875 -7.386719 C 20.546875 -4.753906 19.019531 -2.972656 16.300781 -2.972656 Z M 16.300781 -2.972656 "/></g></g></g><g fill="#006d77" fill-opacity="1"><g transform="translate(28.402731, 41.901003)"><g><path d="M 21.226562 -4.628906 L 20.292969 -12.226562 C 19.613281 -17.488281 15.664062 -20.800781 9.976562 -20.800781 C 5.644531 -20.800781 1.484375 -19.316406 1.484375 -15.835938 C 1.484375 -14.179688 2.675781 -13.074219 4.457031 -13.074219 C 8.234375 -13.074219 7.046875 -18.761719 9.976562 -18.761719 C 12.183594 -18.761719 12.480469 -16.597656 12.988281 -11.589844 L 12.988281 -11.460938 C 11.929688 -12.097656 10.484375 -12.523438 8.703125 -12.523438 C 4.667969 -12.523438 1.0625 -10.316406 1.0625 -6.027344 C 1.0625 -1.65625 4.542969 0.425781 9.085938 0.425781 C 11.886719 0.425781 13.585938 -0.550781 14.476562 -1.78125 C 14.816406 -0.253906 16.046875 0.253906 18.59375 0.253906 C 20.929688 0.253906 23.390625 -0.0429688 23.390625 -1.144531 C 23.390625 -2.335938 21.609375 -1.613281 21.226562 -4.628906 Z M 11.417969 -1.742188 C 9.679688 -1.742188 8.660156 -4.371094 8.660156 -7.386719 C 8.660156 -9.128906 9.550781 -10.273438 10.824219 -10.273438 C 12.054688 -10.273438 13.160156 -9.296875 13.457031 -6.75 L 13.625 -4.796875 C 13.625 -3.355469 12.820312 -1.742188 11.417969 -1.742188 Z M 11.417969 -1.742188 "/></g></g></g><g fill="#006d77" fill-opacity="1"><g transform="translate(49.709213, 41.901003)"><g><path d="M 10.316406 0.382812 C 16.214844 0.382812 19.570312 -2.335938 19.570312 -5.859375 C 19.570312 -13.667969 8.703125 -10.613281 8.703125 -16.429688 C 8.703125 -17.660156 9.382812 -18.847656 10.699219 -18.847656 C 13.625 -18.847656 12.269531 -13.117188 16.386719 -13.117188 C 17.957031 -13.117188 19.230469 -14.222656 19.230469 -15.707031 C 19.230469 -18.464844 15.707031 -20.800781 10.316406 -20.800781 C 5.007812 -20.800781 1.359375 -18.125 1.359375 -14.347656 C 1.359375 -6.113281 12.609375 -9.382812 12.609375 -3.820312 C 12.609375 -2.121094 11.589844 -1.484375 10.316406 -1.484375 C 6.792969 -1.484375 8.234375 -7.300781 3.992188 -7.300781 C 2.292969 -7.300781 0.976562 -6.496094 0.976562 -4.585938 C 0.976562 -1.613281 4.964844 0.382812 10.316406 0.382812 Z M 10.316406 0.382812 "/></g></g></g><g fill="#006d77" fill-opacity="1"><g transform="translate(68.171936, 41.901003)"><g><path d="M 18.464844 -6.707031 C 17.703125 -5.6875 16.046875 -4.839844 14.222656 -4.839844 C 12.140625 -4.839844 10.484375 -5.859375 9.382812 -7.597656 L 17.828125 -12.351562 C 18.804688 -12.863281 19.484375 -13.710938 19.484375 -14.984375 C 19.484375 -17.660156 16.9375 -20.800781 11.375 -20.800781 C 5.816406 -20.800781 0.933594 -16.597656 0.933594 -10.316406 C 0.933594 -3.863281 5.265625 0.425781 11.417969 0.425781 C 16.980469 0.425781 19.953125 -3.777344 20.035156 -6.113281 C 20.078125 -7.046875 19.0625 -7.300781 18.464844 -6.707031 Z M 10.613281 -18.722656 C 12.777344 -18.722656 13.457031 -15.707031 13.457031 -14.347656 C 13.457031 -13.457031 13.03125 -12.652344 12.351562 -12.183594 L 8.40625 -9.804688 C 7.980469 -11.078125 7.769531 -12.609375 7.769531 -14.261719 C 7.769531 -16.726562 8.871094 -18.722656 10.613281 -18.722656 Z M 10.613281 -18.722656 "/></g></g></g></g></g><g transform="matrix(1, 0, 0, 1, 104, 4)"><g clip-path="url(#fe32677fe2)"><g fill="#1f2933" fill-opacity="1"><g transform="translate(0.357444, 45.169661)"><g><path d="M 26.171875 -20.171875 C 27.804688 -20.171875 29.164062 -19.816406 30.25 -19.109375 C 31.34375 -18.410156 32.160156 -17.457031 32.703125 -16.25 C 33.242188 -15.050781 33.515625 -13.691406 33.515625 -12.171875 L 33.515625 0 L 29.609375 0 L 29.609375 -10.890625 C 29.609375 -12.691406 29.273438 -14.144531 28.609375 -15.25 C 27.953125 -16.351562 26.835938 -16.90625 25.265625 -16.90625 C 24.128906 -16.90625 23.1875 -16.609375 22.4375 -16.015625 C 21.695312 -15.421875 21.15625 -14.640625 20.8125 -13.671875 C 20.46875 -12.703125 20.296875 -11.679688 20.296875 -10.609375 L 20.296875 0 L 16.40625 0 L 16.40625 -11.6875 C 16.40625 -13.34375 16.078125 -14.625 15.421875 -15.53125 C 14.773438 -16.445312 13.722656 -16.90625 12.265625 -16.90625 C 11.328125 -16.90625 10.46875 -16.632812 9.6875 -16.09375 C 8.914062 -15.550781 8.316406 -14.789062 7.890625 -13.8125 C 7.460938 -12.832031 7.25 -11.707031 7.25 -10.4375 L 7.25 0 L 3.359375 0 L 3.359375 -15.40625 C 3.359375 -17.09375 3.300781 -18.503906 3.1875 -19.640625 L 6.875 -19.640625 C 6.988281 -18.304688 7.046875 -17.226562 7.046875 -16.40625 L 7.171875 -16.40625 C 7.691406 -17.507812 8.503906 -18.410156 9.609375 -19.109375 C 10.710938 -19.816406 11.984375 -20.171875 13.421875 -20.171875 C 14.796875 -20.171875 16.007812 -19.851562 17.0625 -19.21875 C 18.113281 -18.582031 18.929688 -17.585938 19.515625 -16.234375 C 20.148438 -17.472656 21.0625 -18.4375 22.25 -19.125 C 23.4375 -19.820312 24.742188 -20.171875 26.171875 -20.171875 Z M 26.171875 -20.171875 "/></g></g></g><g fill="#1f2933" fill-opacity="1"><g transform="translate(33.69874, 45.169661)"><g><path d="M 12.640625 0.53125 C 10.648438 0.53125 8.851562 0.0820312 7.25 -0.8125 C 5.644531 -1.707031 4.378906 -2.941406 3.453125 -4.515625 C 2.535156 -6.085938 2.078125 -7.867188 2.078125 -9.859375 C 2.078125 -11.847656 2.535156 -13.617188 3.453125 -15.171875 C 4.378906 -16.734375 5.644531 -17.957031 7.25 -18.84375 C 8.851562 -19.726562 10.648438 -20.171875 12.640625 -20.171875 C 14.617188 -20.171875 16.414062 -19.726562 18.03125 -18.84375 C 19.65625 -17.957031 20.925781 -16.734375 21.84375 -15.171875 C 22.769531 -13.617188 23.234375 -11.847656 23.234375 -9.859375 C 23.234375 -7.867188 22.769531 -6.085938 21.84375 -4.515625 C 20.925781 -2.941406 19.65625 -1.707031 18.03125 -0.8125 C 16.414062 0.0820312 14.617188 0.53125 12.640625 0.53125 Z M 12.640625 -2.734375 C 13.984375 -2.734375 15.148438 -3.054688 16.140625 -3.703125 C 17.140625 -4.359375 17.894531 -5.226562 18.40625 -6.3125 C 18.914062 -7.40625 19.171875 -8.585938 19.171875 -9.859375 C 19.171875 -11.128906 18.914062 -12.300781 18.40625 -13.375 C 17.894531 -14.457031 17.140625 -15.320312 16.140625 -15.96875 C 15.148438 -16.613281 13.984375 -16.9375 12.640625 -16.9375 C 11.285156 -16.9375 10.113281 -16.613281 9.125 -15.96875 C 8.144531 -15.320312 7.394531 -14.457031 6.875 -13.375 C 6.351562 -12.300781 6.09375 -11.128906 6.09375 -9.859375 C 6.09375 -8.585938 6.351562 -7.40625 6.875 -6.3125 C 7.394531 -5.226562 8.144531 -4.359375 9.125 -3.703125 C 10.113281 -3.054688 11.285156 -2.734375 12.640625 -2.734375 Z M 12.640625 -2.734375 "/></g></g></g><g fill="#1f2933" fill-opacity="1"><g transform="translate(55.567308, 45.169661)"><g><path d="M 3.359375 -15.40625 C 3.359375 -17.09375 3.300781 -18.503906 3.1875 -19.640625 L 6.875 -19.640625 C 6.988281 -18.304688 7.046875 -17.195312 7.046875 -16.3125 L 7.171875 -16.3125 C 7.722656 -17.476562 8.535156 -18.410156 9.609375 -19.109375 C 10.679688 -19.816406 11.867188 -20.171875 13.171875 -20.171875 C 13.773438 -20.171875 14.285156 -20.113281 14.703125 -20 L 14.546875 -16.40625 C 13.984375 -16.539062 13.390625 -16.609375 12.765625 -16.609375 C 11.578125 -16.609375 10.566406 -16.316406 9.734375 -15.734375 C 8.898438 -15.160156 8.273438 -14.394531 7.859375 -13.4375 C 7.453125 -12.488281 7.25 -11.445312 7.25 -10.3125 L 7.25 0 L 3.359375 0 Z M 3.359375 -15.40625 "/></g></g></g><g fill="#1f2933" fill-opacity="1"><g transform="translate(67.164277, 45.169661)"><g><path d="M 9.609375 0.328125 C 7.753906 0.328125 6.335938 -0.1875 5.359375 -1.21875 C 4.378906 -2.257812 3.890625 -3.785156 3.890625 -5.796875 L 3.890625 -16.4375 L 0.125 -16.4375 L 0.125 -19.640625 L 3.890625 -19.640625 L 3.890625 -25.265625 L 7.75 -25.265625 L 7.75 -19.640625 L 12.96875 -19.640625 L 12.96875 -16.4375 L 7.75 -16.4375 L 7.75 -6.21875 C 7.75 -5.03125 7.96875 -4.179688 8.40625 -3.671875 C 8.851562 -3.160156 9.554688 -2.90625 10.515625 -2.90625 C 10.878906 -2.90625 11.265625 -2.941406 11.671875 -3.015625 C 12.085938 -3.097656 12.460938 -3.222656 12.796875 -3.390625 L 12.921875 -0.203125 C 11.929688 0.148438 10.828125 0.328125 9.609375 0.328125 Z M 9.609375 0.328125 "/></g></g></g><g fill="#1f2933" fill-opacity="1"><g transform="translate(77.394463, 45.169661)"><g><path d="M 12.015625 9.9375 C 10.296875 9.9375 8.566406 9.617188 6.828125 8.984375 C 5.085938 8.347656 3.613281 7.476562 2.40625 6.375 L 4.890625 3.359375 C 5.742188 4.328125 6.816406 5.097656 8.109375 5.671875 C 9.410156 6.253906 10.722656 6.546875 12.046875 6.546875 C 14.484375 6.546875 16.242188 5.890625 17.328125 4.578125 C 18.421875 3.265625 18.96875 1.503906 18.96875 -0.703125 L 18.96875 -3.234375 L 18.890625 -3.234375 C 18.171875 -2.148438 17.1875 -1.3125 15.9375 -0.71875 C 14.695312 -0.125 13.375 0.171875 11.96875 0.171875 C 10.007812 0.171875 8.273438 -0.273438 6.765625 -1.171875 C 5.265625 -2.078125 4.109375 -3.296875 3.296875 -4.828125 C 2.484375 -6.359375 2.078125 -8.0625 2.078125 -9.9375 C 2.078125 -11.820312 2.484375 -13.539062 3.296875 -15.09375 C 4.109375 -16.65625 5.257812 -17.890625 6.75 -18.796875 C 8.238281 -19.710938 9.960938 -20.171875 11.921875 -20.171875 C 13.390625 -20.171875 14.757812 -19.851562 16.03125 -19.21875 C 17.300781 -18.582031 18.296875 -17.671875 19.015625 -16.484375 L 19.09375 -16.484375 L 19.09375 -19.640625 L 22.859375 -19.640625 L 22.859375 -1 C 22.859375 1.050781 22.503906 2.890625 21.796875 4.515625 C 21.097656 6.140625 19.941406 7.445312 18.328125 8.4375 C 16.710938 9.4375 14.609375 9.9375 12.015625 9.9375 Z M 12.59375 -3.109375 C 13.894531 -3.109375 15.054688 -3.410156 16.078125 -4.015625 C 17.097656 -4.617188 17.882812 -5.445312 18.4375 -6.5 C 18.988281 -7.550781 19.265625 -8.726562 19.265625 -10.03125 C 19.265625 -11.269531 18.976562 -12.421875 18.40625 -13.484375 C 17.84375 -14.546875 17.054688 -15.382812 16.046875 -16 C 15.046875 -16.625 13.894531 -16.9375 12.59375 -16.9375 C 11.269531 -16.9375 10.113281 -16.625 9.125 -16 C 8.144531 -15.382812 7.394531 -14.550781 6.875 -13.5 C 6.351562 -12.445312 6.09375 -11.289062 6.09375 -10.03125 C 6.09375 -8.8125 6.351562 -7.671875 6.875 -6.609375 C 7.394531 -5.546875 8.144531 -4.695312 9.125 -4.0625 C 10.113281 -3.425781 11.269531 -3.109375 12.59375 -3.109375 Z M 12.59375 -3.109375 "/></g></g></g><g fill="#1f2933" fill-opacity="1"><g transform="translate(100.174226, 45.169661)"><g><path d="M 9.03125 0.5 C 7.894531 0.5 6.78125 0.300781 5.6875 -0.09375 C 4.601562 -0.5 3.703125 -1.15625 2.984375 -2.0625 C 2.265625 -2.976562 1.90625 -4.140625 1.90625 -5.546875 C 1.90625 -7.398438 2.53125 -8.804688 3.78125 -9.765625 C 5.039062 -10.734375 6.644531 -11.375 8.59375 -11.6875 C 10.539062 -12.007812 12.828125 -12.171875 15.453125 -12.171875 L 15.578125 -12.171875 L 15.578125 -12.71875 C 15.578125 -14.125 15.140625 -15.191406 14.265625 -15.921875 C 13.398438 -16.660156 12.222656 -17.03125 10.734375 -17.03125 C 9.648438 -17.03125 8.617188 -16.820312 7.640625 -16.40625 C 6.660156 -15.988281 5.828125 -15.4375 5.140625 -14.75 L 3.0625 -17.234375 C 4.03125 -18.140625 5.21875 -18.851562 6.625 -19.375 C 8.03125 -19.90625 9.519531 -20.171875 11.09375 -20.171875 C 12.914062 -20.171875 14.441406 -19.835938 15.671875 -19.171875 C 16.898438 -18.515625 17.8125 -17.601562 18.40625 -16.4375 C 19 -15.28125 19.296875 -13.957031 19.296875 -12.46875 L 19.296875 -3.890625 C 19.296875 -2.179688 19.394531 -0.882812 19.59375 0 L 16.078125 0 C 15.847656 -0.9375 15.734375 -1.875 15.734375 -2.8125 L 15.609375 -2.8125 C 14.898438 -1.738281 13.988281 -0.914062 12.875 -0.34375 C 11.769531 0.21875 10.488281 0.5 9.03125 0.5 Z M 9.90625 -2.5625 C 11.09375 -2.5625 12.113281 -2.8125 12.96875 -3.3125 C 13.820312 -3.8125 14.46875 -4.492188 14.90625 -5.359375 C 15.351562 -6.234375 15.578125 -7.222656 15.578125 -8.328125 L 15.578125 -9.359375 L 14.625 -9.359375 C 12.113281 -9.359375 10.023438 -9.109375 8.359375 -8.609375 C 6.703125 -8.117188 5.875 -7.128906 5.875 -5.640625 C 5.875 -4.554688 6.257812 -3.769531 7.03125 -3.28125 C 7.8125 -2.800781 8.769531 -2.5625 9.90625 -2.5625 Z M 9.90625 -2.5625 "/></g></g></g><g fill="#1f2933" fill-opacity="1"><g transform="translate(119.226403, 45.169661)"><g><path d="M 12.015625 9.9375 C 10.296875 9.9375 8.566406 9.617188 6.828125 8.984375 C 5.085938 8.347656 3.613281 7.476562 2.40625 6.375 L 4.890625 3.359375 C 5.742188 4.328125 6.816406 5.097656 8.109375 5.671875 C 9.410156 6.253906 10.722656 6.546875 12.046875 6.546875 C 14.484375 6.546875 16.242188 5.890625 17.328125 4.578125 C 18.421875 3.265625 18.96875 1.503906 18.96875 -0.703125 L 18.96875 -3.234375 L 18.890625 -3.234375 C 18.171875 -2.148438 17.1875 -1.3125 15.9375 -0.71875 C 14.695312 -0.125 13.375 0.171875 11.96875 0.171875 C 10.007812 0.171875 8.273438 -0.273438 6.765625 -1.171875 C 5.265625 -2.078125 4.109375 -3.296875 3.296875 -4.828125 C 2.484375 -6.359375 2.078125 -8.0625 2.078125 -9.9375 C 2.078125 -11.820312 2.484375 -13.539062 3.296875 -15.09375 C 4.109375 -16.65625 5.257812 -17.890625 6.75 -18.796875 C 8.238281 -19.710938 9.960938 -20.171875 11.921875 -20.171875 C 13.390625 -20.171875 14.757812 -19.851562 16.03125 -19.21875 C 17.300781 -18.582031 18.296875 -17.671875 19.015625 -16.484375 L 19.09375 -16.484375 L 19.09375 -19.640625 L 22.859375 -19.640625 L 22.859375 -1 C 22.859375 1.050781 22.503906 2.890625 21.796875 4.515625 C 21.097656 6.140625 19.941406 7.445312 18.328125 8.4375 C 16.710938 9.4375 14.609375 9.9375 12.015625 9.9375 Z M 12.59375 -3.109375 C 13.894531 -3.109375 15.054688 -3.410156 16.078125 -4.015625 C 17.097656 -4.617188 17.882812 -5.445312 18.4375 -6.5 C 18.988281 -7.550781 19.265625 -8.726562 19.265625 -10.03125 C 19.265625 -11.269531 18.976562 -12.421875 18.40625 -13.484375 C 17.84375 -14.546875 17.054688 -15.382812 16.046875 -16 C 15.046875 -16.625 13.894531 -16.9375 12.59375 -16.9375 C 11.269531 -16.9375 10.113281 -16.625 9.125 -16 C 8.144531 -15.382812 7.394531 -14.550781 6.875 -13.5 C 6.351562 -12.445312 6.09375 -11.289062 6.09375 -10.03125 C 6.09375 -8.8125 6.351562 -7.671875 6.875 -6.609375 C 7.394531 -5.546875 8.144531 -4.695312 9.125 -4.0625 C 10.113281 -3.425781 11.269531 -3.109375 12.59375 -3.109375 Z M 12.59375 -3.109375 "/></g></g></g><g fill="#1f2933" fill-opacity="1"><g transform="translate(142.006166, 45.169661)"><g><path d="M 12.421875 0.53125 C 10.429688 0.53125 8.65625 0.0976562 7.09375 -0.765625 C 5.539062 -1.640625 4.316406 -2.851562 3.421875 -4.40625 C 2.523438 -5.96875 2.078125 -7.757812 2.078125 -9.78125 C 2.078125 -11.789062 2.515625 -13.582031 3.390625 -15.15625 C 4.273438 -16.726562 5.488281 -17.957031 7.03125 -18.84375 C 8.582031 -19.726562 10.3125 -20.171875 12.21875 -20.171875 C 14.125 -20.171875 15.785156 -19.753906 17.203125 -18.921875 C 18.628906 -18.097656 19.726562 -16.921875 20.5 -15.390625 C 21.269531 -13.859375 21.65625 -12.054688 21.65625 -9.984375 C 21.65625 -9.398438 21.644531 -8.957031 21.625 -8.65625 L 6.046875 -8.65625 C 6.078125 -7.550781 6.390625 -6.539062 6.984375 -5.625 C 7.578125 -4.71875 8.347656 -4 9.296875 -3.46875 C 10.253906 -2.945312 11.296875 -2.6875 12.421875 -2.6875 C 13.691406 -2.6875 14.8125 -2.960938 15.78125 -3.515625 C 16.75 -4.066406 17.535156 -4.785156 18.140625 -5.671875 L 20.875 -3.484375 C 18.800781 -0.804688 15.984375 0.53125 12.421875 0.53125 Z M 17.734375 -11.5625 C 17.703125 -12.601562 17.472656 -13.546875 17.046875 -14.390625 C 16.617188 -15.234375 15.992188 -15.894531 15.171875 -16.375 C 14.359375 -16.863281 13.375 -17.109375 12.21875 -17.109375 C 11.113281 -17.109375 10.101562 -16.859375 9.1875 -16.359375 C 8.28125 -15.859375 7.550781 -15.1875 7 -14.34375 C 6.445312 -13.507812 6.128906 -12.582031 6.046875 -11.5625 Z M 17.734375 -11.5625 "/></g></g></g><g clip-path="url(#4240ff54f1)"><g fill="#1f2933" fill-opacity="1"><g transform="translate(162.342279, 45.169661)"><g><path d="M 8.984375 0.53125 C 7.441406 0.53125 5.960938 0.226562 4.546875 -0.375 C 3.140625 -0.976562 1.984375 -1.847656 1.078125 -2.984375 L 3.859375 -5.34375 C 4.378906 -4.539062 5.113281 -3.882812 6.0625 -3.375 C 7.019531 -2.863281 8.023438 -2.609375 9.078125 -2.609375 C 10.179688 -2.609375 11.101562 -2.832031 11.84375 -3.28125 C 12.59375 -3.738281 12.96875 -4.46875 12.96875 -5.46875 C 12.96875 -6.050781 12.78125 -6.535156 12.40625 -6.921875 C 12.03125 -7.304688 11.484375 -7.628906 10.765625 -7.890625 C 10.046875 -8.148438 9.066406 -8.429688 7.828125 -8.734375 C 6.753906 -8.984375 5.804688 -9.300781 4.984375 -9.6875 C 4.171875 -10.070312 3.488281 -10.628906 2.9375 -11.359375 C 2.382812 -12.097656 2.109375 -13.035156 2.109375 -14.171875 C 2.109375 -15.523438 2.453125 -16.648438 3.140625 -17.546875 C 3.835938 -18.441406 4.75 -19.101562 5.875 -19.53125 C 7.007812 -19.957031 8.226562 -20.171875 9.53125 -20.171875 C 10.96875 -20.171875 12.335938 -19.882812 13.640625 -19.3125 C 14.953125 -18.75 15.957031 -17.957031 16.65625 -16.9375 L 13.953125 -14.65625 C 13.515625 -15.375 12.890625 -15.960938 12.078125 -16.421875 C 11.265625 -16.878906 10.375 -17.109375 9.40625 -17.109375 C 8.40625 -17.109375 7.546875 -16.894531 6.828125 -16.46875 C 6.109375 -16.039062 5.75 -15.398438 5.75 -14.546875 C 5.75 -13.984375 5.90625 -13.53125 6.21875 -13.1875 C 6.539062 -12.84375 7.019531 -12.550781 7.65625 -12.3125 C 8.289062 -12.082031 9.148438 -11.84375 10.234375 -11.59375 C 12.304688 -11.125 13.921875 -10.441406 15.078125 -9.546875 C 16.234375 -8.648438 16.8125 -7.398438 16.8125 -5.796875 C 16.8125 -4.335938 16.453125 -3.128906 15.734375 -2.171875 C 15.015625 -1.222656 14.0625 -0.535156 12.875 -0.109375 C 11.6875 0.316406 10.390625 0.53125 8.984375 0.53125 Z M 8.984375 0.53125 "/></g></g></g></g></g></g></svg>