<?xml version="1.0" encoding="UTF-8"?>
<svg version="1.1" xmlns="http://www.w3.org/2000/svg" width="3840" height="1882">
<path d="M0 0 C0.84788086 0.01933594 1.69576172 0.03867187 2.56933594 0.05859375 C74.06906266 1.81445558 144.01304035 23.15485749 195 75 C211.13022172 92.48493383 224.07457736 112.41550071 234 134 C234.3309668 134.71704102 234.66193359 135.43408203 235.00292969 136.17285156 C260.96849713 193.19771021 261.95351801 254.56454529 252.98205566 315.4921875 C252.31067019 320.0686269 251.65681999 324.64762218 250.99860668 329.22597027 C250.61167979 331.9133787 250.2216177 334.60026958 249.82960224 337.2869463 C248.82116679 344.21185775 247.83733044 351.13825061 246.92008972 358.07585144 C244.00816705 379.9952741 240.38938274 401.74282905 236.46374941 423.50151277 C235.62512633 428.15867863 234.79469504 432.81730632 233.96322632 437.47575378 C232.39065638 446.27954634 230.81110498 455.08207024 229.22883737 463.88412446 C227.45216242 473.76964172 225.68350287 483.6565875 223.91547894 493.54365504 C221.28570083 508.24875963 218.65224605 522.95320038 216.01238513 537.65649831 C215.5657763 540.14472783 215.11957842 542.63303075 214.67347145 545.12135029 C213.29696566 552.79644071 211.91617932 560.47070135 210.52245629 568.14268643 C209.87157158 571.72707673 209.22289362 575.31186486 208.57439685 578.89668787 C208.26717266 580.59141969 207.95886578 582.28595566 207.64937901 583.98027575 C203.21387489 608.26587482 200.44183636 631.97153707 214 654 C219.59216657 662.03604399 230.34557353 667.11021306 239.6875 669.4375 C274.97143614 674.64332664 309.71762758 659.19937468 340.578125 644.04785156 C341.39539062 643.64791992 342.21265625 643.24798828 343.0546875 642.8359375 C343.77124512 642.48063965 344.48780273 642.1253418 345.22607422 641.75927734 C347 641 347 641 349 641 C349.23847656 640.32582031 349.47695312 639.65164063 349.72265625 638.95703125 C351.29690458 635.31267045 353.31871386 632.03131787 355.4375 628.6875 C355.87924561 627.9867334 356.32099121 627.2859668 356.77612305 626.56396484 C368.12353028 608.69953305 380.57984839 591.46439059 393.60449219 574.79003906 C395.21333664 572.72634985 396.8138027 570.65629018 398.4140625 568.5859375 C404.08106755 561.26268185 409.76743832 553.96568686 415.66796875 546.828125 C418.02734211 543.96684139 420.3616729 541.08651804 422.69360352 538.20288086 C428.59358395 530.91164615 434.58011543 523.70436646 440.66601562 516.56787109 C442.00589089 514.99307627 443.33983846 513.41346003 444.671875 511.83203125 C450.09321329 505.39756993 455.56801302 499.01263886 461.08886719 492.66333008 C464.28720266 488.98354002 467.46467472 485.28734755 470.62451172 481.57446289 C475.81042929 475.48484897 481.12010576 469.53594336 486.55078125 463.6640625 C488.56873779 461.46909223 490.54803445 459.2533379 492.5 457 C495.90842215 453.06720522 499.43156322 449.24244978 502.9597168 445.41748047 C505.46491208 442.69583974 507.92082733 439.94656826 510.3125 437.125 C514.25852295 432.55793228 518.59443006 428.37813472 522.88378906 424.13769531 C525.90318887 421.14084036 528.83390272 418.14384587 531.5625 414.875 C534.92728979 410.90756129 538.75163452 407.48057917 542.59863281 403.99487305 C548.00096965 399.07133095 553.14870592 393.91174875 558.26733398 388.6953125 C562.03312653 384.87990032 565.90643325 381.27930383 569.96655273 377.77954102 C573.52943906 374.66153424 576.94242624 371.38492487 580.375 368.125 C585.70743186 363.08279985 591.06754999 358.0860609 596.546875 353.203125 C599.55882107 350.49812885 602.52986322 347.75072976 605.5 345 C610.12609771 340.71762048 614.78678883 336.47791954 619.48046875 332.26953125 C623.84462307 328.3384093 628.16474872 324.35931647 632.48974609 320.38525391 C633.93458696 319.05999897 635.38322148 317.73888359 636.83203125 316.41796875 C661.57020871 294.33664845 661.57020871 294.33664845 684 270 C684.4134668 269.50032715 684.82693359 269.0006543 685.25292969 268.48583984 C691.39720349 261.03230686 696.68753359 253.69390829 701 245 C684.18194267 243.26683722 667.36197374 242.30334166 650.47357559 241.59119034 C648.2741171 241.49838037 646.074726 241.40407268 643.87533569 241.30966187 C512.7307659 235.18721659 512.7307659 235.18721659 382 244 C382.5673913 237.31154791 383.48564977 230.78853524 384.77490234 224.203125 C384.95245056 223.2773616 385.12999878 222.35159821 385.31292725 221.39778137 C385.89929278 218.34760543 386.49231926 215.29877212 387.0859375 212.25 C387.50677262 210.07482929 387.92739177 207.89961678 388.34780884 205.72436523 C389.23418498 201.1442573 390.12400846 196.56483527 391.01611328 191.98583984 C391.90901859 187.40115751 392.79718126 182.81560526 393.68017578 178.22900391 C398.25028459 154.49258207 402.92438132 130.77885947 408.03276443 107.15158081 C408.48516292 105.05580488 408.93400232 102.95925656 409.37876511 100.86184692 C411.63152531 90.27331506 414.16570913 79.88289847 417.56396484 69.59765625 C417.84172571 68.75549057 418.11948658 67.91332489 418.40566444 67.04563904 C425.68779102 45.82935824 439.97250671 28.0255374 460.0065918 17.71655273 C480.65797999 7.68479046 503.68903678 4.86543993 526.40087891 4.81665039 C527.71615948 4.81128454 529.03144005 4.80591869 530.38657761 4.80039024 C534.79158048 4.78525287 539.19653803 4.7844695 543.6015625 4.78515625 C544.3720192 4.7848369 545.1424759 4.78451754 545.93627977 4.78418851 C588.26493639 4.77015223 630.56366616 5.97629135 672.87220311 7.17036784 C684.53829422 7.49938853 696.20468136 7.8173752 707.87109375 8.13476562 C709.96393659 8.19177364 712.05677932 8.24878523 714.14962196 8.30580044 C720.31588536 8.47370981 726.48215882 8.64124682 732.6484375 8.80859375 C734.15991655 8.84961806 734.15991655 8.84961806 735.70193052 8.89147115 C748.71046456 9.24438857 761.71906707 9.59461393 774.72781277 9.93964624 C776.83584448 9.99563971 778.94386716 10.05196016 781.05188751 10.10837936 C819.66735737 11.13647756 858.28126752 11.18796533 896.90773809 11.18511266 C902.88545174 11.18541231 908.86312001 11.19358171 914.84082031 11.20581055 C971.73514674 11.31935813 1028.49588308 10.46636403 1085.30194092 7.00842285 C1091.38894065 6.63894013 1097.47666577 6.2820814 1103.56474304 5.93085098 C1105.60970378 5.8110745 1107.65429255 5.68499611 1109.69885254 5.55856323 C1118.812286 5.02336168 1127.87562542 4.91287653 1137 5 C1149.82391099 66.88930957 1131.69956853 125.47224255 1097.74243164 177.61401367 C1087.48811209 193.14898068 1076.28793621 207.94991416 1064.41943359 222.28076172 C1062.42779971 224.69305718 1060.46681581 227.12995367 1058.5 229.5625 C1050.12262245 239.78105943 1041.37720752 249.6725215 1032.41015625 259.375 C1030.42589133 261.53614429 1028.4810994 263.71839708 1026.5625 265.9375 C1022.51274091 270.60583805 1018.29780012 275.11982373 1014.09765625 279.65234375 C1011.28023599 282.69299507 1008.48234985 285.75107729 1005.6875 288.8125 C1004.30794955 290.31451171 1002.92826742 291.81640314 1001.54737854 293.31718445 C1000.55593704 294.3954036 999.56562726 295.47466514 998.57676697 296.55525208 C986.51353677 309.71057743 973.8667043 322.28750245 961.23657227 334.89379883 C958.15492006 337.96970341 955.07785154 341.05014855 952.00204563 344.13189793 C949.60078769 346.53678541 947.19713371 348.93926677 944.79276848 351.34104729 C943.65708282 352.47607295 942.52211975 353.61182215 941.38794136 354.74835396 C935.92528337 360.2198798 930.4634764 365.64258398 924.56687927 370.65330505 C922.42787849 372.49172464 920.46307556 374.47652212 918.5 376.5 C915.19081007 379.91101116 911.70038253 383.02788768 908.11425781 386.13964844 C904.70794925 389.13688531 901.42061297 392.25717881 898.125 395.375 C892.94662532 400.2522786 887.7379089 405.08402068 882.4296875 409.8203125 C879.55606865 412.39825352 876.71536744 415.01055583 873.875 417.625 C870.63795153 420.6023135 867.3886189 423.55953186 864.0625 426.4375 C859.40598195 430.4770053 854.90307869 434.68075015 850.3828125 438.87109375 C848.17778444 440.91445356 845.96488617 442.94853302 843.7421875 444.97265625 C838.97486249 449.31464372 834.26008171 453.67491576 829.74778748 458.28465271 C827.99388398 460.00600251 826.17661934 461.60291368 824.30883789 463.19946289 C819.96318526 466.98158422 815.87513253 470.98033458 811.80859375 475.05859375 C811.05965347 475.8065773 810.3107132 476.55456085 809.53907776 477.32521057 C807.96728775 478.89632464 806.39674151 480.46868392 804.82739258 482.04223633 C802.44398696 484.43099846 800.05528932 486.81437446 797.66601562 489.19726562 C796.12988763 490.7340545 794.59406991 492.2711536 793.05859375 493.80859375 C792.35423691 494.51092636 791.64988007 495.21325897 790.92417908 495.93687439 C786.94286055 499.93680235 783.13810459 504.03590721 779.46156311 508.31825256 C777.73015197 510.31050061 775.89843263 512.16703056 774 514 C770.82910002 517.12845964 767.8743004 520.36855352 764.97265625 523.74609375 C763.03548688 525.95945361 761.04930272 528.12169266 759.04858398 530.27758789 C754.30935521 535.3874372 749.79872745 540.60887813 745.4296875 546.04296875 C743.13931997 548.83044178 740.78568081 551.54295213 738.40112305 554.24926758 C731.37382914 562.23251452 724.87268237 570.53032494 718.48730469 579.03222656 C717.13396295 580.82276077 715.76471311 582.59865213 714.3828125 584.3671875 C704.94362407 596.46020527 696.06708672 608.94849957 688 622 C688.82790039 621.93433838 689.65580078 621.86867676 690.50878906 621.80102539 C698.91210714 621.16393173 707.30329026 620.74281383 715.72705078 620.49731445 C717.70751092 620.43875631 719.68774728 620.37277963 721.66796875 620.30664062 C743.43863772 619.62055256 765.23227348 619.92126211 787 620.5625 C788.26208282 620.59890594 789.52416565 620.63531189 790.82449341 620.67282104 C828.13777918 621.78192688 865.40486396 624.19154901 902.66561973 626.40512872 C904.65361329 626.52317714 906.64162261 626.64095983 908.629632 626.75874138 C914.82065503 627.12567594 921.01150457 627.49505439 927.20201111 627.87060547 C947.51757522 629.09234898 967.83468159 630.14996123 988.19140625 630.16796875 C989.60359219 630.17121335 991.01577786 630.17457923 992.42796326 630.17805481 C995.34561944 630.18393054 998.26324655 630.18590698 1001.1809082 630.18530273 C1004.0895005 630.18522177 1006.99793427 630.19214073 1009.90649414 630.20581055 C1028.48430377 630.29178643 1046.89776161 629.76734167 1065.42944336 628.4309082 C1070.30608227 628.08411373 1075.11279194 627.90272491 1080 628 C1074.18786041 672.11719452 1066.69840167 716.04764535 1057.6875 759.625 C1057.49289185 760.5755426 1057.29828369 761.52608521 1057.09777832 762.50543213 C1055.03733529 772.51044691 1052.72431878 782.40558475 1049.94921875 792.23828125 C1049.59593758 793.49718674 1049.59593758 793.49718674 1049.23551941 794.78152466 C1042.45808406 818.11528511 1029.59556646 839.71763182 1008 852 C991.48635096 860.92076638 973.33259374 864.12429553 954.71484375 864.203125 C953.59006119 864.21013931 952.46527863 864.21715363 951.30641174 864.22438049 C947.51673475 864.24226077 943.7272182 864.24827389 939.9375 864.25 C939.27050079 864.25044186 938.60350159 864.25088371 937.91629028 864.25133896 C873.44377391 864.27350657 808.97840501 860.75687479 744.59570312 857.71411133 C706.88136361 855.93411846 669.25916498 854.75802793 631.5 854.75 C630.05739555 854.74933722 630.05739555 854.74933722 628.58564758 854.74866104 C596.62746 854.74101016 564.88590763 855.52424349 532.99499512 857.72735596 C528.53020345 858.03397494 524.06447715 858.32587236 519.59863281 858.61669922 C518.77619331 858.67026738 517.95375381 858.72383554 517.10639191 858.77902699 C515.4111718 858.88935832 513.71594826 858.99963708 512.02072144 859.10986519 C501.05950129 859.82267214 490.09857881 860.53860305 479.13964844 861.28588867 C456.66659466 862.81488501 434.22260924 864.22374153 411.6875 864.1875 C410.5291716 864.18609512 410.5291716 864.18609512 409.34744263 864.18466187 C382.01631639 864.11323875 353.19391466 861.24016701 332 842 C330.95779297 841.07767578 330.95779297 841.07767578 329.89453125 840.13671875 C324.79383388 835.3613942 321.31480331 830.1273637 318 824 C316.79092098 824.66531332 315.5828205 825.33240467 314.375 826 C313.54484375 826.45761719 312.7146875 826.91523437 311.859375 827.38671875 C309.87430481 828.50671054 307.90644214 829.65753671 305.953125 830.83203125 C278.41002513 847.22211533 246.62535658 855.08784164 215.25 860.25 C214.3427417 860.40106201 213.4354834 860.55212402 212.50073242 860.70776367 C194.13598225 863.54925962 175.77599284 864.35042003 157.21508789 864.31567383 C153.70101884 864.31251216 150.18779426 864.33609714 146.67382812 864.36132812 C88.17957804 864.52525624 30.77331394 847.40884287 -14 809 C-14.74894531 808.36191406 -15.49789062 807.72382812 -16.26953125 807.06640625 C-19.999869 803.84821134 -23.59788956 800.56806704 -27 797 C-27.94939453 796.02546875 -27.94939453 796.02546875 -28.91796875 795.03125 C-66.51221578 755.10815581 -79.16024124 695.24433512 -79.1875 642.0625 C-79.19974609 640.83982422 -79.21199219 639.61714844 -79.22460938 638.35742188 C-79.26154607 614.26238135 -75.21074181 590.79875185 -71.16726685 567.12827682 C-70.34176261 562.28334912 -69.5270714 557.43660114 -68.7109375 552.59008789 C-67.07815671 542.90449796 -65.4353912 533.22062568 -63.78957176 523.53724384 C-61.69406785 511.20540904 -59.60896185 498.87182015 -57.52370071 486.53824997 C-56.30292607 479.31911227 -55.08103544 472.10016339 -53.85928082 464.88119149 C-52.62285824 457.57540549 -51.38690739 450.26954033 -50.15234375 442.96343994 C-48.81749707 435.06398356 -47.48150661 427.16472142 -46.14453125 419.265625 C-45.81800505 417.33616091 -45.81800505 417.33616091 -45.48488235 415.36771774 C-42.65791098 398.67194173 -39.79014252 381.98382974 -36.8801384 365.30233574 C-35.80671848 359.13707848 -34.74304239 352.9701327 -33.68004417 346.80307102 C-32.86699121 342.09202099 -32.04698489 337.38243223 -31.20898438 332.67575073 C-22.96585319 290.56276841 -22.96585319 290.56276841 -36 251 C-41.5431259 243.5220094 -47.86001031 238.43999438 -56 234 C-56.82886719 233.53851562 -57.65773438 233.07703125 -58.51171875 232.6015625 C-84.84642431 219.29305892 -118.79351363 222.29510469 -146 231 C-173.86174318 240.18155067 -197.85805813 255.86481727 -219 276 C-219.71800781 276.66515625 -220.43601562 277.3303125 -221.17578125 278.015625 C-233.52058592 289.79143065 -241.73149026 302.45905988 -244.56665039 319.35766602 C-244.89190059 321.17947152 -244.89190059 321.17947152 -245.2237215 323.03808117 C-245.8201524 326.39635776 -246.40252065 329.75652577 -246.9791503 333.11822224 C-247.61123865 336.78150361 -248.26199031 340.44147391 -248.91055298 344.10186768 C-250.04414771 350.5134644 -251.16668888 356.92691688 -252.28207397 363.34170532 C-254.09498725 373.76615073 -255.93117749 384.18643234 -257.77075195 394.60620117 C-258.41433478 398.25292652 -259.05778401 401.89967543 -259.70118713 405.5464325 C-259.86293086 406.46308435 -260.02467459 407.37973621 -260.19131964 408.3241654 C-261.36534332 414.97930335 -262.53632456 421.63497274 -263.7061615 428.29084778 C-268.65239525 456.42688962 -273.65586396 484.55238515 -278.6953125 512.671875 C-278.87844985 513.69382658 -279.06158721 514.71577816 -279.25027418 515.76869798 C-281.49495242 528.29383229 -283.74159727 540.81861345 -285.98882926 553.34328979 C-288.0676316 564.92997593 -290.14402646 576.51709328 -292.22021484 588.10424805 C-292.59952602 590.22114278 -292.97883726 592.3380375 -293.35814857 594.45493221 C-293.9282322 597.6365124 -294.49831406 600.8180929 -295.06838715 603.99967498 C-296.4004568 611.43384357 -297.73282808 618.86795806 -299.06533813 626.30204773 C-303.38301726 650.39090811 -307.69774516 674.48029451 -312.00915813 698.57027721 C-315.12296172 715.96853533 -318.2382058 733.36653508 -321.35458088 750.76433277 C-323.37792222 762.06039512 -325.39997489 773.35668659 -327.42036402 784.65327734 C-328.78550485 792.28545924 -330.15226906 799.91734927 -331.52034509 807.54900557 C-332.30747558 811.9402122 -333.0938606 816.33154902 -333.8782959 820.72323799 C-334.59464871 824.73369033 -335.31303756 828.74377224 -336.03309309 832.75356138 C-336.29358301 834.20627118 -336.55330647 835.65911867 -336.81220663 837.11211264 C-337.16247522 839.07725609 -337.51574466 841.04186398 -337.8691864 843.00643921 C-338.06486049 844.09949057 -338.26053457 845.19254192 -338.46213818 846.31871605 C-339 849 -339 849 -340 852 C-361.86386065 852.02348279 -383.72771918 852.04105405 -405.59158993 852.05181217 C-415.74604148 852.05694273 -425.90048515 852.06392276 -436.05493164 852.07543945 C-444.91767192 852.08548626 -453.78040648 852.09187691 -462.6431523 852.09408849 C-467.32485734 852.09537883 -472.00654603 852.09835605 -476.68824577 852.10573006 C-571.20490155 852.24836404 -571.20490155 852.24836404 -592.37890625 832.75 C-603.34096108 820.9162637 -606.98152621 806.991318 -607.75 791.25 C-607.80542969 790.47785156 -607.86085938 789.70570313 -607.91796875 788.91015625 C-608.82952434 771.09338786 -605.4091001 753.02694301 -602.33203125 735.5546875 C-601.93827033 733.28093638 -601.54513493 731.00707688 -601.15254211 728.73312378 C-599.90728341 721.54229923 -598.64511665 714.35449343 -597.38087559 707.16699028 C-596.7235884 703.42735717 -596.06847057 699.68734392 -595.4130249 695.9473877 C-591.41742137 673.1567937 -587.39113315 650.37164258 -583.36088848 627.58715332 C-581.2477165 615.63996806 -579.13722555 603.69230936 -577.02685547 591.74462891 C-576.8269356 590.61281307 -576.62701572 589.48099723 -576.42103767 588.31488395 C-575.59574521 583.64259509 -574.77046103 578.97030477 -573.94520617 574.29800928 C-572.65821573 567.01156774 -571.37104861 559.72515743 -570.08376169 552.43876827 C-562.75321038 510.94525612 -555.43492088 469.44958794 -548.12109375 427.953125 C-547.98336826 427.17171576 -547.84564277 426.39030653 -547.70374379 425.58521822 C-544.61515247 408.06154404 -541.5267978 390.53782816 -538.43856131 373.01409144 C-532.8582819 341.34963739 -527.27696622 309.68536599 -521.69558153 278.02110675 C-521.28956212 275.71767822 -520.88354426 273.41424942 -520.4775269 271.11082053 C-511.12868501 218.07273069 -501.7789718 165.03479473 -492.42198789 111.99814057 C-491.33001022 105.80851629 -490.23832763 99.61884001 -489.14678955 93.42913818 C-487.86169727 86.14189447 -486.57620579 78.85472133 -485.29015243 71.56764716 C-484.65871051 67.98971688 -484.02742192 64.4117598 -483.39664841 60.83371162 C-480.64291865 45.21409307 -477.85699161 29.60108404 -475 14 C-453.9970361 13.92959285 -432.99409196 13.87685773 -411.99103355 13.84456348 C-402.23665777 13.82916319 -392.48235575 13.80820622 -382.72802734 13.77368164 C-374.21580151 13.74356801 -365.70362916 13.72437547 -357.19135153 13.71773452 C-352.69356443 13.71385903 -348.19593019 13.70489801 -343.6981926 13.68280983 C-296.54181824 13.46036362 -296.54181824 13.46036362 -275 21 C-273.7934375 21.42023438 -272.586875 21.84046875 -271.34375 22.2734375 C-256.44924059 27.72085916 -244.11825215 35.73394243 -233 47 C-231.89205078 48.10988281 -231.89205078 48.10988281 -230.76171875 49.2421875 C-220.71553719 59.89309067 -215.16054177 72.53421132 -210 86 C-209.18660156 85.28457031 -208.37320312 84.56914063 -207.53515625 83.83203125 C-187.79332895 66.60875682 -166.61506226 51.22758563 -144 38 C-143.26668457 37.56945313 -142.53336914 37.13890625 -141.77783203 36.6953125 C-98.5753605 11.512154 -50.06836981 -1.41447825 0 0 Z " fill="#1A3063" transform="translate(1532,1005)"/>
<path d="M0 0 C1.69706724 0.000283 3.39413461 0.00012194 5.09120178 -0.0004425 C9.63964786 -0.00072608 14.18806685 0.0050987 18.7365067 0.01213145 C23.5117092 0.01843901 28.28691251 0.01897459 33.06211853 0.02015686 C42.07846356 0.02324856 51.09479627 0.03143243 60.1111359 0.04150635 C70.38702822 0.0527351 80.66292116 0.05819488 90.9388181 0.06320179 C112.05288752 0.07361716 133.16694591 0.09117418 154.28100586 0.11352539 C152.89487055 11.30472988 151.09001389 22.38511519 149.12109375 33.48657227 C148.80223361 35.29792536 148.4836494 37.10932705 148.16531467 38.92077255 C147.29778104 43.85283277 146.4264162 48.78420927 145.55439615 53.71547794 C144.61456024 59.03433957 143.67838993 64.35384645 142.74179077 69.67327881 C141.12490729 78.85362006 139.50582823 88.03357181 137.88522339 97.21325684 C135.32864759 111.69477752 132.77631187 126.17704378 130.22460938 140.65942383 C129.35499762 145.59467124 128.48534806 150.52991199 127.61567688 155.46514893 C127.39893513 156.69512911 127.18219338 157.92510929 126.9588837 159.19236159 C125.40660172 168.0009534 123.8536753 176.80943146 122.30046082 185.61785889 C116.2406055 219.98460834 110.19044974 254.35305251 104.14819336 288.72290039 C103.74174358 291.03479035 103.33529204 293.34668 102.92883873 295.65856934 C100.57218321 309.06324779 98.21579397 322.46797304 95.859478 335.87271118 C93.10504519 351.54226912 90.35058984 367.21182303 87.59494376 382.88116765 C86.61968021 388.42684671 85.64472952 393.97258063 84.6700604 399.51836419 C84.07548312 402.901015 83.48060368 406.28361261 82.8856287 409.66619349 C82.60365469 411.26956453 82.3217902 412.87295484 82.04004192 414.47636557 C80.62531239 422.52667308 79.20221853 430.5752633 77.7492981 438.61877441 C77.62946432 439.28358188 77.50963054 439.94838935 77.38616544 440.6333425 C76.83128865 443.71139847 76.27397376 446.78896337 75.71171474 449.86568069 C75.52152799 450.91819393 75.33134123 451.97070717 75.13539124 453.05511475 C74.88618471 454.42191439 74.88618471 454.42191439 74.6319437 455.81632614 C74.20549803 458.22048264 74.20549803 458.22048264 74.28100586 461.11352539 C74.98483398 460.37489258 75.68866211 459.63625977 76.41381836 458.87524414 C83.85050064 451.18820293 91.70604999 444.49208075 100.28100586 438.11352539 C100.8454541 437.6882959 101.40990234 437.26306641 101.99145508 436.82495117 C110.68976331 430.29557175 119.77275014 424.6080422 129.24194336 419.2644043 C130.52394355 418.54082325 131.80305293 417.81207158 133.07788086 417.07592773 C208.08909043 373.82835249 299.8320153 370.6695093 381.8828125 392.60400391 C424.47370088 404.33746818 463.3044131 424.42237372 495.28100586 455.11352539 C495.84319824 455.64848633 496.40539062 456.18344727 496.98461914 456.73461914 C538.83960661 496.75274682 560.89441121 552.32337573 569.53100586 608.73852539 C569.68230957 609.7248999 569.83361328 610.71127441 569.98950195 611.72753906 C573.01714391 633.09721755 573.61986567 654.43217206 573.53100586 675.98852539 C573.52764189 677.3442479 573.5245111 678.69997101 573.52160645 680.05569458 C573.47131744 700.47135015 573.11753871 720.76940597 571.28100586 741.11352539 C571.2178418 741.83493713 571.15467773 742.55634888 571.08959961 743.29962158 C564.02822744 823.88017583 545.10227171 902.32123503 507.28100586 978.11352539 C506.6185083 979.45036377 506.6185083 979.45036377 505.94262695 980.81420898 C495.59747289 1001.60034414 483.14258514 1021.49641415 469.28100586 1040.11352539 C468.75410156 1040.82299316 468.22719727 1041.53246094 467.68432617 1042.26342773 C460.54349158 1051.83468882 453.10975292 1061.09783927 445.28100586 1070.11352539 C444.64678711 1070.84829102 444.01256836 1071.58305664 443.35913086 1072.34008789 C441.67825498 1074.27540828 439.98132193 1076.1952665 438.28100586 1078.11352539 C437.64509521 1078.83427246 437.00918457 1079.55501953 436.35400391 1080.29760742 C430.67694527 1086.67622233 424.76881358 1092.77700431 418.71850586 1098.80102539 C417.82454102 1099.69885742 416.93057617 1100.59668945 416.00952148 1101.52172852 C410.92862232 1106.59519403 405.74809838 1111.46034334 400.28100586 1116.11352539 C399.31678711 1116.95915039 398.35256836 1117.80477539 397.35913086 1118.67602539 C388.47491708 1126.33313782 379.17197291 1133.37942859 369.72094727 1140.32055664 C368.19635027 1141.44089287 366.6746808 1142.56523687 365.1574707 1143.69555664 C295.54579969 1195.4900564 208.68180879 1222.6953101 79.28100586 1237.11352539 C78.19142578 1237.16992188 77.1018457 1237.22631836 75.97924805 1237.28442383 C-20.01634297 1241.99637703 -117.83524732 1230.02589469 -309.65649414 1179.92602539 C-310.40340515 1179.6797641 -311.15031616 1179.43350281 -311.91986084 1179.17977905 C-314.09304687 1178.461324 -316.26376598 1177.73585769 -318.43383789 1177.00805664 C-320.29190063 1176.3870105 -320.29190063 1176.3870105 -322.1875 1175.75341797 C-326.34336271 1174.29971118 -330.41830597 1172.65331809 -334.50221252 1171.0110321 C-335.54468982 1170.59287239 -335.54468982 1170.59287239 -336.60822725 1170.16626501 C-338.3120888 1169.48269751 -340.01557892 1168.79820434 -341.71899414 1168.11352539 C-337.79612237 1144.26262574 -333.70354525 1120.44652398 -329.46471524 1096.64986587 C-328.66405975 1092.15235977 -327.86573592 1087.65443967 -327.06712341 1083.15657043 C-325.69199776 1075.41333516 -324.31557885 1067.67033078 -322.93823242 1059.92749023 C-320.73551542 1047.54455052 -318.53561146 1035.16111184 -316.33618164 1022.77758789 C-315.77043601 1019.59234193 -315.20468617 1016.40709672 -314.63893521 1013.22185171 C-314.2596519 1011.08643891 -313.88037206 1008.9510255 -313.50109565 1006.81561148 C-312.1608401 999.26979796 -310.82023944 991.7240458 -309.47952271 984.17831421 C-304.58182505 956.61246648 -299.69116994 929.04537998 -294.80883789 901.47680664 C-294.65107793 900.58601024 -294.49331797 899.69521385 -294.33077741 898.77742362 C-292.4331482 888.06225864 -290.53587388 877.34703084 -288.63870281 866.63178474 C-285.60368569 849.49015427 -282.56772517 832.34869087 -279.53149414 815.20727539 C-279.37218816 814.30788309 -279.21288217 813.4084908 -279.04874873 812.48184419 C-271.28840962 768.66977058 -263.51470834 724.8600693 -255.74019575 681.05050898 C-245.26896466 622.04487045 -234.80509629 563.03793774 -224.35445786 504.02864838 C-213.12425413 440.61768377 -201.88885496 377.20764184 -190.64588493 313.79893941 C-189.32625889 306.35632008 -188.0068707 298.91365861 -186.68759155 291.47097778 C-186.14573623 288.41425829 -185.6038749 285.35753986 -185.06201088 282.3008219 C-184.70366806 280.27929549 -184.34534678 278.25776526 -183.98704708 276.23623121 C-182.04812189 265.29688412 -180.10740444 254.35786113 -178.16166687 243.41972351 C-177.4584916 239.46579014 -176.75545389 235.51183233 -176.05249023 231.55786133 C-175.79106521 230.08768222 -175.79106521 230.08768222 -175.52435887 228.58780253 C-173.23949984 215.73406072 -170.97328741 202.87717883 -168.72532648 190.01693189 C-167.10783694 180.76379658 -165.48292857 171.51198341 -163.85326773 162.26098406 C-162.88098799 156.73874725 -161.91287052 151.215857 -160.95537376 145.69103622 C-144.14128702 48.72939705 -144.14128702 48.72939705 -108.18774414 23.35571289 C-76.51615134 2.27158489 -36.90528076 -0.08793257 0 0 Z M46.13256836 659.08227539 C38.16628199 667.15656006 35.04827164 674.82975942 33.29638672 685.9453125 C33.05993714 687.32273931 32.82115819 688.69976791 32.58027077 690.07642555 C32.06564676 693.04626708 31.56720261 696.01820679 31.08136177 698.99289131 C30.2928326 703.82021043 29.46867065 708.64106678 28.64012146 713.46165466 C27.44920864 720.40843601 26.27386445 727.35769616 25.10687256 734.30853271 C23.30176763 745.04599213 21.43569422 755.77239386 19.55493164 766.49682617 C19.23864245 768.30143807 18.92236021 770.10605119 18.60608482 771.91066551 C18.12779488 774.6393883 17.6494549 777.36810225 17.1709336 780.09678447 C15.37141047 790.36168606 13.58665297 800.62914794 11.80249023 810.89672852 C11.47314463 812.79161513 11.14379193 814.68650051 10.81443214 816.58138466 C10.15421775 820.37990837 9.49408147 824.17844565 8.83398438 827.97698975 C6.3700133 842.15520223 3.90337065 856.33295041 1.43686712 870.51072252 C0.46669866 876.08761427 -0.5029954 881.66458826 -1.47234261 887.24162281 C-4.73384214 906.0050361 -8.00496544 924.76669156 -11.30150545 943.5239836 C-11.80352646 946.38081416 -12.30524459 949.23769775 -12.80685902 952.09459972 C-13.13344659 953.95450105 -13.46003899 955.81440154 -13.78663635 957.67430115 C-13.94593905 958.58152332 -14.10524175 959.48874548 -14.26937181 960.42345923 C-15.20567011 965.75404692 -16.14437459 971.08420411 -17.08487177 976.41405249 C-17.65890075 979.66992313 -18.23089521 982.92614881 -18.80235362 986.18247151 C-19.06723372 987.68911435 -19.33301789 989.19559856 -19.59976125 990.70191264 C-19.96242783 992.75037369 -20.32199598 994.79935516 -20.68080139 996.84849548 C-20.8825702 997.99326324 -21.08433901 999.13803099 -21.29222202 1000.31748867 C-21.79443771 1003.13639767 -21.79443771 1003.13639767 -21.71899414 1006.11352539 C34.85818926 1021.3296028 97.31325493 1017.20717891 148.66772461 987.63696289 C162.47120934 979.39612535 174.70230022 969.2122654 186.28100586 958.11352539 C186.81081055 957.61095215 187.34061523 957.10837891 187.88647461 956.59057617 C196.18858339 948.68040186 203.46130782 940.32560721 210.28100586 931.11352539 C210.71010254 930.53989258 211.13919922 929.96625977 211.58129883 929.37524414 C218.09158283 920.63899026 223.94832001 911.61342015 229.28100586 902.11352539 C229.96549805 900.89826172 229.96549805 900.89826172 230.66381836 899.65844727 C256.68523689 852.93817308 269.65680678 799.26121124 273.28100586 746.11352539 C273.33740234 745.30625 273.39379883 744.49897461 273.4519043 743.66723633 C276.08221645 704.33706585 276.45079124 659.54852437 249.10131836 628.03540039 C230.26549155 607.93854219 203.05731885 602.0219679 176.44897461 601.15649414 C127.97231983 600.31491697 81.29470547 627.78302094 46.13256836 659.08227539 Z " fill="#1A3063" transform="translate(353.718994140625,630.886474609375)"/>
<path d="M0 0 C0.66 0 1.32 0 2 0 C2.10454121 0.68230399 2.20908241 1.36460798 2.31679153 2.06758785 C4.86556316 18.69666077 7.4284537 35.32349036 10.0069313 51.94798183 C11.25354408 59.98763151 12.49542939 68.02795762 13.72607422 76.07006836 C14.79916017 83.08247039 15.88123121 90.09341761 16.97395396 97.10278755 C17.55182329 100.81161877 18.1252783 104.52100825 18.68796539 108.23217583 C19.21864967 111.7313092 19.76140624 115.22836318 20.31313896 118.72423744 C20.60715341 120.60698261 20.88863878 122.49167128 21.16963196 124.37640381 C22.65247556 133.65348941 24.47306544 141.53943918 31.92578125 147.7109375 C39.58780463 152.47264694 46.33194982 152.44361134 55.19702148 152.43237305 C56.63646787 152.44139869 58.07590657 152.45172787 59.51533508 152.46325684 C63.40737893 152.49075902 67.29927666 152.50010207 71.19140506 152.50611091 C75.26471125 152.5155123 79.33790908 152.54171709 83.41114807 152.56611633 C91.11740787 152.60973655 98.82364659 152.63831097 106.52999216 152.66143972 C115.30634991 152.68851544 124.08259838 152.73242546 132.85887802 152.77772844 C150.90586094 152.87051055 168.95287277 152.9422207 187 153 C183.31509539 156.78811009 179.64763275 159.67766312 175.125 162.375 C168.25487003 166.57134528 161.48489958 170.90242297 154.75 175.3125 C153.77224609 175.95203613 152.79449219 176.59157227 151.78710938 177.25048828 C149.81521639 178.54052689 147.84353536 179.83088953 145.87207031 181.12158203 C141.46178279 184.00603903 137.04397375 186.87887396 132.625 189.75 C131.80418945 190.28343018 130.98337891 190.81686035 130.13769531 191.36645508 C124.24065978 195.19740609 118.33757379 199.01894285 112.43212891 202.83691406 C106.10073241 206.93152307 99.7792815 211.04136097 93.45898438 215.15307617 C88.69733744 218.24989864 83.9311024 221.33938269 79.15795898 224.41845703 C77.0519448 225.77894362 74.94958207 227.14492698 72.84765625 228.51171875 C70.43258093 230.08082871 68.00511787 231.62499091 65.55859375 233.14453125 C55.29106952 239.65971871 47.8915915 246.94913051 44.46786499 258.84964561 C42.68706435 267.03438384 44.52026533 275.69861758 45.8359375 283.82177734 C46.12854462 285.68701553 46.12854462 285.68701553 46.42706299 287.5899353 C46.84820687 290.2740597 47.27412517 292.95736477 47.70391846 295.64011765 C48.38370374 299.88343978 49.05262643 304.12843221 49.72021484 308.37368774 C50.77681757 315.08439561 51.84067945 321.79392895 52.9076519 328.50299513 C54.82049582 340.531958 56.72230788 352.56266541 58.6193409 364.59413111 C59.28493356 368.81349094 59.95417409 373.03225138 60.62643433 377.25055385 C61.14123862 380.48487428 61.65227978 383.71979013 62.1640625 386.95458984 C62.35107727 388.12139282 62.53809204 389.2881958 62.73077393 390.49035645 C62.89905701 391.55841522 63.06734009 392.626474 63.24072266 393.72689819 C63.46195297 395.11775918 63.46195297 395.11775918 63.68765259 396.53671837 C64 399 64 399 64 403 C59.85584795 401.29957397 56.75620163 398.3584817 53.4375 395.4375 C52.17793997 394.34276361 50.91751466 393.24902202 49.65625 392.15625 C48.72425781 391.34800781 48.72425781 391.34800781 47.7734375 390.5234375 C44.49239778 387.70492321 41.124138 384.99464048 37.765625 382.26953125 C34.70632264 379.75900205 31.69687068 377.19487558 28.6875 374.625 C24.25153337 370.8420203 19.73399047 367.19467024 15.125 363.625 C9.37972845 359.16948329 3.86904559 354.48856595 -1.60058594 349.70019531 C-6.07564963 345.78538998 -10.6294824 341.98801868 -15.25390625 338.25 C-17.82957322 336.13963844 -20.3593621 333.98582687 -22.88354492 331.81469727 C-36.87826398 319.37759133 -36.87826398 319.37759133 -54.76733398 315.6940918 C-65.039238 317.10149428 -73.299702 322.32288383 -81.6875 328.0625 C-82.83578152 328.83315269 -83.98504657 329.60234176 -85.13525391 330.37011719 C-87.40223624 331.8849979 -89.665022 333.40580818 -91.92431641 334.93212891 C-95.87589126 337.58888704 -99.86804046 340.17788947 -103.875 342.75 C-105.20600904 343.60894146 -106.53673789 344.46831726 -107.8671875 345.328125 C-108.53073242 345.75673828 -109.19427734 346.18535156 -109.87792969 346.62695312 C-113.92314383 349.24433512 -117.96111589 351.87286524 -122 354.5 C-131.6776139 360.79382634 -141.36873573 367.06658448 -151.06347656 373.33398438 C-153.14660997 374.6807955 -155.22960061 376.02782699 -157.3125 377.375 C-158.34661011 378.04378174 -158.34661011 378.04378174 -159.40161133 378.72607422 C-164.19171937 381.82558825 -168.9755897 384.93459181 -173.75756836 388.04663086 C-181.47958497 393.07195591 -189.20720154 398.08481749 -197 403 C-197.33 402.34 -197.66 401.68 -198 401 C-197.32592773 399.10595703 -197.32592773 399.10595703 -196.18359375 396.7578125 C-195.75651123 395.87134033 -195.32942871 394.98486816 -194.8894043 394.0715332 C-194.17071167 392.61299927 -194.17071167 392.61299927 -193.4375 391.125 C-192.9422583 390.10559326 -192.4470166 389.08618652 -191.93676758 388.03588867 C-185.4349126 374.70109835 -178.75890009 361.45185562 -172.09387207 348.19812012 C-165.19638945 334.48034122 -158.35299188 320.74665336 -151.76977539 306.87480164 C-149.17253944 301.41329672 -146.51455596 295.99200254 -143.75 290.61328125 C-143.43216553 289.99258759 -143.11433105 289.37189392 -142.78686523 288.73239136 C-141.54200602 286.3041959 -140.29534368 283.87722389 -139.03076172 281.45922852 C-133.67231446 271.18774988 -127.7567546 259.82571111 -131 248 C-134.11841415 239.52037139 -140.51178177 234.4412607 -147.1875 228.6875 C-147.85313965 228.11209473 -148.5187793 227.53668945 -149.20458984 226.94384766 C-153.55338571 223.20112641 -157.97303807 219.57016073 -162.48046875 216.01953125 C-166.08583363 213.12964963 -169.59488896 210.13030275 -173.11376953 207.13623047 C-176.5461032 204.21970392 -180.00610664 201.3429205 -183.5 198.5 C-187.5633048 195.19375926 -191.57299309 191.83183571 -195.5625 188.4375 C-199.33088939 185.23260809 -203.12246028 182.07312306 -207 179 C-211.44387754 175.47802899 -215.77229131 171.83439711 -220.08691406 168.15649414 C-224.64312508 164.27911254 -229.27920351 160.51242841 -233.953125 156.77734375 C-236 155 -236 155 -237 153 C-236.2586166 152.99945523 -235.5172332 152.99891047 -234.75338364 152.99834919 C-216.67333735 152.98335018 -198.59354572 152.94077758 -180.51363754 152.86790943 C-171.77013132 152.83332782 -163.02678163 152.8079129 -154.28320312 152.80444336 C-146.6579642 152.80139393 -139.03300455 152.78077255 -131.40787339 152.73947543 C-127.37425745 152.71823205 -123.34103767 152.70549982 -119.30736542 152.71384621 C-115.50189621 152.72144183 -111.69722606 152.70534339 -107.89190292 152.67193985 C-106.50371784 152.66377225 -105.11545228 152.66387814 -103.72727585 152.67340279 C-91.18080379 152.75088676 -80.5692185 149.88847131 -71.38842773 140.95556641 C-68.60677505 137.51340271 -66.65472618 134.01969707 -64.66015625 130.0859375 C-64.03136818 128.86858917 -64.03136818 128.86858917 -63.38987732 127.62664795 C-61.91448147 124.7571117 -60.45565948 121.87959771 -59 119 C-58.4335376 117.88107361 -57.8670752 116.76214722 -57.28344727 115.60931396 C-53.02307878 107.18486912 -48.80034671 98.74175948 -44.58410645 90.29516602 C-43.22794707 87.58025454 -41.86881623 84.86683538 -40.5097723 82.15336704 C-33.8176736 68.7883274 -27.18515199 55.40148478 -20.77178955 41.89970398 C-16.56976125 33.06092223 -12.20990803 24.30532796 -7.8125 15.5625 C-7.04342452 14.02939482 -6.27454431 12.49619166 -5.50585938 10.96289062 C-3.67279395 7.30747444 -1.83719004 3.65334479 0 0 Z " fill="#E3A416" transform="translate(3641,286)"/>
<path d="M0 0 C0.66 0 1.32 0 2 0 C3.05660497 6.51289032 4.11016637 13.026266 5.16131592 19.54003906 C5.55391238 21.97254966 5.94685698 24.4050041 6.34014893 26.83740234 C8.8752592 42.52940433 11.3551382 58.22871369 13.75967407 73.94127846 C14.16288844 76.57436438 14.56720934 79.20727793 14.97192383 81.84013367 C15.10509254 82.70663072 15.23826126 83.57312777 15.37546539 84.4658823 C15.64369878 86.21120967 15.91196347 87.95653223 16.1802597 89.70184994 C16.97497784 94.87712718 17.76170762 100.05354708 18.54309273 105.23085308 C19.03785292 108.49702267 19.53974312 111.76206929 20.04340744 115.02687645 C20.2768922 116.55056337 20.50734938 118.07471784 20.73451614 119.59935951 C22.60111942 134.76195626 22.60111942 134.76195626 31 147 C38.83320736 152.3672633 46.29344791 152.72249871 55.53759766 152.65942383 C56.97749206 152.66789234 58.41737502 152.67854342 59.85723877 152.69119263 C63.73685009 152.71917101 67.61590536 152.71689752 71.49558687 152.70889878 C75.56089084 152.70575958 79.62602205 152.73084924 83.69125366 152.75285339 C91.37621723 152.79020789 99.06100387 152.80243627 106.74604928 152.8054778 C115.50073386 152.81017799 124.25524224 152.84313203 133.00984883 152.87837565 C151.00654897 152.95019675 169.00316614 152.98680876 187 153 C183.80718245 156.25092162 180.82213084 158.96988849 176.95703125 161.390625 C175.97863281 162.0091333 175.00023438 162.6276416 173.9921875 163.26489258 C172.94289063 163.91997803 171.89359375 164.57506348 170.8125 165.25 C168.55781835 166.67457596 166.30391291 168.10032329 164.05078125 169.52734375 C163.47172028 169.89321091 162.8926593 170.25907806 162.29605103 170.6360321 C155.98654325 174.62759132 149.74198821 178.71645383 143.5 182.8125 C141.32431869 184.23843375 139.14854014 185.66421914 136.97265625 187.08984375 C135.95187988 187.75870605 134.93110352 188.42756836 133.87939453 189.11669922 C127.92401667 193.01188193 121.94589098 196.87183259 115.96679688 200.73046875 C110.39097961 204.32955636 104.81978319 207.93579406 99.24951172 211.54345703 C97.71496744 212.53706363 96.18012386 213.5302081 94.64501953 214.52294922 C89.64119455 217.75965036 84.64573462 221.00878466 79.65722656 224.26904297 C77.82879743 225.46010899 75.99722866 226.64636466 74.16308594 227.82861328 C71.3105008 229.66751363 68.46720157 231.5201026 65.625 233.375 C64.75133789 233.93356689 63.87767578 234.49213379 62.97753906 235.06762695 C56.01270132 239.64399583 50.70737003 244.57456435 47.1875 252.25 C46.78917969 253.08015625 46.39085938 253.9103125 45.98046875 254.765625 C43.21152966 263.89981452 44.18343288 272.63529437 45.72241211 281.90356445 C45.91733749 283.14399002 46.11226288 284.38441559 46.31309509 285.66242981 C46.73546512 288.33768831 47.16251529 291.01164709 47.5981884 293.68471718 C48.28769006 297.91519343 48.95838217 302.14852637 49.62684631 306.38237 C50.68615625 313.07722572 51.75820803 319.76996851 52.83563286 326.46193045 C54.76602817 338.45426603 56.67506272 350.45001079 58.57867056 362.44662446 C59.24642917 366.65155029 59.91992991 370.85550426 60.59830654 375.05872977 C61.11830846 378.28641631 61.63266714 381.51500425 62.14819336 384.7434082 C62.33677917 385.90144958 62.52536499 387.05949097 62.71966553 388.25262451 C62.88939377 389.32198746 63.05912201 390.3913504 63.23399353 391.49311829 C63.38277923 392.41721654 63.53156492 393.34131479 63.68485928 394.29341602 C64.02531466 397.21741481 64.05301875 400.0588603 64 403 C59.43418281 400.09196817 55.37936333 396.87748539 51.3125 393.3125 C50.0659147 392.23213697 48.81851142 391.15271708 47.5703125 390.07421875 C46.9609082 389.54747559 46.35150391 389.02073242 45.72363281 388.47802734 C42.54188011 385.74965187 39.28716471 383.11250356 36.03515625 380.46875 C26.45621284 372.6773829 16.93154686 364.82223207 7.52294922 356.82592773 C3.41063951 353.33515655 -0.74967072 349.90829195 -4.93359375 346.50390625 C-8.00542023 343.99557405 -11.06162131 341.46919729 -14.11621094 338.93994141 C-17.03218333 336.53027725 -19.95790305 334.13263752 -22.88525391 331.73681641 C-24.25602132 330.61102105 -25.62313021 329.48075036 -26.98583984 328.34521484 C-38.89530635 318.33006499 -38.89530635 318.33006499 -53.91796875 315.72265625 C-67.71098587 317.55999999 -79.18004716 326.64480953 -90.5 334.125 C-91.63900785 334.87421606 -92.77825342 335.62307085 -93.91772461 336.37158203 C-96.20216912 337.87235441 -98.48585856 339.37426453 -100.76904297 340.87695312 C-105.3569311 343.89163313 -109.95801654 346.88574949 -114.5625 349.875 C-115.36921143 350.39900391 -116.17592285 350.92300781 -117.00708008 351.46289062 C-125.68531483 357.09776281 -134.37400424 362.71646464 -143.06347656 368.33398438 C-150.5316092 373.1623665 -157.99681137 377.9951379 -165.45214844 382.84326172 C-167.14133487 383.94165374 -168.83078512 385.03964016 -170.52050781 386.13720703 C-174.66522446 388.82957751 -178.80662214 391.52677161 -182.94140625 394.234375 C-184.48175161 395.23961279 -186.02211533 396.24482245 -187.5625 397.25 C-188.62500977 397.94899414 -188.62500977 397.94899414 -189.70898438 398.66210938 C-192.45143652 400.44808067 -194.88081438 401.96027146 -198 403 C-196.579386 398.35464116 -194.67553911 394.09985417 -192.47265625 389.78515625 C-192.12845642 389.10232071 -191.78425659 388.41948517 -191.42962646 387.71595764 C-190.69331329 386.25570639 -189.95529955 384.79631159 -189.21572876 383.33770752 C-187.25434173 379.46808279 -185.30665321 375.59158297 -183.359375 371.71484375 C-182.97413162 370.94829468 -182.58888824 370.18174561 -182.19197083 369.39196777 C-179.32268621 363.67143098 -176.53816086 357.91540724 -173.8125 352.125 C-168.39950357 340.65483558 -162.6871551 329.33590648 -157 318 C-135.72602432 283.20560482 -135.72602432 283.20560482 -131.85546875 245.40625 C-134.81885537 239.17605834 -138.86399452 234.9098852 -144.375 230.875 C-149.6442265 226.88075632 -154.71776905 222.73655599 -159.6875 218.375 C-164.80459729 213.89329088 -169.98151042 209.51478182 -175.26953125 205.234375 C-178.31966573 202.73841374 -181.31584992 200.18460129 -184.3125 197.625 C-188.74841723 193.84196554 -193.26601262 190.19466784 -197.875 186.625 C-203.61410225 182.17426764 -209.11925551 177.49882249 -214.58300781 172.71557617 C-220.83346301 167.24765957 -227.17898189 161.88971146 -233.8046875 156.87890625 C-234.52914062 156.25886719 -235.25359375 155.63882813 -236 155 C-236 154.34 -236 153.68 -236 153 C-235.26284854 152.99853344 -234.52569708 152.99706688 -233.7662077 152.99555588 C-215.79501524 152.95843669 -197.82401634 152.8993544 -179.8529768 152.81609726 C-171.16215408 152.77635864 -162.47142124 152.74393993 -153.78051758 152.72900391 C-146.20182576 152.71596046 -138.62333212 152.68892744 -131.04475194 152.64538693 C-127.03525617 152.62283236 -123.02600427 152.60708569 -119.01643944 152.60811615 C-115.23486517 152.60886634 -111.45382876 152.59077319 -107.6723938 152.55883217 C-105.63847077 152.54638287 -103.60445714 152.5533691 -101.57051086 152.56114197 C-89.66905206 152.42708572 -79.52433668 149.68344942 -71 141 C-64.28695925 132.10016601 -59.66331591 121.70368322 -54.75 111.75 C-53.96015172 110.1638053 -53.16978901 108.57786666 -52.37890625 106.9921875 C-48.0972472 98.38544031 -43.91170734 89.7367683 -39.78515625 81.0546875 C-35.6232726 72.30812273 -31.3518491 63.62035649 -27.01171875 54.9609375 C-26.56337236 54.06637093 -26.56337236 54.06637093 -26.10596848 53.1537323 C-23.96937278 48.89269969 -21.82881322 44.63366336 -19.6875 40.375 C-17.82446367 36.66955898 -15.96202788 32.96382255 -14.10273743 29.25650024 C-12.95931251 26.97702753 -11.8141045 24.69844789 -10.66667175 22.42098999 C-6.95221326 15.01546061 -3.42999144 7.5413243 0 0 Z " fill="#E3A416" transform="translate(2874,286)"/>
<path d="M0 0 C0.66 0 1.32 0 2 0 C2.10454121 0.68837952 2.20908241 1.37675903 2.31679153 2.08599854 C4.86464258 18.85671356 7.42749015 35.62506143 10.0069313 52.39094543 C11.25398428 60.49894886 12.49599995 68.60766357 13.72607422 76.71826172 C14.79856002 83.78970014 15.8805834 90.85960256 16.97395396 97.92784309 C17.5522424 101.66845005 18.12581712 105.40964045 18.68796539 109.15270996 C19.21796198 112.68066764 19.76075547 116.20642412 20.31313896 119.73094368 C20.60770075 121.63170078 20.88891477 123.53451163 21.16963196 125.43736267 C22.73266722 135.2765407 25.14722841 142.17441051 33.0546875 148.59375 C40.93453277 154.29002369 51.38530355 153.16380855 60.64624023 153.20532227 C62.02656845 153.21491347 63.4068938 153.22492427 64.78721619 153.23532104 C68.51806925 153.26224162 72.2489348 153.28332031 75.9798305 153.30332303 C79.88493773 153.3252623 83.79000704 153.35261197 87.69508362 153.37937927 C95.08260048 153.42919917 102.47013851 153.47417749 109.85769659 153.51740164 C118.2712668 153.56686576 126.68479894 153.62174973 135.09833229 153.67708123 C152.39885297 153.79073686 169.69940904 153.89761135 187 154 C184.19228747 156.2607021 181.42756584 158.46612454 178.390625 160.41015625 C177.72740234 160.83683594 177.06417969 161.26351562 176.38085938 161.703125 C175.67767578 162.15171875 174.97449219 162.6003125 174.25 163.0625 C172.72391168 164.04289613 171.19787135 165.02336697 169.671875 166.00390625 C168.89521484 166.50164551 168.11855469 166.99938477 167.31835938 167.51220703 C163.70534819 169.83083489 160.10294515 172.16577423 156.5 174.5 C155.07948832 175.41936546 153.65891528 176.33863611 152.23828125 177.2578125 C151.18568115 177.9389209 151.18568115 177.9389209 150.11181641 178.63378906 C148.0266042 179.98278877 145.94107968 181.33130433 143.85546875 182.6796875 C135.37652552 188.16231244 126.90653869 193.65852299 118.44213867 199.16357422 C113.13258951 202.61603355 107.8185021 206.06135121 102.5 209.5 C99.66643331 211.33297286 96.8331658 213.16640758 94 215 C93.21125488 215.51030762 92.42250977 216.02061523 91.60986328 216.54638672 C86.57115903 219.80800811 81.54017508 223.08113514 76.51513672 226.36376953 C73.99723551 228.00179845 71.46985767 229.62441086 68.94140625 231.24609375 C67.33561812 232.2885707 65.7301366 233.33152013 64.125 234.375 C63.39418213 234.8383374 62.66336426 235.3016748 61.91040039 235.77905273 C55.38080281 240.05711754 50.56494359 245.08244308 47.1875 252.1875 C46.78917969 253.00605469 46.39085938 253.82460938 45.98046875 254.66796875 C42.06275084 263.98620616 44.27416375 274.17914906 45.8359375 283.82177734 C46.12854462 285.68701553 46.12854462 285.68701553 46.42706299 287.5899353 C46.84820687 290.2740597 47.27412517 292.95736477 47.70391846 295.64011765 C48.38370374 299.88343978 49.05262643 304.12843221 49.72021484 308.37368774 C50.77681757 315.08439561 51.84067945 321.79392895 52.9076519 328.50299513 C54.82049582 340.531958 56.72230788 352.56266541 58.6193409 364.59413111 C59.28493356 368.81349094 59.95417409 373.03225138 60.62643433 377.25055385 C61.14123862 380.48487428 61.65227978 383.71979013 62.1640625 386.95458984 C62.35107727 388.12139282 62.53809204 389.2881958 62.73077393 390.49035645 C62.89905701 391.55841522 63.06734009 392.626474 63.24072266 393.72689819 C63.46195297 395.11775918 63.46195297 395.11775918 63.68765259 396.53671837 C64 399 64 399 64 403 C59.80133457 401.28330428 56.73425639 398.33429081 53.375 395.375 C49.28580801 391.81869819 45.19142613 388.29733328 40.9375 384.9375 C37.07805312 381.88790427 33.30866474 378.74900597 29.5625 375.5625 C24.7733793 371.49025536 19.9438288 367.47518265 15.0703125 363.50390625 C11.24780691 360.38657026 7.43461513 357.2580706 3.625 354.125 C2.89273193 353.52284668 2.16046387 352.92069336 1.40600586 352.30029297 C-2.99217538 348.67607834 -7.35340815 345.01295661 -11.6875 341.3125 C-17.81444871 336.0913993 -24.10950581 331.09958457 -30.47851562 326.17773438 C-31.81866463 325.14036615 -33.15206334 324.09428983 -34.484375 323.046875 C-40.63039979 318.28717159 -46.12231878 315.9403206 -54 316 C-67.95626955 317.79272523 -79.23620875 326.6822948 -90.6875 334.25 C-91.8343121 335.00443691 -92.98136947 335.7585011 -94.12866211 336.51220703 C-96.39006097 337.99782902 -98.65081897 339.48440507 -100.91113281 340.97167969 C-104.9501595 343.62392706 -109.00294992 346.25430849 -113.0625 348.875 C-114.06156372 349.52033691 -114.06156372 349.52033691 -115.08081055 350.17871094 C-116.39375395 351.02656274 -117.70682155 351.87422225 -119.02001953 352.72167969 C-122.51520305 354.97824946 -126.00739253 357.23944609 -129.5 359.5 C-130.91665358 360.41668689 -132.33332022 361.3333536 -133.75 362.25 C-134.45125 362.70375 -135.1525 363.1575 -135.875 363.625 C-143.66666667 368.66666667 -151.45833333 373.70833333 -159.25 378.75 C-160.3028418 379.4313501 -160.3028418 379.4313501 -161.37695312 380.12646484 C-162.78686468 381.03862703 -164.19701913 381.95041389 -165.60742188 382.86181641 C-169.25457287 385.21930647 -172.89666213 387.58411653 -176.53125 389.9609375 C-183.56867804 394.55474004 -190.55845574 399.07627666 -198 403 C-196.74792158 399.05197237 -195.31527137 395.34616652 -193.515625 391.6171875 C-192.74762573 390.02318115 -192.74762573 390.02318115 -191.96411133 388.39697266 C-191.39845459 387.23472168 -190.83279785 386.0724707 -190.25 384.875 C-189.9553183 384.26662292 -189.6606366 383.65824585 -189.35702515 383.03143311 C-182.81652186 369.52905743 -176.07968409 356.12436077 -169.35235596 342.7144165 C-163.77670384 331.59898438 -158.23527484 320.47821001 -152.93701172 309.22729492 C-150.31881192 303.69050697 -147.61405178 298.20224748 -144.86328125 292.73046875 C-144.31664825 291.64250504 -144.31664825 291.64250504 -143.75897217 290.53256226 C-141.94675845 286.92892876 -140.12875046 283.32835167 -138.30322266 279.73144531 C-137.63825845 278.41345581 -136.97337826 277.0954239 -136.30859375 275.77734375 C-135.71876709 274.61452881 -135.12894043 273.45171387 -134.52124023 272.25366211 C-130.62023363 263.9101033 -129.43227866 255.40231109 -131.65234375 246.3359375 C-135.60951455 236.45150227 -144.97155096 230.44016508 -153 224 C-159.44928434 218.76579822 -165.83432524 213.46452258 -172.16357422 208.08642578 C-176.45972273 204.44163292 -180.8135055 200.87227136 -185.18359375 197.31640625 C-188.33785192 194.72212734 -191.4520298 192.08393735 -194.5625 189.4375 C-198.33088939 186.23260809 -202.12246028 183.07312306 -206 180 C-210.44467948 176.47739341 -214.7741222 172.8333593 -219.08911133 169.15429688 C-223.60957583 165.30663634 -228.21184455 161.57358209 -232.85546875 157.875 C-235 156 -235 156 -237 153 C-236.2586166 152.99945523 -235.5172332 152.99891047 -234.75338364 152.99834919 C-216.67333735 152.98335018 -198.59354572 152.94077758 -180.51363754 152.86790943 C-171.77013132 152.83332782 -163.02678163 152.8079129 -154.28320312 152.80444336 C-146.6579642 152.80139393 -139.03300455 152.78077255 -131.40787339 152.73947543 C-127.37425745 152.71823205 -123.34103767 152.70549982 -119.30736542 152.71384621 C-115.50189621 152.72144183 -111.69722606 152.70534339 -107.89190292 152.67193985 C-106.50371784 152.66377225 -105.11545228 152.66387814 -103.72727585 152.67340279 C-91.18139307 152.75088312 -80.61893414 149.88188556 -71.40797424 140.99468994 C-68.48843495 137.36378942 -66.44671361 133.60319256 -64.34741211 129.45996094 C-63.91789969 128.62781948 -63.48838728 127.79567802 -63.04585934 126.93832016 C-61.68708449 124.29726256 -60.34181115 121.64971178 -59 119 C-58.57668018 118.16698868 -58.15336037 117.33397736 -57.71721268 116.47572327 C-54.64226186 110.41798482 -51.60147069 104.34342098 -48.56640625 98.265625 C-47.59825525 96.32999985 -46.62998573 94.39443398 -45.66160583 92.45892334 C-43.6477001 88.43257223 -41.63521344 84.40551607 -39.6237793 80.37792969 C-37.08061612 75.28592028 -34.53384365 70.19572601 -31.98609352 65.10601044 C-17.72200817 36.62577328 -17.72200817 36.62577328 -3.91525269 7.92224121 C-2.64862605 5.26203386 -1.33087748 2.62854233 0 0 Z " fill="#E3A416" transform="translate(3306,12)"/>
<path d="M0 0 C2.01478786 3.02218179 2.40880568 4.41531921 2.94163513 7.90487671 C3.09991791 8.91674042 3.25820068 9.92860413 3.42127991 10.97113037 C3.66992043 12.6355014 3.66992043 12.6355014 3.92358398 14.33349609 C4.104375 15.50298798 4.28516602 16.67247986 4.47143555 17.87741089 C4.96643006 21.08797311 5.4548201 24.29946096 5.94064593 27.51142073 C6.45246804 30.88284656 6.97355966 34.25283741 7.49391174 37.62295532 C8.70509761 45.47736483 9.90497851 53.33348156 11.10388184 61.18977356 C12.62499132 71.15316594 14.15193535 81.11565731 15.68744904 91.07684004 C16.20329207 94.42517323 16.71688138 97.77382077 17.22521782 101.12330246 C17.79488307 104.87372173 18.37043177 108.62319857 18.94702148 112.37255859 C19.19262566 114.00656616 19.19262566 114.00656616 19.44319153 115.67358398 C21.52546015 132.67753349 21.52546015 132.67753349 30 147 C39.53484277 153.54537061 49.40097269 153.15495815 60.55444336 153.20532227 C61.9249195 153.21491363 63.29539277 153.22492442 64.66586304 153.23532104 C68.36985733 153.26223999 72.07386419 153.28331955 75.77790141 153.30332303 C79.65498158 153.32526332 83.53202357 153.35261248 87.40907288 153.37937927 C94.74346565 153.4291978 102.07787973 153.47417662 109.412314 153.51740164 C117.76542603 153.56686694 126.11849974 153.62175046 134.47157466 153.67708123 C151.64768098 153.79073476 168.82382293 153.8976097 186 154 C182.70024907 157.41742407 179.24003625 159.87415271 175.1875 162.3125 C168.30131944 166.53620668 161.50907859 170.88834502 154.75 175.3125 C153.77232666 175.95195557 152.79465332 176.59141113 151.78735352 177.25024414 C149.81539196 178.54038372 147.84362961 179.83082782 145.87207031 181.12158203 C141.46178285 184.00603899 137.04398372 186.87888939 132.625 189.75 C131.80636475 190.28197998 130.98772949 190.81395996 130.14428711 191.36206055 C121.41637395 197.0317507 112.67690939 202.6835503 103.93652344 208.33398438 C93.02233938 215.39034688 82.11112194 222.4512249 71.2265625 229.55322266 C69.26116182 230.83030209 67.28884862 232.09543622 65.3125 233.35546875 C55.37353113 239.77852738 48.0544619 246.10419598 44.45199585 257.77541637 C42.56614572 267.05698681 44.33352547 276.97937892 45.8359375 286.1940918 C46.12854462 288.06480598 46.12854462 288.06480598 46.42706299 289.97331238 C46.95542002 293.35004276 47.49584177 296.72473775 48.03858185 300.09918189 C48.60652058 303.6444492 49.16274845 307.19155337 49.72021484 310.73847961 C50.77484113 317.43762525 51.83930526 324.13516617 52.9076519 330.83213598 C54.47881576 340.68404505 56.03458124 350.53838834 57.59085083 360.39265919 C57.82048833 361.84655686 58.05013305 363.30045339 58.27978516 364.75434875 C58.39183855 365.46383897 58.50389194 366.17332919 58.6193409 366.90431911 C59.2857338 371.12159804 59.95485054 375.33843371 60.62643433 379.55488908 C60.94241889 381.53932847 61.25768757 383.52388181 61.57293701 385.50843811 C61.95765011 387.92999553 62.34353431 390.35136729 62.73077393 392.77252197 C62.89905701 393.83349594 63.06734009 394.89446991 63.24072266 395.9875946 C63.46195297 397.37537629 63.46195297 397.37537629 63.68765259 398.79119396 C64 401 64 401 64 403 C55.67281328 399.20461558 48.82117704 392.03563579 41.88891602 386.13891602 C38.45602544 383.22108478 34.99487509 380.34371932 31.5 377.5 C27.46016457 374.21176186 23.46919573 370.87265239 19.5 367.5 C14.7308879 363.44987401 9.92087568 359.45647887 5.0703125 355.50390625 C1.24780646 352.3865699 -2.56531122 349.2579816 -6.375 346.125 C-7.10581787 345.52429687 -7.83663574 344.92359375 -8.58959961 344.3046875 C-12.4937789 341.08861276 -16.37102567 337.8455476 -20.21337891 334.5559082 C-35.14702303 321.0408734 -35.14702303 321.0408734 -54 316 C-65.91437686 317.02448463 -75.130232 323.59259519 -84.75 330.12890625 C-89.41634703 333.29677369 -94.14232046 336.36993027 -98.875 339.4375 C-99.72408936 339.98841309 -100.57317871 340.53932617 -101.44799805 341.10693359 C-103.96465203 342.73900803 -106.48216387 344.36975 -109 346 C-109.75104004 346.48645996 -110.50208008 346.97291992 -111.27587891 347.47412109 C-116.86985745 351.09699549 -122.46652769 354.71570129 -128.06347656 358.33398438 C-136.3823469 363.71239512 -144.6955585 369.09933164 -153 374.5 C-167.0464095 383.63487071 -167.0464095 383.63487071 -173.74438477 387.95019531 C-177.43531462 390.32974091 -181.10914874 392.73183963 -184.765625 395.1640625 C-185.93798706 395.9382251 -185.93798706 395.9382251 -187.1340332 396.72802734 C-188.64209545 397.7244513 -190.14602943 398.72715849 -191.64526367 399.73681641 C-193.39135908 400.88582205 -195.19149734 401.95196313 -197 403 C-197.66 402.67 -198.32 402.34 -199 402 C-198.69408936 401.39341553 -198.38817871 400.78683105 -198.07299805 400.16186523 C-196.60876904 397.25494401 -195.14816142 394.3462154 -193.6875 391.4375 C-193.20732422 390.48552734 -192.72714844 389.53355469 -192.23242188 388.55273438 C-188.68657729 381.48363019 -185.25991633 374.36437344 -181.86328125 367.22265625 C-175.40530114 353.66194904 -168.65830309 340.25021061 -161.90673828 326.83398438 C-154.85165789 312.80613648 -147.93149393 298.72522347 -141.20401001 284.53715515 C-138.9392836 279.76480091 -136.66516278 274.99680224 -134.37683105 270.23571777 C-130.90801459 262.90742112 -129.38497132 255.44758379 -131.75390625 247.45703125 C-134.56633871 240.87263055 -138.4562088 236.20861156 -144.0625 231.75 C-145.03574219 230.96882813 -146.00898438 230.18765625 -147.01171875 229.3828125 C-147.99785156 228.59648438 -148.98398438 227.81015625 -150 227 C-156.45123256 221.7682645 -162.83437559 216.46447979 -169.16357422 211.08642578 C-173.46468969 207.43741903 -177.82328306 203.86369742 -182.19921875 200.3046875 C-185.26775787 197.77966925 -188.29039812 195.20515231 -191.3125 192.625 C-195.74851156 188.84207889 -200.26593781 185.19457983 -204.875 181.625 C-210.63753693 177.1577233 -216.1596389 172.4591034 -221.64233398 167.65405273 C-226.64367903 163.2784546 -231.75624438 159.08396026 -237 155 C-236.505 154.01 -236.505 154.01 -236 153 C-235.29892467 153.00184359 -234.59784933 153.00368717 -233.87552929 153.00558662 C-216.78070849 153.04984351 -199.68590233 153.08289435 -182.5910368 153.10362434 C-174.32393518 153.11391684 -166.05687192 153.12793824 -157.78979492 153.15087891 C-150.58037009 153.17087504 -143.37097305 153.18373115 -136.16152126 153.18817699 C-132.34766848 153.19077387 -128.53389517 153.19683499 -124.72006798 153.21146011 C-121.12254393 153.2251426 -117.52513129 153.22920134 -113.92758369 153.22621536 C-111.99380184 153.22701877 -110.06003181 153.23772414 -108.12628174 153.24884033 C-98.91166433 153.22730283 -89.44852479 152.95917942 -81.25 148.3125 C-80.40953125 147.85488281 -79.5690625 147.39726563 -78.703125 146.92578125 C-71.80261376 142.00966558 -67.66981811 136.40193485 -63.9375 128.875 C-63.44475586 127.90747803 -62.95201172 126.93995605 -62.44433594 125.94311523 C-56.13241913 113.4545903 -50.05052867 100.84742171 -43.9284668 88.26513672 C-35.84274396 71.65664347 -27.59955926 55.12964517 -19.29589844 38.62915039 C-14.09502702 28.27966844 -8.990135 17.89579571 -4.07061768 7.40905762 C-3.68089783 6.58119751 -3.29117798 5.7533374 -2.88964844 4.90039062 C-2.54754333 4.16904907 -2.20543823 3.43770752 -1.85296631 2.6842041 C-1 1 -1 1 0 0 Z " fill="#E3A416" transform="translate(3148,854)"/>
</svg>
