<?xml version="1.0" encoding="UTF-8"?>
<svg version="1.1" xmlns="http://www.w3.org/2000/svg" width="1280" height="1280">
<path d="M0 0 C1.02479696 -0.00191714 1.02479696 -0.00191714 2.0702969 -0.00387301 C4.35699904 -0.00693287 6.64363193 -0.00287579 8.93033177 0.00115067 C10.59506805 0.00041089 12.25980419 -0.00076784 13.9245399 -0.00234553 C18.51271602 -0.00541648 23.10087001 -0.00223826 27.68904448 0.00193275 C32.66394982 0.00535914 37.63885285 0.00299424 42.61375862 0.00134999 C51.34658226 -0.00073062 60.07939909 0.00092419 68.81222194 0.00498337 C81.96637568 0.01107763 95.12052528 0.01135388 108.27468017 0.01051807 C130.31719673 0.00927501 152.35971036 0.01256461 174.40222603 0.01862293 C204.20674667 0.02679722 234.01126254 0.02872541 263.81578499 0.029594 C335.49120064 0.034849 407.16661543 0.04881005 478.84203011 0.0616985 C638.91265511 0.0823235 798.98328011 0.1029485 963.90453011 0.1241985 C963.90453011 377.9741985 963.90453011 755.8241985 963.90453011 1145.1241985 C919.35453011 1145.1241985 874.80453011 1145.1241985 828.90453011 1145.1241985 C828.90453011 1189.6741985 828.90453011 1234.2241985 828.90453011 1280.1241985 C451.05453011 1280.1241985 73.20453011 1280.1241985 -316.09546989 1280.1241985 C-316.17796989 1120.3216985 -316.26046989 960.5191985 -316.34546989 795.8741985 C-316.38188591 745.36325123 -316.41830192 694.85230397 -316.45582145 642.81072193 C-316.47388786 581.26531178 -316.47388786 581.26531178 -316.47724479 552.47924 C-316.48122678 530.98892253 -316.49848741 509.49865529 -316.5221636 488.00835192 C-316.54598147 466.09327801 -316.55481505 444.17823582 -316.54924969 422.26314946 C-316.5463805 409.23418417 -316.55432866 396.20533694 -316.57870027 383.17639351 C-316.59370951 374.56817617 -316.59414299 365.96003716 -316.58281125 357.3518144 C-316.57677491 352.45233642 -316.57697121 347.55308483 -316.59500021 342.65363127 C-316.7246036 305.23582247 -316.7246036 305.23582247 -312.09546989 289.1241985 C-311.9010608 288.4358602 -311.70665171 287.7475219 -311.50635144 287.03832486 C-308.58539016 276.77980058 -304.15344422 267.46642085 -299.09546989 258.1241985 C-298.35490349 256.75134693 -298.35490349 256.75134693 -297.59937614 255.350761 C-289.05028463 240.38379625 -277.00084885 228.58321532 -264.89327043 216.51516598 C-262.42013144 214.04681055 -259.95570615 211.5697784 -257.49006218 209.09394032 C-252.67376279 204.26054891 -247.84942819 199.43525811 -243.02194664 194.61303768 C-239.09437531 190.68952674 -235.16958589 186.76325304 -231.24670738 182.83505017 C-230.68593071 182.27352507 -230.12515403 181.71199998 -229.54738413 181.13345897 C-228.40776837 179.99231156 -227.26815596 178.8511608 -226.12854686 177.71000674 C-215.47021288 167.03798283 -204.80236325 156.37551137 -194.13143626 145.71608134 C-184.39346771 135.9880449 -174.6669859 126.24861677 -164.94595072 116.50366161 C-154.93453698 106.46780146 -144.91569167 96.43941707 -134.88872832 86.41909194 C-129.27135867 80.80520178 -123.65683283 75.18854087 -118.05000633 69.56411892 C-113.27796386 64.77728507 -108.49882591 59.99767124 -103.71071979 55.2269033 C-101.27355415 52.79819262 -98.83955638 50.36653588 -96.41434807 47.92588001 C-86.54541745 38.00724722 -76.94031859 28.65769302 -65.09546989 21.1241985 C-64.30944011 20.61869371 -63.52341034 20.11318892 -62.71356148 19.5923658 C-60.95061981 18.48139649 -59.16970288 17.44330378 -57.34546989 16.4366985 C-56.69119011 16.07423023 -56.03691032 15.71176197 -55.36280388 15.33830982 C-38.58561137 6.31296851 -19.16260209 -0.00246909 0 0 Z M-181.09546989 135.1241985 C-181.09546989 468.4241985 -181.09546989 801.7241985 -181.09546989 1145.1241985 C152.20453011 1145.1241985 485.50453011 1145.1241985 828.90453011 1145.1241985 C828.90453011 811.8241985 828.90453011 478.5241985 828.90453011 135.1241985 C495.60453011 135.1241985 162.30453011 135.1241985 -181.09546989 135.1241985 Z " fill="#18E480" transform="translate(316.095469892025,-0.12419849634170532)"/>
<path d="M0 0 C0 333.3 0 666.6 0 1010 C333.3 1010 666.6 1010 1010 1010 C1010 1054.55 1010 1099.1 1010 1145 C632.15 1145 254.3 1145 -135 1145 C-135.0825 985.1975 -135.165 825.395 -135.25 660.75 C-135.28641602 610.23905273 -135.32283203 559.72810547 -135.36035156 507.68652344 C-135.37841797 446.14111328 -135.37841797 446.14111328 -135.3817749 417.3550415 C-135.38575689 395.86472403 -135.40301752 374.37445679 -135.42669371 352.88415342 C-135.45051158 330.96907951 -135.45934516 309.05403732 -135.4537798 287.13895096 C-135.45091061 274.10998567 -135.45885876 261.08113845 -135.48323038 248.05219501 C-135.49823962 239.44397767 -135.4986731 230.83583866 -135.48734136 222.22761591 C-135.48130502 217.32813792 -135.48150131 212.42888634 -135.49953032 207.52943277 C-135.6291337 170.11162398 -135.6291337 170.11162398 -131 154 C-130.80559091 153.3116617 -130.61118182 152.6233234 -130.41088155 151.91412637 C-127.48992027 141.65560209 -123.05797433 132.34222235 -118 123 C-117.50628906 122.08476562 -117.01257813 121.16953125 -116.50390625 120.2265625 C-107.28427826 104.08568403 -93.91216627 91.47565378 -80.85901451 78.48896956 C-78.08447378 75.72586976 -75.31777869 72.95493195 -72.54992676 70.18513489 C-67.91542915 65.54975981 -63.27504352 60.92034666 -58.63085938 56.29467773 C-53.25969553 50.9448047 -47.89755277 45.58601767 -42.54013014 40.22238654 C-37.37097333 35.04754668 -32.19618683 29.87837423 -27.01856995 24.71199989 C-24.81908868 22.51716534 -22.6215058 20.32045546 -20.42539978 18.12224388 C-17.84933436 15.54430184 -15.26836117 12.97137752 -12.6834259 10.4023304 C-11.28025827 9.00545561 -9.88201156 7.60364327 -8.48388672 6.20172119 C-7.23931702 4.9677787 -7.23931702 4.9677787 -5.96960449 3.70890808 C-5.24700188 2.98835834 -4.52439926 2.26780859 -3.7798996 1.525424 C-2 0 -2 0 0 0 Z " fill="#258752" transform="translate(135,135)"/>
<path d="M0 0 C17.49 0 34.98 0 53 0 C55.68685994 6.71714984 58.20933571 13.35295664 60.4675293 20.20727539 C60.94879776 21.65546158 60.94879776 21.65546158 61.43978882 23.13290405 C62.12914668 25.20853293 62.81711917 27.28462236 63.50382042 29.36113167 C64.58949677 32.64385185 65.67900351 35.92527893 66.76948547 39.20640564 C69.07887251 46.15731709 71.38351253 53.10979723 73.6875 60.0625 C76.36832714 68.15214976 79.05108511 76.24114852 81.73887062 84.3284893 C82.81433464 87.5678844 83.88619216 90.80845857 84.95793152 94.04908752 C85.6119966 96.01854189 86.26622822 97.98794095 86.9206543 99.95727539 C87.21934921 100.86369278 87.51804413 101.77011017 87.82579041 102.70399475 C88.09905151 103.52391907 88.37231262 104.34384338 88.65385437 105.18861389 C88.89109065 105.90476396 89.12832693 106.62091402 89.37275219 107.3587656 C89.87707917 109.01310497 89.87707917 109.01310497 91 110 C91.21725235 109.36885788 91.4345047 108.73771576 91.65834045 108.08744812 C94.45839419 99.95367286 97.25995699 91.82041786 100.0625 83.6875 C100.2876466 83.03410267 100.5127932 82.38070534 100.74476242 81.70750809 C107.59211682 61.83701006 114.47197223 41.97823214 121.41625977 22.14135742 C121.70674194 21.31097961 121.99722412 20.48060181 122.29650879 19.62506104 C122.82500813 18.11462556 123.35407552 16.60438864 123.88391113 15.09442139 C125.63952727 10.07766969 127.31870034 5.04389898 129 0 C145.5 0 162 0 179 0 C187.30863104 23.43460037 195.49076942 46.91002723 203.60995483 70.41085815 C204.68914033 73.53375061 205.76931971 76.65629796 206.84960938 79.77880859 C208.33471374 84.07182123 209.81413394 88.36674985 211.29101562 92.66259766 C212.02204779 94.78160575 212.75316435 96.90058474 213.484375 99.01953125 C213.82382141 100.01055344 214.16326782 101.00157562 214.51300049 102.02262878 C214.82549744 102.92628677 215.13799438 103.82994476 215.45996094 104.76098633 C215.73418884 105.55821609 216.00841675 106.35544586 216.29095459 107.17683411 C216.85489402 108.98913492 216.85489402 108.98913492 218 110 C226.9534006 84.03300028 235.697714 57.99779645 244.375 31.9375 C244.63804554 31.14750736 244.90109108 30.35751472 245.1721077 29.54358292 C248.45062642 19.69657016 251.72565297 9.84840178 255 0 C271.83 0 288.66 0 306 0 C304.87501787 7.87487489 304.87501787 7.87487489 303.56396484 11.61035156 C303.27149872 12.45378113 302.97903259 13.29721069 302.67770386 14.16619873 C302.35867096 15.0652594 302.03963806 15.96432007 301.7109375 16.890625 C301.20858078 18.33082001 301.20858078 18.33082001 300.69607544 19.80010986 C299.59502373 22.95219961 298.48501178 26.10105562 297.375 29.25 C296.59899187 31.46658079 295.82360962 33.68338078 295.04882812 35.90039062 C293.46522447 40.42890264 291.87820012 44.95619188 290.28808594 49.48242188 C287.312295 57.95439577 284.35712942 66.43352899 281.40206909 74.91275024 C280.49353923 77.51853031 279.5839655 80.12394376 278.67407227 82.72924805 C274.23296628 95.44734485 269.81719681 108.17412339 265.40722656 120.90304565 C259.97086583 136.59274767 254.52038687 152.27713681 249 167.9375 C248.74602448 168.65922394 248.49204895 169.38094788 248.2303772 170.12454224 C247.53008094 172.11350821 246.82793445 174.10180887 246.125 176.08984375 C245.73570312 177.19191162 245.34640625 178.29397949 244.9453125 179.42944336 C244 182 244 182 243 184 C226.5 184 210 184 193 184 C188.9081652 172.89359126 184.82719473 161.79675392 180.890625 150.63671875 C180.4338922 149.34563266 179.97699858 148.05460345 179.5199585 146.7636261 C177.62597012 141.41279034 175.73505029 136.06087155 173.84472656 130.70874023 C172.44508615 126.74662108 171.04372844 122.78511288 169.640625 118.82421875 C169.41142868 118.17718868 169.18223236 117.53015862 168.9460907 116.86352158 C163.74715215 102.19967798 158.3893606 87.59478342 153 73 C152.67412148 73.93125198 152.67412148 73.93125198 152.34165955 74.88131714 C133.85149983 127.71317617 133.85149983 127.71317617 125.50320435 151.16827393 C124.88350414 152.91018939 124.26488563 154.65249012 123.64743042 156.39520264 C122.79038685 158.81283432 121.92902852 161.22888533 121.06640625 163.64453125 C120.82757721 164.3203978 120.58874817 164.99626434 120.34268188 165.69261169 C118.11204848 171.90969954 115.55247718 177.87405478 113 184 C96.5 184 80 184 63 184 C61.80246094 180.52855469 60.60492187 177.05710937 59.37109375 173.48046875 C51.46207725 150.56109922 43.54504033 127.64483949 35.54428101 104.7572937 C31.83118256 94.13452225 28.13303252 83.50676676 24.45703125 72.87109375 C24.06920975 71.74910583 23.68138824 70.62711792 23.28181458 69.47113037 C21.71819401 64.94681977 20.15479617 60.42243282 18.59255981 55.89764404 C14.90650645 45.22337198 11.21753845 34.55107705 7.4140625 23.91796875 C7.14779053 23.17296112 6.88151855 22.42795349 6.60717773 21.66036987 C5.4108104 18.31730415 4.20820532 14.9766826 2.99511719 11.63964844 C2.39038574 9.95983887 2.39038574 9.95983887 1.7734375 8.24609375 C1.25402588 6.81801392 1.25402588 6.81801392 0.72412109 5.36108398 C0 3 0 3 0 0 Z " fill="#000000" transform="translate(515,573)"/>
<path d="M0 0 C17.49 0 34.98 0 53 0 C53.33 36.3 53.66 72.6 54 110 C61.55376138 100.70306292 68.90565921 91.53472172 76.02734375 81.9453125 C79.45786931 77.35694212 83.04111305 72.89724688 86.63647461 68.43774414 C91.52569919 62.36811303 96.26895153 56.19323335 101 50 C108.33454818 40.43584664 115.72312971 30.91472061 123.12841797 21.40527344 C125.07839255 18.8992534 127.02581631 16.39126836 128.97265625 13.8828125 C129.93703613 12.64084106 129.93703613 12.64084106 130.92089844 11.3737793 C132.16295165 9.77408273 133.40450431 8.17399737 134.64550781 6.57348633 C135.20206055 5.85700928 135.75861328 5.14053223 136.33203125 4.40234375 C136.82421143 3.76804443 137.3163916 3.13374512 137.82348633 2.48022461 C139 1 139 1 140 0 C141.9943173 -0.09405142 143.99199543 -0.11743249 145.98852539 -0.11352539 C147.26977798 -0.11344986 148.55103058 -0.11337433 149.87110901 -0.11329651 C151.27995848 -0.10818909 152.68880756 -0.10297309 154.09765625 -0.09765625 C155.53112234 -0.09579202 156.96458907 -0.09436814 158.39805603 -0.09336853 C162.17759957 -0.08954372 165.9571049 -0.07971377 169.7366333 -0.06866455 C173.59069298 -0.05844963 177.44475882 -0.05387074 181.29882812 -0.04882812 C188.86590287 -0.03809146 196.43294609 -0.02101549 204 0 C202.17366833 3.88734331 199.67809261 6.90496925 196.875 10.125 C195.8674549 11.29859167 194.86095016 12.47307727 193.85546875 13.6484375 C193.11756104 14.51033691 193.11756104 14.51033691 192.36474609 15.38964844 C190.59610307 17.47658392 188.8859909 19.60570129 187.1875 21.75 C181.76715218 28.58677616 176.18423946 35.29053101 170.63183594 42.02001953 C167.074784 46.33595179 163.53832761 50.66871385 160 55 C157.7437756 57.75804664 155.48711983 60.51573997 153.23046875 63.2734375 C151.79500065 65.02817784 150.36006204 66.78335155 148.92578125 68.5390625 C143.68794837 74.9483885 138.42822781 81.33943196 133.16455078 87.72753906 C128.43013415 93.47454846 123.71029181 99.23319414 119 105 C109.4825784 116.64982578 109.4825784 116.64982578 105 122 C106.66295599 125.82479878 109.15842224 128.90025267 111.75 132.125 C112.74532371 133.37718144 113.74008787 134.6298078 114.734375 135.8828125 C115.26353516 136.54829102 115.79269531 137.21376953 116.33789062 137.89941406 C119.2502854 141.58011979 122.12306245 145.29156166 125 149 C130.97257673 156.68840587 136.97680717 164.35121683 143 172 C149.63094911 180.42056586 156.2324962 188.86308626 162.80786133 197.32714844 C166.35838894 201.89551015 169.92068531 206.45416413 173.5 211 C178.28976847 217.08314809 183.04335971 223.19400491 187.79321289 229.30834961 C191.49439072 234.07050117 195.20831438 238.82225303 198.9375 243.5625 C199.60422729 244.41074341 199.60422729 244.41074341 200.28442383 245.27612305 C202.26498511 247.79564817 204.24764847 250.31345716 206.234375 252.828125 C206.87890625 253.64796875 207.5234375 254.4678125 208.1875 255.3125 C208.73792969 256.00988281 209.28835938 256.70726562 209.85546875 257.42578125 C211 259 211 259 211 260 C202.21191529 260.37269339 193.42659226 260.65594028 184.63229752 260.82899475 C180.54708889 260.91211367 176.46732606 261.02452338 172.38525391 261.20703125 C143.7879268 262.45231657 143.7879268 262.45231657 137.35864258 256.67480469 C134.58671232 253.38897878 132.64631802 249.84262335 130.90081787 245.92797852 C129.70821148 243.37549862 128.103328 241.34998409 126.29296875 239.203125 C125.77734375 238.54570313 125.26171875 237.88828125 124.73046875 237.2109375 C124.22128906 236.56382812 123.71210938 235.91671875 123.1875 235.25 C118.2120812 228.89128091 113.32840028 222.47098106 108.5 216 C101.96144022 207.23924557 95.28123242 198.59758303 88.54882812 189.98535156 C81.96651567 181.54787286 75.48661285 173.03014593 68.99194336 164.52514648 C64.01052959 158.00435689 59.00328833 151.50427483 54 145 C53.67 182.95 53.34 220.9 53 260 C35.51 260 18.02 260 0 260 C0 174.2 0 88.4 0 0 Z " fill="#000000" transform="translate(214,497)"/>
<path d="M0 0 C17.16 0 34.32 0 52 0 C52.33 30.03 52.66 60.06 53 91 C55.97 88.69 58.94 86.38 62 84 C80.85364407 72.8121233 102.1319832 70.05482369 123.42089844 75.02099609 C135.3359641 78.16386379 146.37278578 84.3862102 156 92 C156.74378906 92.58007812 157.48757813 93.16015625 158.25390625 93.7578125 C176.05474686 108.55572869 186.78909563 131.6068526 189.71875 154.33984375 C191.74573902 180.71885365 187.77164306 208.33790928 170.8125 229.625 C169.5534161 231.09348943 168.28209892 232.5515609 167 234 C166.22914063 234.96808594 165.45828125 235.93617188 164.6640625 236.93359375 C150.56789793 253.85647924 128.31377597 261.96527198 107 264 C88.91572126 265.28030292 69.24357372 259.70423635 55.1875 248.0625 C54.465625 247.381875 53.74375 246.70125 53 246 C52.67 250.62 52.34 255.24 52 260 C34.84 260 17.68 260 0 260 C0 174.2 0 88.4 0 0 Z M58.78515625 134.5859375 C55.8946471 138.49476607 53.81435872 142.49846605 52 147 C51.6803125 147.77214844 51.360625 148.54429687 51.03125 149.33984375 C46.07970066 163.85063416 47.99322294 180.73920604 54.09765625 194.46875 C59.81026073 205.7777704 68.74799893 213.5705835 80.625 217.875 C91.60579171 220.75832109 103.80315721 220.03896458 114 215 C125.72756867 207.73920121 133.23306827 197.23557314 136.8125 184 C140.09543369 168.11060096 138.92534682 150.8986744 130 137 C122.73593568 127.47474834 114.10229298 119.95511008 102 118 C84.60909202 116.54024503 70.23943632 120.96832422 58.78515625 134.5859375 Z " fill="#000000" transform="translate(214,804)"/>
<path d="M0 0 C17.16 0 34.32 0 52 0 C52.33 48.18 52.66 96.36 53 146 C56.96 141.38 60.92 136.76 65 132 C67.14301621 129.51824139 69.28710886 127.03781287 71.4375 124.5625 C72.52995884 123.3033949 73.62240642 122.04428002 74.71484375 120.78515625 C75.25737793 120.16012207 75.79991211 119.53508789 76.35888672 118.89111328 C79.61349953 115.14070702 82.86517042 111.38774777 86.1159668 107.6340332 C88.86955863 104.45508641 91.62676724 101.27940244 94.390625 98.109375 C94.95330078 97.46291016 95.51597656 96.81644531 96.09570312 96.15039062 C97.14516337 94.94481233 98.19580444 93.74026011 99.24804688 92.53710938 C99.73853516 91.97314453 100.22902344 91.40917969 100.734375 90.828125 C101.22573441 90.27822403 101.71709381 89.72832306 102.2233429 89.16175842 C104.09239741 86.9712605 104.09239741 86.9712605 105.77226257 84.25767517 C108.75037495 79.92876733 111.07044783 76.57714308 116.23727417 75.03170776 C120.07385705 74.73007795 123.82319139 74.75883978 127.66015625 74.92578125 C129.05970601 74.94633806 130.45933579 74.96197708 131.85899353 74.97294617 C135.51574293 75.01464186 139.16756532 75.12238171 142.8223877 75.24468994 C146.56255431 75.35790789 150.30352998 75.40759978 154.04492188 75.46289062 C161.36551048 75.58031724 168.68206105 75.76763658 176 76 C174.19973587 79.86131659 171.71905467 82.67975066 168.8125 85.75 C167.81051284 86.82488262 166.80920995 87.90040352 165.80859375 88.9765625 C165.32374512 89.49637695 164.83889648 90.01619141 164.33935547 90.55175781 C162.08503483 92.98934987 159.91722515 95.49975473 157.7421875 98.0078125 C155.68499601 100.36020635 153.59403085 102.68034966 151.5 105 C148.82951656 107.95869751 146.17701942 110.92926472 143.5625 113.9375 C139.91062947 118.13164365 136.15733816 122.23094292 132.41015625 126.33984375 C129.83006864 129.18755795 127.29798144 132.07244018 124.77734375 134.97265625 C122.70640513 137.33489173 120.60487152 139.66795853 118.5 142 C116.99957711 143.66628597 115.49955926 145.33293678 114 147 C113.35546875 147.71542969 112.7109375 148.43085937 112.046875 149.16796875 C108.3945323 153.27288435 105.11345496 157.47133824 102 162 C102.60585938 162.71542969 103.21171875 163.43085937 103.8359375 164.16796875 C109.20125056 170.54856413 114.38505784 177.02910188 119.44140625 183.65625 C122.05795423 187.08462198 124.71009622 190.48412493 127.375 193.875 C127.83140869 194.45580322 128.28781738 195.03660645 128.75805664 195.63500977 C131.61257256 199.25910358 134.49180561 202.86244996 137.38305664 206.45727539 C142.15308028 212.38877753 146.83598251 218.37418592 151.4375 224.4375 C155.81846726 230.20827773 160.29110111 235.88899519 164.875 241.5 C165.41721191 242.16394775 165.95942383 242.82789551 166.51806641 243.51196289 C167.5459806 244.77008538 168.57397136 246.02814533 169.60205078 247.28613281 C171.52015546 249.63770369 173.42558267 251.99831942 175.3125 254.375 C175.84488281 255.04273438 176.37726563 255.71046875 176.92578125 256.3984375 C178 258 178 258 178 260 C169.95915706 260.30261237 161.92072892 260.53286005 153.87558174 260.67355824 C150.13862775 260.74112874 146.40559469 260.83255711 142.67089844 260.98071289 C116.50758637 261.99131632 116.50758637 261.99131632 111.00683594 257.36474609 C108.26457889 254.24089792 106.68962297 250.77463814 105 247 C103.82176369 245.37840993 102.59616684 243.78947867 101.3125 242.25 C100.76464844 241.54681641 100.21679688 240.84363281 99.65234375 240.11914062 C98.83443359 239.07016602 98.83443359 239.07016602 98 238 C93.98501227 232.84468638 89.97898788 227.68315526 86 222.5 C81.05338873 216.05808957 76.06787816 209.64680759 71.078125 203.23828125 C65.04929714 195.49435581 59.0252304 187.7467248 53 180 C52.67 206.4 52.34 232.8 52 260 C34.84 260 17.68 260 0 260 C0 174.2 0 88.4 0 0 Z " fill="#000000" transform="translate(840,804)"/>
<path d="M0 0 C0.99 0.99 1.98 1.98 3 3 C3.33 -1.95 3.66 -6.9 4 -12 C21.16 -12 38.32 -12 56 -12 C56 48.72 56 109.44 56 172 C38.84 172 21.68 172 4 172 C3.67 167.38 3.34 162.76 3 158 C1.7625 159.03125 0.525 160.0625 -0.75 161.125 C-12.21814768 169.98105788 -26.47060858 175.38457458 -41 176 C-41.75152344 176.03996094 -42.50304687 176.07992188 -43.27734375 176.12109375 C-64.67199897 176.71057372 -86.15944642 169.48137971 -102 155 C-102.48742676 154.55495117 -102.97485352 154.10990234 -103.47705078 153.65136719 C-110.55574763 147.10728831 -116.32848687 140.51226748 -121 132 C-121.52078125 131.07832031 -122.0415625 130.15664063 -122.578125 129.20703125 C-135.70277786 104.64802174 -137.60619335 75.13953241 -129.74609375 48.5859375 C-122.10067397 24.61615055 -106.82438014 5.79180787 -84.6484375 -6.17578125 C-57.30746166 -20.2558718 -24.91177359 -18.03219289 0 0 Z M-72.109375 46.3828125 C-81.47418161 59.34649107 -84.07859575 75.46856311 -81.67919922 91.08837891 C-78.88983532 105.14365485 -72.20874267 117.74985059 -60.0625 125.9375 C-49.71672531 131.64690991 -38.16320868 132.60212507 -26.65625 130.34375 C-15.04580936 126.87258733 -5.11957748 119.59220052 0.69140625 108.8828125 C7.77694439 94.09708714 10.28002138 76.6338472 4.9375 60.75 C0.14193754 48.53945022 -7.75033459 38.70750389 -19.75 33.0625 C-39.01871356 24.75216301 -58.9034096 30.94119154 -72.109375 46.3828125 Z " fill="#000000" transform="translate(555,892)"/>
<path d="M0 0 C2.5154662 2.20431315 4.89842177 4.47804464 7.24609375 6.859375 C7.82101562 7.42398438 8.3959375 7.98859375 8.98828125 8.5703125 C21.85511221 22.23715367 24.4149967 42.40832004 24.35961914 60.31225586 C24.35976517 61.55198151 24.35991119 62.79170715 24.36006165 64.06900024 C24.35948635 67.45073352 24.3544878 70.83240496 24.34748769 74.2141273 C24.34121586 77.75485599 24.34064733 81.29558559 24.33946228 84.83631897 C24.33636023 91.53325314 24.32816207 98.2301709 24.31811279 104.92709786 C24.30691662 112.55468231 24.30143239 120.18226757 24.29641736 127.8098582 C24.28597847 143.49304158 24.26764705 159.17620236 24.24609375 174.859375 C7.08609375 174.859375 -10.07390625 174.859375 -27.75390625 174.859375 C-27.79128906 167.00898437 -27.82867188 159.15859375 -27.8671875 151.0703125 C-27.89748916 146.07549953 -27.92865152 141.08072125 -27.96289062 136.0859375 C-28.01706882 128.17059829 -28.06818456 120.25531069 -28.1003418 112.33984375 C-28.12648894 105.9530565 -28.16697151 99.56650167 -28.21709251 93.17985916 C-28.23368431 90.75205009 -28.24524616 88.32420089 -28.25152016 85.89634323 C-27.49711679 62.79633586 -27.49711679 62.79633586 -35.75390625 41.859375 C-43.36229802 34.59311648 -50.74713003 33.4477491 -61.05078125 33.609375 C-68.73245839 34.12796924 -74.34472714 36.20432412 -79.75390625 41.859375 C-86.70415847 51.50260244 -88.20285986 62.90141991 -88.1862793 74.50292969 C-88.19647095 75.59708191 -88.2066626 76.69123413 -88.21716309 77.81854248 C-88.24705166 81.38949871 -88.25652203 84.96018565 -88.265625 88.53125 C-88.28248957 91.02517573 -88.30064218 93.51909304 -88.32002258 96.01300049 C-88.36733536 102.54273857 -88.39726572 109.07244254 -88.42346191 115.60229492 C-88.45676144 123.45535229 -88.51558836 131.30828333 -88.56885529 139.16122437 C-88.64714936 151.06059083 -88.69792182 162.95978852 -88.75390625 174.859375 C-105.91390625 174.859375 -123.07390625 174.859375 -140.75390625 174.859375 C-140.75390625 114.139375 -140.75390625 53.419375 -140.75390625 -9.140625 C-123.59390625 -9.140625 -106.43390625 -9.140625 -88.75390625 -9.140625 C-88.25890625 -2.210625 -88.25890625 -2.210625 -87.75390625 4.859375 C-86.72265625 3.84875 -85.69140625 2.838125 -84.62890625 1.796875 C-62.31856435 -17.63598464 -23.2712831 -18.08888389 0 0 Z " fill="#000000" transform="translate(784.75390625,889.140625)"/>
<path d="M0 0 C17.16 0 34.32 0 52 0 C52 60.72 52 121.44 52 184 C34.84 184 17.68 184 0 184 C0 123.28 0 62.56 0 0 Z " fill="#000000" transform="translate(841,573)"/>
<path d="M0 0 C17.16 0 34.32 0 52 0 C52 60.72 52 121.44 52 184 C34.84 184 17.68 184 0 184 C0 123.28 0 62.56 0 0 Z " fill="#000000" transform="translate(441,573)"/>
<path d="M0 0 C8.69073502 5.12994776 13.47036535 11.64651618 16.25 21.328125 C17.35800372 32.31797582 15.89806566 40.09668743 8.9375 48.640625 C3.53218272 54.45018609 -3.0866091 57.85294536 -11.046875 58.6640625 C-21.89314073 58.78675781 -29.94287018 56.93872947 -37.9921875 49.39453125 C-44.50010023 41.74411828 -46.50954835 33.11785928 -45.75 23.328125 C-44.31095418 15.23044341 -41.01971995 8.77144754 -34.5703125 3.5703125 C-24.21432295 -3.6474984 -11.69871909 -5.46453326 0 0 Z " fill="#000000" transform="translate(1076.75,1007.671875)"/>
<path d="M0 0 C6.30098891 4.93577465 10.30247566 11.6484895 11.859375 19.52734375 C12.74622037 28.29346911 10.87165199 36.15242374 5.734375 43.33984375 C0.11097804 50.05470172 -7.71907152 53.91784037 -16.4453125 54.74609375 C-25.12875173 55.0707083 -33.34007857 53.11890415 -40.140625 47.52734375 C-47.39563523 40.50687049 -50.22844377 34.74938915 -50.578125 24.65234375 C-50.36076029 15.81599585 -47.98932758 8.59732134 -41.91796875 2.0625 C-30.16657801 -8.08760233 -12.6011107 -8.66901229 0 0 Z " fill="#000000" transform="translate(886.140625,498.47265625)"/>
<path d="M0 0 C7.84610436 5.00575834 12.28510927 11.70689031 15.1796875 20.390625 C16.08473658 30.96931345 14.70286994 39.27895057 8.0546875 47.703125 C2.39122786 53.7327566 -4.97420026 56.87970427 -13.14453125 57.59375 C-22.1535269 57.77244082 -29.91202126 55.96326281 -37 50.1953125 C-43.49373661 43.75731611 -46.84559029 36.67732446 -47.1328125 27.578125 C-46.88614183 17.57562933 -44.16659604 11.84118633 -37.23828125 4.5625 C-27.6173922 -4.07920325 -11.62571302 -5.55842171 0 0 Z " fill="#000000" transform="translate(482.8203125,495.609375)"/>
</svg>
