<svg id="Layer_1" data-name="Layer 1" xmlns="http://www.w3.org/2000/svg" viewBox="0 0 318.39 91.98"><defs><style>.cls-1{fill:#1a124d;}.cls-2{fill:#007c4e;}.cls-3{fill:#00b18f;}</style></defs><title>TSB_Horz_CMYK</title><polygon class="cls-1" points="168.46 27.29 152.46 27.29 152.46 15.06 201.77 15.06 201.77 27.29 185.77 27.29 185.77 76.92 168.46 76.92 168.46 27.29"/><path class="cls-1" d="M322.81,225.44a39.56,39.56,0,0,0,17.86,4.08c5.49,0,10.7-1.06,10.7-6,0-11.52-30.7-4.25-30.7-26.76,0-14.89,15.26-19,28.29-19a57.5,57.5,0,0,1,16.75,2.3l0,12.76c-4.47-1.95-10.63-2.84-15.56-2.84-4.37,0-11.63.35-11.63,5.76,0,10,30.7,3.28,30.7,25.61,0,16-14.14,20.38-28.56,20.38a63.82,63.82,0,0,1-18.29-2.66Z" transform="translate(-112.35 -163.77)"/><path class="cls-1" d="M395.38,229h5.12c6.33,0,12.93-.89,12.93-7.18,0-6.74-6.79-7.36-12.75-7.36h-5.3Zm0-25.7h4.84c5.67,0,11.54-1.33,11.54-6.56,0-5.67-5.58-6.2-11.35-6.2h-5Zm-17.31-24.46h29.87c12.1,0,21.12,5.05,21.12,15.68,0,7.8-4.19,12.14-11.44,14.44v.18c8.65,1.68,13.12,6.11,13.12,13.65,0,14.8-13.68,17.9-25.31,17.9H378.08Z" transform="translate(-112.35 -163.77)"/><path class="cls-2" d="M188.58,207.61V163.77a104.55,104.55,0,0,1-76.23,46,104.55,104.55,0,0,1,76.23,46V211.9c-19.12,0-37.8-.93-56-2.15,18.19-1.21,36.88-2.15,56-2.15" transform="translate(-112.35 -163.77)"/><path class="cls-3" d="M188.58,207.61V163.77a104.55,104.55,0,0,0,76.23,46,104.55,104.55,0,0,0-76.23,46V211.9c19.12,0,37.8-.93,56-2.15-18.19-1.21-36.87-2.15-56-2.15" transform="translate(-112.35 -163.77)"/></svg>